<svg width="345" height="51" viewBox="0 0 345 51" fill="none" xmlns="http://www.w3.org/2000/svg">
<path d="M257.684 22.7568L263.301 32.1385L255.194 50.6625L243.964 44.9059L252.718 33.5276L251.37 31.2758L236.775 32.8975L237.445 21.0163L257.684 22.7568Z" fill="#E2E2E2"/>
<path d="M290.262 32.4058L275.667 30.7845L274.319 33.0363L283.073 44.4146L272.068 49.796L263.511 32.0224L269.128 22.6407L289.817 20.1494L290.262 32.4058Z" fill="#E2E2E2"/>
<path d="M280.586 6.49979L268.903 22.5328H257.669L245.088 6.49979L255.872 0L261.714 12.9996H264.409L270.251 0L280.586 6.49979Z" fill="#E2E2E2"/>
<path d="M57.163 0V12.5592H13.9781V19.5838H57.163V32.8526H13.9781V50.6625H0V0H57.163Z" fill="#DFDFDF"/>
<path d="M60.8725 40.7996H72.6435V9.93382H60.8725V0H98.3925V9.93382H86.6215V40.7996H98.3925V50.6625H60.8725V40.7996Z" fill="#DFDFDF"/>
<path d="M165.748 0L141.986 25.3313L165.748 50.6625H146.767L131.759 33.5621L116.751 50.6625H97.6971L121.46 25.3313L97.6971 0H116.751L131.759 17.1004L146.767 0H165.748Z" fill="#DFDFDF"/>
<path d="M231.211 14.404C231.211 16.3908 230.794 18.3303 229.961 20.2224C229.127 22.1146 227.778 23.8175 225.914 25.3313C227.778 26.845 229.127 28.5716 229.961 30.511C230.794 32.4032 231.211 34.319 231.211 36.2585C231.211 38.9075 230.745 41.1544 229.813 42.9993C228.882 44.7968 227.631 46.2632 226.061 47.3985C224.492 48.5338 222.653 49.3616 220.544 49.882C218.435 50.4023 216.228 50.6625 213.923 50.6625H164.337V0H213.923C216.228 0 218.435 0.260171 220.544 0.780513C222.653 1.30086 224.492 2.12868 226.061 3.26397C227.631 4.39926 228.882 5.88934 229.813 7.73419C230.745 9.53174 231.211 11.755 231.211 14.404ZM212.451 20.7191C213.972 20.7191 215.149 20.388 215.983 19.7257C216.865 19.0162 217.307 17.9755 217.307 16.6037C217.307 15.3738 216.865 14.404 215.983 13.6945C215.149 12.9376 214.07 12.5592 212.745 12.5592H178.242V20.7191H212.451ZM178.242 30.0143V38.1033H212.745C214.07 38.1033 215.149 37.7485 215.983 37.039C216.865 36.3294 217.307 35.336 217.307 34.0588C217.307 32.687 216.865 31.67 215.983 31.0077C215.149 30.3455 213.972 30.0143 212.451 30.0143H178.242Z" fill="#DFDFDF"/>
<path d="M291.504 0H344.4V12.7721H324.684V50.6625H310.779V12.7721H291.504V0Z" fill="#DFDFDF"/>
</svg>
