<svg width="719" height="672" viewBox="0 0 719 672" fill="none" xmlns="http://www.w3.org/2000/svg">
<g clip-path="url(#clip0_1072_3290)">
<rect width="720" height="672" fill="#017DFF"/>
<line x1="696.152" y1="337.56" x2="24.0005" y2="337.56" stroke="#003E94" stroke-opacity="0.6" stroke-width="1.12025"/>
<path d="M360.383 337.56C521.128 337.56 651.437 467.595 651.437 628C651.437 788.404 521.128 918.439 360.383 918.439C199.637 918.439 69.3301 788.404 69.3301 628C69.3301 467.595 199.637 337.56 360.383 337.56Z" stroke="#003E94" stroke-opacity="0.6" stroke-width="1.12025"/>
<path d="M360.383 -244.44C521.128 -244.44 651.437 -114.404 651.437 45.9999C651.437 206.404 521.128 336.439 360.383 336.439C199.637 336.439 69.3301 206.404 69.3301 45.9999C69.3301 -114.404 199.637 -244.44 360.383 -244.44Z" stroke="#003E94" stroke-opacity="0.6" stroke-width="1.12025"/>
<circle cx="360.076" cy="336.387" r="335.516" stroke="#003E94" stroke-opacity="0.6" stroke-width="1.12025"/>
<line x1="92.7873" y1="331.956" x2="81.5123" y2="343.231" stroke="#003E94" stroke-opacity="0.6" stroke-width="2.24051"/>
<line x1="92.0721" y1="343.231" x2="80.7972" y2="331.956" stroke="#003E94" stroke-opacity="0.6" stroke-width="2.24051"/>
<line x1="641.054" y1="331.956" x2="629.779" y2="343.231" stroke="#003E94" stroke-opacity="0.6" stroke-width="2.24051"/>
<line x1="640.338" y1="343.231" x2="629.063" y2="331.956" stroke="#003E94" stroke-opacity="0.6" stroke-width="2.24051"/>
<circle cx="543.445" cy="402.621" r="5.5195" fill="#017DFF"/>
<circle cx="543.445" cy="402.621" r="4.95937" stroke="#003E94" stroke-opacity="0.6" stroke-width="1.12025"/>
<circle cx="177.932" cy="402.621" r="5.5195" fill="#017DFF"/>
<circle cx="177.932" cy="402.621" r="4.95937" stroke="#003E94" stroke-opacity="0.6" stroke-width="1.12025"/>
<line y1="-0.560127" x2="335.365" y2="-0.560127" transform="matrix(-0.817424 -0.576037 -0.576037 0.817424 634.824 336.387)" stroke="#003E94" stroke-opacity="0.6" stroke-width="1.12025" stroke-dasharray="25.77 25.77"/>
<line y1="-0.560127" x2="335.365" y2="-0.560127" transform="matrix(0.817424 0.576037 0.576037 -0.817424 86.5547 143.818)" stroke="#003E94" stroke-opacity="0.6" stroke-width="1.12025" stroke-dasharray="25.77 25.77"/>
<line x1="634.264" y1="681.093" x2="634.264" y2="9.50977" stroke="#003E94" stroke-opacity="0.6" stroke-width="1.12025" stroke-dasharray="25.77 25.77"/>
<line x1="360.128" y1="717.89" x2="360.128" y2="46.3061" stroke="#003E94" stroke-opacity="0.6" stroke-width="1.12025" stroke-dasharray="25.77 25.77"/>
<line x1="85.9946" y1="717.89" x2="85.9946" y2="46.3061" stroke="#003E94" stroke-opacity="0.6" stroke-width="1.12025" stroke-dasharray="25.77 25.77"/>
<circle cx="543.445" cy="271.379" r="5.5195" fill="#017DFF"/>
<circle cx="543.445" cy="271.379" r="4.95937" stroke="#003E94" stroke-opacity="0.6" stroke-width="1.12025"/>
<g clip-path="url(#clip1_1072_3290)">
<rect x="231.348" y="58.6477" width="256.014" height="554.355" rx="19.4966" fill="#DFDFDF"/>
<line x1="716.75" y1="335.842" x2="307.128" y2="335.842" stroke="#7E7E7E" stroke-opacity="0.6" stroke-width="0.682703"/>
<path d="M512.126 335.843C610.087 335.843 689.499 415.088 689.499 512.842C689.499 610.595 610.087 689.841 512.126 689.841C414.165 689.841 334.753 610.595 334.753 512.842C334.753 415.088 414.165 335.843 512.126 335.843Z" stroke="#7E7E7E" stroke-opacity="0.6" stroke-width="0.682703"/>
<path d="M512.126 -18.8388C610.087 -18.8386 689.499 60.407 689.499 158.16C689.499 255.913 610.087 335.159 512.126 335.159C414.165 335.159 334.753 255.914 334.753 158.16C334.753 60.4069 414.165 -18.8388 512.126 -18.8388Z" stroke="#7E7E7E" stroke-opacity="0.6" stroke-width="0.682703"/>
<circle cx="511.939" cy="335.127" r="204.469" stroke="#7E7E7E" stroke-opacity="0.6" stroke-width="0.682703"/>
<line x1="349.047" y1="332.427" x2="342.176" y2="339.298" stroke="#7E7E7E" stroke-opacity="0.6" stroke-width="1.36541"/>
<line x1="348.611" y1="339.298" x2="341.74" y2="332.427" stroke="#7E7E7E" stroke-opacity="0.6" stroke-width="1.36541"/>
<circle cx="400.937" cy="375.492" r="3.36368" fill="#080808"/>
<circle cx="400.937" cy="375.492" r="3.02233" stroke="#7E7E7E" stroke-opacity="0.6" stroke-width="0.682703"/>
<line y1="-0.341351" x2="204.377" y2="-0.341351" transform="matrix(0.817424 0.576037 0.576037 -0.817424 345.25 217.772)" stroke="#7E7E7E" stroke-opacity="0.6" stroke-width="0.682703" stroke-dasharray="15.7 15.7"/>
<line x1="344.909" y1="567.622" x2="344.909" y2="158.347" stroke="#7E7E7E" stroke-opacity="0.6" stroke-width="0.682703" stroke-dasharray="15.7 15.7"/>
<path d="M262.089 85.0062V84.0201L264.77 81.2773C265.14 80.9033 265.427 80.5954 265.631 80.3536C265.839 80.108 265.984 79.8927 266.068 79.7076C266.151 79.5187 266.192 79.3203 266.192 79.1125V79.0955C266.192 78.8462 266.137 78.6233 266.028 78.4268C265.918 78.2304 265.761 78.0774 265.557 77.9678C265.353 77.8545 265.11 77.7978 264.826 77.7978C264.539 77.7978 264.286 77.8582 264.067 77.9791C263.848 78.0962 263.678 78.2606 263.557 78.4722C263.436 78.6837 263.376 78.9312 263.376 79.2145L263.37 79.2372L262.01 79.2315L262.004 79.2145C262.004 78.7045 262.127 78.2549 262.373 77.8658C262.618 77.4767 262.958 77.1725 263.393 76.9534C263.827 76.7343 264.33 76.6247 264.9 76.6247C265.429 76.6247 265.899 76.7248 266.311 76.9251C266.727 77.1253 267.052 77.4011 267.286 77.7525C267.52 78.1038 267.637 78.5099 267.637 78.9708V78.9878C267.637 79.2939 267.579 79.5942 267.462 79.8889C267.344 80.1798 267.144 80.499 266.861 80.8466C266.581 81.1942 266.194 81.6079 265.699 82.0877L263.676 84.0541L264.061 83.4081V84.0541L263.676 83.7991H267.762V85.0062H262.089ZM272.381 85.2102C271.731 85.2102 271.173 85.0364 270.709 84.6888C270.248 84.3412 269.893 83.8463 269.643 83.2041C269.394 82.5618 269.269 81.8006 269.269 80.9203V80.909C269.269 80.0287 269.394 79.2693 269.643 78.6308C269.893 77.9886 270.248 77.4937 270.709 77.1461C271.173 76.7985 271.731 76.6247 272.381 76.6247C273.03 76.6247 273.588 76.7985 274.052 77.1461C274.517 77.4937 274.874 77.9886 275.123 78.6308C275.373 79.2693 275.497 80.0287 275.497 80.909V80.9203C275.497 81.8006 275.373 82.5618 275.123 83.2041C274.874 83.8463 274.517 84.3412 274.052 84.6888C273.588 85.0364 273.03 85.2102 272.381 85.2102ZM272.381 84.0258C272.728 84.0258 273.025 83.9011 273.27 83.6518C273.516 83.4024 273.703 83.0473 273.831 82.5864C273.963 82.1217 274.03 81.5663 274.03 80.9203V80.909C274.03 80.2629 273.963 79.7094 273.831 79.2485C273.703 78.7838 273.516 78.4287 273.27 78.1831C273.025 77.9338 272.728 77.8091 272.381 77.8091C272.033 77.8091 271.736 77.9338 271.491 78.1831C271.249 78.4287 271.062 78.7838 270.93 79.2485C270.801 79.7094 270.737 80.2629 270.737 80.909V80.9203C270.737 81.5663 270.801 82.1217 270.93 82.5864C271.062 83.0473 271.249 83.4024 271.491 83.6518C271.736 83.9011 272.033 84.0258 272.381 84.0258ZM278.098 83.9068C277.842 83.9068 277.626 83.8218 277.452 83.6518C277.282 83.478 277.197 83.2664 277.197 83.0171C277.197 82.7639 277.282 82.5524 277.452 82.3824C277.626 82.2086 277.842 82.1217 278.098 82.1217C278.359 82.1217 278.575 82.2086 278.745 82.3824C278.915 82.5524 279 82.7639 279 83.0171C279 83.2664 278.915 83.478 278.745 83.6518C278.575 83.8218 278.359 83.9068 278.098 83.9068ZM278.098 79.7019C277.842 79.7019 277.626 79.6169 277.452 79.4469C277.282 79.2731 277.197 79.0615 277.197 78.8122C277.197 78.559 277.282 78.3475 277.452 78.1775C277.626 78.0037 277.842 77.9168 278.098 77.9168C278.359 77.9168 278.575 78.0037 278.745 78.1775C278.915 78.3475 279 78.559 279 78.8122C279 79.0615 278.915 79.2731 278.745 79.4469C278.575 79.6169 278.359 79.7019 278.098 79.7019ZM283.788 85.1705C283.191 85.1705 282.668 85.0704 282.218 84.8702C281.773 84.6699 281.419 84.3922 281.159 84.0371C280.902 83.6782 280.754 83.2645 280.717 82.7961L280.711 82.728H282.105L282.111 82.7904C282.137 83.0208 282.222 83.2267 282.366 83.4081C282.509 83.5856 282.702 83.7254 282.944 83.8274C283.186 83.9257 283.467 83.9748 283.788 83.9748C284.102 83.9748 284.376 83.92 284.61 83.8104C284.848 83.7009 285.033 83.5498 285.165 83.3571C285.297 83.1644 285.364 82.9415 285.364 82.6884V82.677C285.364 82.2464 285.214 81.9158 284.916 81.6853C284.617 81.4549 284.206 81.3396 283.68 81.3396H282.711V80.2516H283.652C283.951 80.2516 284.213 80.1987 284.44 80.0929C284.666 79.9871 284.842 79.8436 284.967 79.6622C285.092 79.4771 285.154 79.2655 285.154 79.0275V79.0162C285.154 78.7631 285.099 78.5477 284.99 78.3702C284.884 78.1926 284.727 78.0566 284.519 77.9621C284.315 77.8677 284.068 77.8205 283.777 77.8205C283.49 77.8205 283.235 77.8696 283.012 77.9678C282.793 78.066 282.617 78.2058 282.485 78.3872C282.352 78.5647 282.273 78.7744 282.247 79.0162L282.241 79.0729H280.887L280.892 79.0049C280.934 78.5326 281.077 78.1227 281.323 77.7751C281.572 77.4238 281.905 77.1518 282.32 76.9591C282.74 76.7626 283.225 76.6644 283.777 76.6644C284.34 76.6644 284.829 76.757 285.245 76.9421C285.66 77.1234 285.981 77.3747 286.208 77.6958C286.438 78.0169 286.554 78.3928 286.554 78.8235V78.8348C286.554 79.1711 286.478 79.4695 286.327 79.7302C286.18 79.9871 285.976 80.2006 285.715 80.3706C285.458 80.5406 285.165 80.6596 284.836 80.7276V80.7559C285.441 80.8126 285.926 81.0128 286.293 81.3566C286.659 81.6967 286.843 82.15 286.843 82.7167V82.728C286.843 83.2041 286.714 83.6272 286.457 83.9974C286.2 84.3639 285.841 84.651 285.381 84.8588C284.923 85.0666 284.393 85.1705 283.788 85.1705ZM290.418 85.0062V78.2681H290.316L288.282 79.7019V78.3305L290.418 76.8287H291.875V85.0062H290.418Z" fill="black"/>
<path fill-rule="evenodd" clip-rule="evenodd" d="M427.704 77.4445C427.704 77.0123 427.378 76.662 426.975 76.662H426.247C425.845 76.662 425.519 77.0123 425.519 77.4445V84.2265C425.519 84.6586 425.845 85.009 426.247 85.009H426.975C427.378 85.009 427.704 84.6586 427.704 84.2265V77.4445ZM422.628 78.3314H423.357C423.759 78.3314 424.085 78.6901 424.085 79.1327V84.2077C424.085 84.6502 423.759 85.009 423.357 85.009H422.628C422.226 85.009 421.9 84.6502 421.9 84.2077V79.1327C421.9 78.6901 422.226 78.3314 422.628 78.3314ZM419.671 80.1399H418.943C418.541 80.1399 418.215 80.5032 418.215 80.9514V84.1975C418.215 84.6457 418.541 85.009 418.943 85.009H419.671C420.073 85.009 420.399 84.6457 420.399 84.1975V80.9514C420.399 80.5032 420.073 80.1399 419.671 80.1399ZM416.052 81.8093H415.324C414.922 81.8093 414.596 82.1674 414.596 82.6092V84.2091C414.596 84.6509 414.922 85.009 415.324 85.009H416.052C416.454 85.009 416.78 84.6509 416.78 84.2091V82.6092C416.78 82.1674 416.454 81.8093 416.052 81.8093Z" fill="black"/>
<path fill-rule="evenodd" clip-rule="evenodd" d="M438.334 78.3109C440.032 78.311 441.665 78.9405 442.896 80.0694C442.988 80.1565 443.136 80.1554 443.228 80.0669L444.113 79.2043C444.16 79.1594 444.185 79.0986 444.185 79.0353C444.185 78.9721 444.158 78.9116 444.111 78.8672C440.882 75.8806 435.786 75.8806 432.556 78.8672C432.509 78.9115 432.483 78.972 432.482 79.0353C432.482 79.0986 432.508 79.1594 432.554 79.2043L433.44 80.0669C433.531 80.1555 433.679 80.1566 433.772 80.0694C435.003 78.9405 436.636 78.3109 438.334 78.3109ZM438.332 81.1921C439.258 81.1921 440.152 81.5414 440.839 82.1724C440.932 82.2619 441.078 82.26 441.169 82.168L442.048 81.2673C442.094 81.22 442.119 81.1559 442.119 81.0893C442.118 81.0228 442.091 80.9592 442.044 80.9129C439.952 78.9393 436.713 78.9393 434.621 80.9129C434.574 80.9592 434.547 81.0228 434.547 81.0894C434.546 81.156 434.572 81.2201 434.618 81.2673L435.497 82.168C435.587 82.26 435.734 82.2619 435.826 82.1724C436.513 81.5419 437.406 81.1925 438.332 81.1921ZM440.055 83.0993C440.057 83.1712 440.031 83.2406 439.985 83.291L438.499 84.9668C438.456 85.0161 438.396 85.0438 438.334 85.0438C438.272 85.0438 438.213 85.0161 438.169 84.9668L436.683 83.291C436.637 83.2405 436.612 83.1712 436.613 83.0992C436.615 83.0273 436.643 82.9592 436.69 82.911C437.639 82.014 439.029 82.014 439.978 82.911C440.026 82.9593 440.054 83.0274 440.055 83.0993Z" fill="black"/>
<rect opacity="0.35" x="448.748" y="76.7393" width="16.3849" height="8.19243" rx="2.59427" stroke="black" stroke-width="0.682703"/>
<path opacity="0.4" d="M466.156 79.4701V82.2524C466.706 82.0168 467.063 81.4686 467.063 80.8613C467.063 80.2539 466.706 79.7057 466.156 79.4701Z" fill="black"/>
<rect x="449.771" y="77.7633" width="14.3368" height="6.14432" rx="1.70676" fill="black"/>
<rect x="245.002" y="154.226" width="228.705" height="275.812" rx="12.2886" fill="#1F1F1F" fill-opacity="0.78"/>
<circle cx="362.086" cy="254.242" r="40.9622" stroke="#DFDFDF" stroke-width="3.41351"/>
<path d="M363.897 240.62V267.062L359.09 273.272V235.011L363.897 240.62ZM372.696 264.215L367.892 260.052V248.169L372.696 244.115V264.215ZM355.079 248.08V259.962L350.275 264.126V244.025L355.079 248.08ZM348.472 254.142L343.363 258.219V250.064L348.472 254.142ZM381.325 254.142L376.217 258.219V250.064L381.325 254.142Z" fill="#D9D9D9"/>
<path d="M250.108 140.123V134.798C250.108 132.954 251.746 132.954 253.385 132.954H257.617C259.256 132.954 260.894 132.954 260.894 134.798V140.123C260.894 141.966 259.256 141.966 257.617 141.966H253.385C251.746 141.966 250.108 141.966 250.108 140.123ZM252.429 139.986C252.429 140.464 252.838 140.464 253.248 140.464H257.754C258.163 140.464 258.573 140.464 258.573 139.986V134.934C258.573 134.456 258.163 134.456 257.754 134.456H253.248C252.838 134.456 252.429 134.456 252.429 134.934V139.986ZM262.802 141.966V132.954H273.588V141.966H271.267V134.456H265.123V141.966H262.802ZM275.496 141.966V132.954H283.005C284.644 132.954 286.282 132.954 286.282 134.798V136.709C286.282 138.553 284.644 138.553 283.005 138.553H277.817V141.966H275.496ZM277.817 137.051H283.142C283.552 137.051 283.961 137.051 283.961 136.573V134.934C283.961 134.456 283.552 134.456 283.142 134.456H277.817V137.051ZM288.19 141.966V132.954H298.294V134.456H290.511V136.3H297.611V137.802H290.511V140.464H298.294V141.966H288.19ZM299.794 140.464C301.774 140.464 302.798 139.918 302.798 138.075V132.954H311.536V140.464H313.175V144.014H311.127V141.966H301.842V144.014H299.794V140.464ZM304.436 140.464H309.215V134.456H305.119V138.075C305.119 139.235 304.846 139.85 304.436 140.464ZM314.671 141.966V132.954H324.775V134.456H316.992V136.3H324.092V137.802H316.992V140.464H324.775V141.966H314.671ZM326.275 141.966V140.464C327.163 140.328 328.323 139.986 328.323 138.075V132.954H337.745V141.966H335.424V134.456H330.645V138.075C330.645 141.693 327.641 141.898 326.275 141.966ZM339.659 141.966V132.954H341.98V139.372L347.851 132.954H350.446V141.966H348.125V135.549L342.253 141.966H339.659ZM351.807 134.456V132.954H363.413V134.456H358.77V141.966H356.449V134.456H351.807ZM364.78 141.966V132.954H367.102V136.3H371.607C373.246 136.3 374.884 136.3 374.884 138.143V140.123C374.884 141.966 373.246 141.966 371.607 141.966H364.78ZM367.102 140.464H371.744C372.154 140.464 372.563 140.464 372.563 139.986V138.279C372.563 137.802 372.154 137.802 371.744 137.802H367.102V140.464ZM382.261 141.966V132.954H393.048V141.966H390.727V134.456H384.582V141.966H382.261ZM394.955 140.123V134.798C394.955 132.954 396.594 132.954 398.232 132.954H402.465C404.103 132.954 405.742 132.954 405.742 134.798V140.123C405.742 141.966 404.103 141.966 402.465 141.966H398.232C396.594 141.966 394.955 141.966 394.955 140.123ZM397.276 139.986C397.276 140.464 397.686 140.464 398.096 140.464H402.602C403.011 140.464 403.421 140.464 403.421 139.986V134.934C403.421 134.456 403.011 134.456 402.602 134.456H398.096C397.686 134.456 397.276 134.456 397.276 134.934V139.986ZM407.24 141.966V140.464C408.127 140.328 409.288 139.986 409.288 138.075V132.954H418.709V141.966H416.388V134.456H411.609V138.075C411.609 141.693 408.605 141.898 407.24 141.966ZM420.623 140.123V134.798C420.623 132.954 422.262 132.954 423.9 132.954H428.133C429.771 132.954 431.41 132.954 431.41 134.798V140.123C431.41 141.966 429.771 141.966 428.133 141.966H423.9C422.262 141.966 420.623 141.966 420.623 140.123ZM422.944 139.986C422.944 140.464 423.354 140.464 423.764 140.464H428.27C428.679 140.464 429.089 140.464 429.089 139.986V134.934C429.089 134.456 428.679 134.456 428.27 134.456H423.764C423.354 134.456 422.944 134.456 422.944 134.934V139.986ZM433.317 141.966V132.954H436.389L439.803 139.781L443.216 132.954H446.289V141.966H443.967V135.822L440.895 141.966H438.711L435.638 135.822V141.966H433.317ZM448.198 141.966V132.954H450.519V137.733L455.298 132.954H458.166L453.933 137.187L458.712 141.966H455.844L452.499 138.621L450.519 140.601V141.966H448.198ZM458.849 132.954H461.444L464.311 137.255L467.178 132.954H469.773L464.584 140.737C464.038 141.556 463.765 141.966 462.536 141.966H460.215V140.464H461.648C462.126 140.464 462.263 140.328 462.672 139.713L463.027 139.181L458.849 132.954Z" fill="#1F1F1F"/>
<path d="M259.093 176.679C260.677 176.679 261.496 176.242 261.496 174.767V170.671H268.487V176.679H269.798V179.519H268.159V177.88H260.732V179.519H259.093V176.679ZM262.807 176.679H266.63V171.872H263.353V174.767C263.353 175.695 263.135 176.187 262.807 176.679ZM270.995 177.88V170.671H272.852V175.805L277.549 170.671H279.624V177.88H277.767V172.746L273.07 177.88H270.995ZM281.15 177.88V170.671H283.007V174.494L286.83 170.671H289.124L285.738 174.057L289.561 177.88H287.267L284.591 175.204L283.007 176.788V177.88H281.15ZM289.78 171.872V170.671H299.065V171.872H295.351V177.88H293.494V171.872H289.78ZM300.159 176.405V172.145C300.159 170.671 301.47 170.671 302.781 170.671H306.167C307.478 170.671 308.788 170.671 308.788 172.145V176.405C308.788 177.88 307.478 177.88 306.167 177.88H302.781C301.47 177.88 300.159 177.88 300.159 176.405ZM302.016 176.296C302.016 176.679 302.344 176.679 302.671 176.679H306.276C306.604 176.679 306.931 176.679 306.931 176.296V172.255C306.931 171.872 306.604 171.872 306.276 171.872H302.671C302.344 171.872 302.016 171.872 302.016 172.255V176.296ZM310.314 175.586V172.965C310.314 171.49 311.625 171.49 312.936 171.49H314.356V170.671H316.213V171.49H317.633C318.944 171.49 320.254 171.49 320.254 172.965V175.586C320.254 177.061 318.944 177.061 317.633 177.061H316.213V177.88H314.356V177.061H312.936C311.625 177.061 310.314 177.061 310.314 175.586ZM312.171 175.477C312.171 175.859 312.499 175.859 312.827 175.859H314.356V172.692H312.827C312.499 172.692 312.171 172.692 312.171 173.074V175.477ZM316.213 175.859H317.742C318.07 175.859 318.397 175.859 318.397 175.477V173.074C318.397 172.692 318.07 172.692 317.742 172.692H316.213V175.859ZM321.782 176.405V172.145C321.782 170.671 323.092 170.671 324.403 170.671H327.789C329.1 170.671 330.411 170.671 330.411 172.145V176.405C330.411 177.88 329.1 177.88 327.789 177.88H324.403C323.092 177.88 321.782 177.88 321.782 176.405ZM323.638 176.296C323.638 176.679 323.966 176.679 324.294 176.679H327.899C328.226 176.679 328.554 176.679 328.554 176.296V172.255C328.554 171.872 328.226 171.872 327.899 171.872H324.294C323.966 171.872 323.638 171.872 323.638 172.255V176.296ZM331.937 177.88V170.671H333.794V173.347H338.709V170.671H340.566V177.88H338.709V174.548H333.794V177.88H331.937Z" fill="#CACACA"/>
<rect x="245.002" y="435.5" width="114.694" height="90.7995" rx="12.2886" fill="#017DFF"/>
<path d="M302.385 465.817C306.261 465.817 309.404 468.982 309.404 472.886C309.404 476.79 306.261 479.955 302.385 479.955C298.509 479.955 295.367 476.79 295.367 472.886C295.367 468.982 298.509 465.817 302.385 465.817Z" fill="#DFDFDF"/>
<path fill-rule="evenodd" clip-rule="evenodd" d="M313.103 458.184H317.177C320.452 458.184 323.106 460.858 323.106 464.157V483.466C323.106 486.764 320.452 489.438 317.177 489.438H287.798C284.523 489.438 281.868 486.764 281.868 483.466V464.157C281.868 460.858 284.523 458.184 287.798 458.184H291.667L294.015 453.25H310.858L313.103 458.184ZM302.385 461.063C295.902 461.063 290.647 466.356 290.647 472.886C290.647 479.416 295.902 484.709 302.385 484.709C308.868 484.709 314.124 479.416 314.124 472.886C314.124 466.356 308.868 461.063 302.385 461.063Z" fill="#DFDFDF"/>
<path d="M273.074 509.807V502.598H274.931V506.421L278.754 502.598H281.048L277.662 505.984L281.485 509.807H279.191L276.515 507.131L274.931 508.715V509.807H273.074ZM281.926 509.807L285.531 502.598H288.043L291.648 509.807H289.681L288.644 507.732H284.93L283.892 509.807H281.926ZM285.531 506.53H288.043L286.787 504.018L285.531 506.53ZM292.627 509.807V502.598H295.085L297.816 508.059L300.547 502.598H303.004V509.807H301.147V504.892L298.69 509.807H296.942L294.484 504.892V509.807H292.627ZM304.532 509.807V502.598H312.615V503.799H306.389V505.274H312.069V506.476H306.389V508.606H312.615V509.807H304.532ZM314.143 509.807V502.598H320.151C321.462 502.598 322.772 502.598 322.772 504.072V505.602C322.772 507.076 321.462 507.076 320.151 507.076H316V509.807H314.143ZM316 505.875H320.26C320.588 505.875 320.915 505.875 320.915 505.492V504.182C320.915 503.799 320.588 503.799 320.26 503.799H316V505.875ZM322.771 509.807L326.375 502.598H328.888L332.492 509.807H330.526L329.488 507.732H325.775L324.737 509.807H322.771ZM326.375 506.53H328.888L327.632 504.018L326.375 506.53Z" fill="#DFDFDF"/>
<rect x="365.157" y="435.5" width="108.55" height="90.7995" rx="12.2886" fill="#017DFF"/>
<path d="M433.77 453.25C436.5 453.25 438.89 455.298 438.89 458.029V481.241C438.889 483.63 436.158 486.361 434.11 486.361H409.874L399.976 489.774V458.029C399.976 454.616 402.706 453.25 404.754 453.25H433.77ZM416.046 465.937L408.851 470.188L416.046 474.014L419.433 481.241L422.818 474.014L430.015 470.188L422.818 465.937L419.433 458.712L416.046 465.937Z" fill="#DFDFDF"/>
<path d="M393.23 509.807V502.598H395.087V507.732L399.784 502.598H401.86V509.807H400.003V504.673L395.306 509.807H393.23ZM403.386 509.807V502.598H405.243V507.732L409.94 502.598H412.015V509.807H410.158V504.673L405.461 509.807H403.386ZM417.914 505.602V502.598H419.771V505.492C419.771 505.875 420.099 505.875 420.427 505.875H424.687V502.598H426.544V509.807H424.687V507.076H420.536C419.225 507.076 417.914 507.076 417.914 505.602ZM427.523 509.807L431.128 502.598H433.64L437.245 509.807H435.279L434.241 507.732H430.527L429.49 509.807H427.523ZM431.128 506.53H433.64L432.384 504.018L431.128 506.53ZM436.262 503.799V502.598H445.547V503.799H441.833V509.807H439.976V503.799H436.262Z" fill="#DFDFDF"/>
<rect x="245.344" y="537.222" width="228.705" height="57.347" rx="10.9232" fill="#CACACA"/>
<path d="M274.018 563.752V575.795H279.859V569.133H284.561V575.795H290.402V563.752L282.139 556.679L274.018 563.752Z" fill="#1F1F1F"/>
<path d="M327.661 572.774H331.088V575.112H326.601C326.006 575.112 325.524 574.608 325.524 573.985V569.289H327.661V572.774Z" fill="#017DFF"/>
<path d="M342.531 573.985C342.531 574.608 342.049 575.112 341.454 575.112H336.967V572.774H340.394V569.289H342.531V573.985Z" fill="#017DFF"/>
<path d="M343.653 567.317H324.537V565.157H343.653V567.317Z" fill="#017DFF"/>
<path d="M331.133 559.701H327.706V563.185H325.569V558.489C325.569 557.867 326.052 557.362 326.646 557.362H331.133V559.701Z" fill="#017DFF"/>
<path d="M341.499 557.362C342.094 557.362 342.576 557.867 342.576 558.489V563.185H340.439V559.701H337.012V557.362H341.499Z" fill="#017DFF"/>
<path d="M387.456 564.246L390.6 565.842L387.443 567.412L385.856 570.333L384.293 567.399L381.316 565.804L384.306 564.234L385.894 561.154L387.456 564.246Z" fill="#1F1F1F"/>
<path fill-rule="evenodd" clip-rule="evenodd" d="M393.169 557.021C394.855 557.021 396.221 558.372 396.221 560.039V571.257C396.221 572.924 394.855 574.275 393.169 574.275H380.478L377.639 576.136H375.058V560.039C375.058 558.372 376.424 557.021 378.11 557.021H393.169ZM377.703 573.118L379.636 571.659H393.576V559.687H377.703V573.118Z" fill="#1F1F1F"/>
<path fill-rule="evenodd" clip-rule="evenodd" d="M446.059 560.775V571.016L437.866 576.136L429.674 571.016V560.775L437.866 555.655L446.059 560.775ZM437.862 566.948C436.869 566.949 435.894 567.233 435.034 567.772C434.174 568.31 433.46 569.084 432.965 570.015L437.867 573.074L442.765 570.007C442.267 569.076 441.553 568.304 440.692 567.767C439.831 567.23 438.856 566.948 437.862 566.948ZM437.823 559.866C436.236 559.866 434.949 561.259 434.949 562.977C434.949 564.695 436.236 566.087 437.823 566.087C439.41 566.087 440.696 564.695 440.696 562.977C440.696 561.259 439.409 559.866 437.823 559.866Z" fill="#1F1F1F"/>
<rect x="285.281" y="322.171" width="154.291" height="23.2119" rx="5.46162" fill="#CACACA"/>
<path d="M292.103 337.277V329.33H293.063V332.871H297.298V329.33H298.258V337.277H297.298V333.725H293.063V337.277H292.103ZM301.298 337.416C300.921 337.416 300.578 337.344 300.269 337.202C299.959 337.056 299.714 336.847 299.533 336.573C299.351 336.299 299.261 335.968 299.261 335.581C299.261 335.239 299.328 334.964 299.463 334.754C299.598 334.541 299.778 334.374 300.002 334.253C300.23 334.128 300.478 334.036 300.749 333.975C301.023 333.915 301.298 333.867 301.575 333.831C301.938 333.785 302.231 333.75 302.455 333.725C302.683 333.7 302.848 333.657 302.952 333.597C303.058 333.536 303.112 333.433 303.112 333.287V333.255C303.112 332.875 303.007 332.58 302.797 332.37C302.591 332.157 302.276 332.05 301.853 332.05C301.419 332.05 301.078 332.146 300.829 332.338C300.58 332.526 300.406 332.729 300.306 332.946L299.431 332.637C299.588 332.274 299.796 331.991 300.055 331.789C300.318 331.586 300.603 331.444 300.909 331.362C301.218 331.28 301.522 331.239 301.821 331.239C302.013 331.239 302.233 331.262 302.482 331.309C302.731 331.351 302.973 331.444 303.208 331.586C303.446 331.725 303.641 331.936 303.794 332.221C303.951 332.501 304.029 332.878 304.029 333.351V337.277H303.112V336.466H303.069C303.008 336.594 302.905 336.733 302.76 336.882C302.614 337.028 302.42 337.154 302.178 337.261C301.94 337.364 301.647 337.416 301.298 337.416ZM301.437 336.594C301.799 336.594 302.105 336.523 302.354 336.381C302.603 336.239 302.792 336.055 302.92 335.831C303.048 335.604 303.112 335.367 303.112 335.122V334.279C303.072 334.326 302.987 334.368 302.856 334.407C302.728 334.443 302.578 334.475 302.407 334.503C302.24 334.532 302.077 334.557 301.917 334.578C301.757 334.596 301.629 334.61 301.533 334.621C301.295 334.653 301.072 334.704 300.866 334.775C300.66 334.843 300.493 334.944 300.365 335.079C300.24 335.215 300.178 335.399 300.178 335.634C300.178 335.951 300.295 336.191 300.53 336.354C300.768 336.514 301.071 336.594 301.437 336.594ZM309.789 331.314V337.277H308.872V331.314H309.789ZM309.437 334.162V335.015C309.231 335.09 309.025 335.158 308.818 335.218C308.612 335.275 308.397 335.319 308.173 335.351C307.949 335.383 307.702 335.399 307.432 335.399C306.756 335.399 306.214 335.218 305.805 334.855C305.4 334.489 305.199 333.942 305.202 333.213V331.303H306.109V333.213C306.113 333.515 306.171 333.766 306.285 333.965C306.402 334.16 306.561 334.306 306.76 334.402C306.959 334.498 307.183 334.546 307.432 334.546C307.819 334.546 308.17 334.51 308.482 334.439C308.799 334.368 309.117 334.276 309.437 334.162ZM312.712 337.416C312.335 337.416 311.992 337.344 311.683 337.202C311.373 337.056 311.128 336.847 310.947 336.573C310.765 336.299 310.675 335.968 310.675 335.581C310.675 335.239 310.742 334.964 310.877 334.754C311.012 334.541 311.192 334.374 311.416 334.253C311.644 334.128 311.892 334.036 312.163 333.975C312.436 333.915 312.712 333.867 312.989 333.831C313.352 333.785 313.645 333.75 313.869 333.725C314.097 333.7 314.262 333.657 314.365 333.597C314.472 333.536 314.525 333.433 314.525 333.287V333.255C314.525 332.875 314.421 332.58 314.211 332.37C314.005 332.157 313.69 332.05 313.267 332.05C312.833 332.05 312.492 332.146 312.243 332.338C311.994 332.526 311.82 332.729 311.72 332.946L310.845 332.637C311.002 332.274 311.21 331.991 311.469 331.789C311.732 331.586 312.017 331.444 312.323 331.362C312.632 331.28 312.936 331.239 313.235 331.239C313.427 331.239 313.647 331.262 313.896 331.309C314.145 331.351 314.387 331.444 314.621 331.586C314.86 331.725 315.055 331.936 315.208 332.221C315.365 332.501 315.443 332.878 315.443 333.351V337.277H314.525V336.466H314.483C314.422 336.594 314.319 336.733 314.173 336.882C314.028 337.028 313.834 337.154 313.592 337.261C313.354 337.364 313.06 337.416 312.712 337.416ZM312.851 336.594C313.213 336.594 313.519 336.523 313.768 336.381C314.017 336.239 314.205 336.055 314.333 335.831C314.461 335.604 314.525 335.367 314.525 335.122V334.279C314.486 334.326 314.401 334.368 314.269 334.407C314.141 334.443 313.992 334.475 313.821 334.503C313.654 334.532 313.491 334.557 313.331 334.578C313.171 334.596 313.043 334.61 312.947 334.621C312.708 334.653 312.486 334.704 312.28 334.775C312.074 334.843 311.907 334.944 311.779 335.079C311.654 335.215 311.592 335.399 311.592 335.634C311.592 335.951 311.709 336.191 311.944 336.354C312.182 336.514 312.484 336.594 312.851 336.594ZM315.816 332.167V331.314H320.648V332.167H318.696V337.277H317.779V332.167H315.816ZM322.27 333.479H323.977C324.674 333.476 325.207 333.652 325.577 334.007C325.947 334.363 326.131 334.813 326.131 335.357C326.131 335.712 326.048 336.036 325.881 336.327C325.717 336.615 325.475 336.847 325.155 337.021C324.835 337.192 324.442 337.277 323.977 337.277H321.48V331.314H322.387V336.423H323.977C324.336 336.423 324.631 336.329 324.862 336.141C325.097 335.949 325.214 335.702 325.214 335.399C325.214 335.083 325.097 334.825 324.862 334.626C324.631 334.427 324.336 334.329 323.977 334.333H322.27V333.479ZM329.46 335.751H330.43C330.455 336.022 330.58 336.228 330.804 336.37C331.028 336.509 331.319 336.58 331.678 336.583C332.045 336.58 332.358 336.503 332.617 336.354C332.877 336.201 333.008 335.954 333.012 335.613C333.012 335.414 332.962 335.241 332.862 335.095C332.763 334.946 332.624 334.831 332.446 334.749C332.269 334.663 332.059 334.621 331.817 334.621H330.793V333.799H331.817C332.18 333.799 332.448 333.718 332.622 333.554C332.797 333.39 332.884 333.184 332.884 332.935C332.884 332.669 332.79 332.455 332.601 332.295C332.413 332.132 332.144 332.05 331.796 332.05C331.451 332.05 331.161 332.128 330.926 332.285C330.695 332.437 330.573 332.637 330.558 332.882H329.598C329.609 332.562 329.707 332.279 329.892 332.034C330.077 331.785 330.329 331.591 330.649 331.453C330.973 331.31 331.341 331.239 331.753 331.239C332.173 331.239 332.535 331.312 332.841 331.458C333.15 331.604 333.39 331.803 333.561 332.055C333.732 332.304 333.815 332.587 333.812 332.903C333.815 333.238 333.721 333.51 333.529 333.719C333.341 333.926 333.104 334.073 332.82 334.162V334.215C333.044 334.233 333.239 334.306 333.406 334.434C333.577 334.562 333.709 334.729 333.801 334.935C333.894 335.138 333.94 335.364 333.94 335.613C333.94 335.975 333.842 336.292 333.646 336.562C333.454 336.829 333.19 337.035 332.852 337.181C332.514 337.327 332.126 337.401 331.689 337.405C331.266 337.401 330.887 337.33 330.553 337.192C330.222 337.053 329.959 336.861 329.764 336.615C329.572 336.367 329.47 336.079 329.46 335.751ZM336.212 337.416C335.835 337.416 335.492 337.344 335.183 337.202C334.873 337.056 334.628 336.847 334.447 336.573C334.265 336.299 334.174 335.968 334.174 335.581C334.174 335.239 334.242 334.964 334.377 334.754C334.512 334.541 334.692 334.374 334.916 334.253C335.143 334.128 335.392 334.036 335.663 333.975C335.936 333.915 336.212 333.867 336.489 333.831C336.852 333.785 337.145 333.75 337.369 333.725C337.597 333.7 337.762 333.657 337.865 333.597C337.972 333.536 338.025 333.433 338.025 333.287V333.255C338.025 332.875 337.92 332.58 337.711 332.37C337.504 332.157 337.19 332.05 336.767 332.05C336.333 332.05 335.991 332.146 335.743 332.338C335.494 332.526 335.319 332.729 335.22 332.946L334.345 332.637C334.502 332.274 334.71 331.991 334.969 331.789C335.232 331.586 335.517 331.444 335.823 331.362C336.132 331.28 336.436 331.239 336.735 331.239C336.927 331.239 337.147 331.262 337.396 331.309C337.645 331.351 337.887 331.444 338.121 331.586C338.36 331.725 338.555 331.936 338.708 332.221C338.865 332.501 338.943 332.878 338.943 333.351V337.277H338.025V336.466H337.983C337.922 336.594 337.819 336.733 337.673 336.882C337.528 337.028 337.334 337.154 337.092 337.261C336.854 337.364 336.56 337.416 336.212 337.416ZM336.351 336.594C336.713 336.594 337.019 336.523 337.268 336.381C337.517 336.239 337.705 336.055 337.833 335.831C337.961 335.604 338.025 335.367 338.025 335.122V334.279C337.986 334.326 337.901 334.368 337.769 334.407C337.641 334.443 337.492 334.475 337.321 334.503C337.154 334.532 336.991 334.557 336.831 334.578C336.671 334.596 336.543 334.61 336.447 334.621C336.208 334.653 335.986 334.704 335.78 334.775C335.574 334.843 335.407 334.944 335.279 335.079C335.154 335.215 335.092 335.399 335.092 335.634C335.092 335.951 335.209 336.191 335.444 336.354C335.682 336.514 335.984 336.594 336.351 336.594ZM340.116 337.277V331.314H344.799V337.277H343.882V332.167H341.023V337.277H340.116ZM346.879 335.922L349.749 331.314H350.805V337.277H349.898V332.669L347.039 337.277H345.972V331.314H346.879V335.922ZM354.389 337.405C353.834 337.405 353.354 337.273 352.949 337.01C352.547 336.743 352.236 336.379 352.015 335.917C351.799 335.455 351.69 334.927 351.69 334.333C351.69 333.725 351.802 333.19 352.026 332.727C352.25 332.261 352.563 331.897 352.965 331.634C353.37 331.371 353.841 331.239 354.378 331.239C354.798 331.239 355.175 331.317 355.509 331.474C355.847 331.627 356.122 331.844 356.336 332.125C356.553 332.405 356.686 332.733 356.736 333.106H355.818C355.772 332.925 355.689 332.754 355.568 332.594C355.447 332.434 355.287 332.306 355.088 332.21C354.892 332.11 354.659 332.061 354.389 332.061C354.033 332.061 353.722 332.153 353.456 332.338C353.189 332.523 352.981 332.784 352.831 333.122C352.682 333.456 352.607 333.849 352.607 334.301C352.607 334.759 352.68 335.161 352.826 335.506C352.972 335.847 353.178 336.112 353.445 336.301C353.715 336.489 354.03 336.583 354.389 336.583C354.748 336.583 355.056 336.491 355.312 336.306C355.568 336.118 355.737 335.862 355.818 335.538H356.736C356.686 335.89 356.558 336.207 356.352 336.487C356.149 336.768 355.881 336.992 355.546 337.16C355.216 337.323 354.83 337.405 354.389 337.405ZM358.389 333.479H360.096C360.793 333.476 361.326 333.652 361.696 334.007C362.066 334.363 362.251 334.813 362.251 335.357C362.251 335.712 362.167 336.036 362 336.327C361.836 336.615 361.595 336.847 361.275 337.021C360.955 337.192 360.562 337.277 360.096 337.277H357.6V331.314H358.506V336.423H360.096C360.455 336.423 360.75 336.329 360.981 336.141C361.216 335.949 361.333 335.702 361.333 335.399C361.333 335.083 361.216 334.825 360.981 334.626C360.75 334.427 360.455 334.329 360.096 334.333H358.389V333.479ZM365.696 337.277V331.314H370.379V337.277H369.462V332.167H366.603V337.277H365.696ZM371.552 339.506V331.314H372.427V332.263H372.534C372.601 332.16 372.696 332.029 372.817 331.869C372.937 331.705 373.112 331.559 373.339 331.431C373.567 331.303 373.874 331.239 374.262 331.239C374.763 331.239 375.204 331.365 375.585 331.618C375.965 331.867 376.262 332.222 376.475 332.685C376.692 333.143 376.801 333.686 376.801 334.311C376.801 334.941 376.694 335.488 376.481 335.954C376.267 336.416 375.97 336.774 375.59 337.026C375.21 337.279 374.77 337.405 374.273 337.405C373.892 337.405 373.586 337.341 373.355 337.213C373.124 337.081 372.946 336.934 372.822 336.77C372.697 336.603 372.601 336.466 372.534 336.359H372.459V339.506H371.552ZM374.155 336.583C374.536 336.583 374.854 336.482 375.11 336.279C375.366 336.073 375.558 335.798 375.686 335.453C375.818 335.108 375.883 334.724 375.883 334.301C375.883 333.881 375.819 333.502 375.691 333.165C375.563 332.827 375.371 332.558 375.115 332.359C374.863 332.16 374.543 332.061 374.155 332.061C373.782 332.061 373.469 332.155 373.217 332.343C372.964 332.528 372.772 332.79 372.641 333.127C372.513 333.462 372.449 333.853 372.449 334.301C372.449 334.749 372.514 335.145 372.646 335.49C372.777 335.831 372.969 336.1 373.222 336.295C373.478 336.487 373.789 336.583 374.155 336.583ZM381.27 337.277V332.157H379.681C379.325 332.157 379.044 332.24 378.838 332.407C378.636 332.571 378.536 332.797 378.54 333.085C378.536 333.369 378.627 333.593 378.812 333.757C378.996 333.92 379.251 334.002 379.574 334.002H381.494V334.855H379.574C379.169 334.855 378.82 334.784 378.529 334.642C378.237 334.5 378.013 334.297 377.857 334.034C377.7 333.767 377.622 333.451 377.622 333.085C377.622 332.718 377.704 332.404 377.867 332.141C378.035 331.877 378.271 331.675 378.577 331.533C378.886 331.387 379.254 331.314 379.681 331.314H382.134V337.277H381.27ZM377.291 337.277L378.988 334.311H379.98L378.283 337.277H377.291ZM386.561 336.039L388.641 331.314H389.505L386.935 337.277H386.188L383.66 331.314H384.513L386.561 336.039ZM384.214 331.314V337.277H383.308V331.314H384.214ZM388.908 337.277V331.314H389.815V337.277H388.908ZM393.399 337.405C392.862 337.405 392.391 337.277 391.986 337.021C391.58 336.765 391.264 336.406 391.036 335.943C390.812 335.481 390.7 334.944 390.7 334.333C390.7 333.71 390.812 333.168 391.036 332.706C391.264 332.24 391.58 331.879 391.986 331.623C392.391 331.367 392.862 331.239 393.399 331.239C393.939 331.239 394.412 331.367 394.818 331.623C395.223 331.879 395.54 332.24 395.767 332.706C395.995 333.168 396.108 333.71 396.108 334.333C396.108 334.944 395.995 335.481 395.767 335.943C395.54 336.406 395.223 336.765 394.818 337.021C394.412 337.277 393.939 337.405 393.399 337.405ZM393.399 336.583C393.811 336.583 394.149 336.479 394.412 336.269C394.675 336.059 394.871 335.783 394.999 335.442C395.127 335.097 395.191 334.727 395.191 334.333C395.191 333.931 395.127 333.558 394.999 333.213C394.871 332.868 394.675 332.59 394.412 332.381C394.149 332.167 393.811 332.061 393.399 332.061C392.994 332.061 392.659 332.167 392.396 332.381C392.133 332.59 391.938 332.868 391.81 333.213C391.682 333.558 391.618 333.931 391.618 334.333C391.618 334.727 391.682 335.097 391.81 335.442C391.938 335.783 392.133 336.059 392.396 336.269C392.659 336.479 392.994 336.583 393.399 336.583ZM401.965 337.405C401.41 337.405 400.93 337.273 400.525 337.01C400.123 336.743 399.812 336.379 399.591 335.917C399.374 335.455 399.266 334.927 399.266 334.333C399.266 333.725 399.378 333.19 399.602 332.727C399.826 332.261 400.139 331.897 400.541 331.634C400.946 331.371 401.417 331.239 401.954 331.239C402.374 331.239 402.751 331.317 403.085 331.474C403.423 331.627 403.698 331.844 403.912 332.125C404.128 332.405 404.262 332.733 404.312 333.106H403.394C403.348 332.925 403.264 332.754 403.143 332.594C403.023 332.434 402.863 332.306 402.663 332.21C402.468 332.11 402.235 332.061 401.965 332.061C401.609 332.061 401.298 332.153 401.031 332.338C400.765 332.523 400.557 332.784 400.407 333.122C400.258 333.456 400.183 333.849 400.183 334.301C400.183 334.759 400.256 335.161 400.402 335.506C400.548 335.847 400.754 336.112 401.021 336.301C401.291 336.489 401.606 336.583 401.965 336.583C402.324 336.583 402.631 336.491 402.887 336.306C403.143 336.118 403.312 335.862 403.394 335.538H404.312C404.262 335.89 404.134 336.207 403.928 336.487C403.725 336.768 403.456 336.992 403.122 337.16C402.791 337.323 402.406 337.405 401.965 337.405ZM407.672 337.405C407.099 337.405 406.603 337.277 406.184 337.021C405.768 336.765 405.448 336.407 405.224 335.949C405 335.487 404.888 334.951 404.888 334.343C404.888 333.732 404.998 333.193 405.218 332.727C405.439 332.261 405.748 331.897 406.146 331.634C406.548 331.371 407.017 331.239 407.554 331.239C407.864 331.239 408.171 331.291 408.477 331.394C408.783 331.497 409.06 331.664 409.309 331.895C409.562 332.126 409.762 332.432 409.912 332.813C410.061 333.193 410.136 333.661 410.136 334.215V334.61H405.538V333.821H409.64L409.218 334.119C409.218 333.721 409.156 333.367 409.032 333.058C408.907 332.749 408.721 332.505 408.472 332.327C408.226 332.149 407.921 332.061 407.554 332.061C407.188 332.061 406.873 332.151 406.61 332.333C406.351 332.51 406.152 332.743 406.013 333.031C405.874 333.319 405.805 333.629 405.805 333.959V334.482C405.805 334.934 405.883 335.316 406.04 335.629C406.196 335.942 406.415 336.18 406.696 336.343C406.977 336.503 407.302 336.583 407.672 336.583C407.91 336.583 408.127 336.55 408.322 336.482C408.518 336.411 408.687 336.306 408.829 336.167C408.971 336.025 409.08 335.851 409.154 335.645L410.04 335.901C409.947 336.199 409.791 336.463 409.57 336.69C409.354 336.914 409.083 337.09 408.76 337.218C408.436 337.343 408.074 337.405 407.672 337.405ZM411.907 335.922L414.776 331.314H415.832V337.277H414.925V332.669L412.067 337.277H411V331.314H411.907V335.922ZM413.411 330.605C412.934 330.605 412.547 330.471 412.248 330.204C411.953 329.934 411.805 329.584 411.805 329.154H412.659C412.659 329.385 412.728 329.573 412.867 329.719C413.005 329.865 413.187 329.938 413.411 329.938C413.635 329.938 413.816 329.865 413.955 329.719C414.093 329.573 414.163 329.385 414.163 329.154H415.016C415.016 329.584 414.867 329.934 414.568 330.204C414.273 330.471 413.887 330.605 413.411 330.605ZM421.592 331.314V337.277H420.675V331.314H421.592ZM421.24 334.162V335.015C421.034 335.09 420.828 335.158 420.622 335.218C420.415 335.275 420.2 335.319 419.976 335.351C419.752 335.383 419.505 335.399 419.235 335.399C418.559 335.399 418.017 335.218 417.608 334.855C417.203 334.489 417.002 333.942 417.006 333.213V331.303H417.912V333.213C417.916 333.515 417.974 333.766 418.088 333.965C418.206 334.16 418.364 334.306 418.563 334.402C418.762 334.498 418.986 334.546 419.235 334.546C419.623 334.546 419.973 334.51 420.286 334.439C420.602 334.368 420.92 334.276 421.24 334.162ZM424.515 337.416C424.138 337.416 423.795 337.344 423.486 337.202C423.177 337.056 422.931 336.847 422.75 336.573C422.568 336.299 422.478 335.968 422.478 335.581C422.478 335.239 422.545 334.964 422.68 334.754C422.816 334.541 422.995 334.374 423.219 334.253C423.447 334.128 423.696 334.036 423.966 333.975C424.24 333.915 424.515 333.867 424.793 333.831C425.155 333.785 425.449 333.75 425.673 333.725C425.9 333.7 426.066 333.657 426.169 333.597C426.275 333.536 426.329 333.433 426.329 333.287V333.255C426.329 332.875 426.224 332.58 426.014 332.37C425.808 332.157 425.493 332.05 425.07 332.05C424.636 332.05 424.295 332.146 424.046 332.338C423.797 332.526 423.623 332.729 423.523 332.946L422.648 332.637C422.805 332.274 423.013 331.991 423.273 331.789C423.536 331.586 423.82 331.444 424.126 331.362C424.435 331.28 424.739 331.239 425.038 331.239C425.23 331.239 425.45 331.262 425.699 331.309C425.948 331.351 426.19 331.444 426.425 331.586C426.663 331.725 426.858 331.936 427.011 332.221C427.168 332.501 427.246 332.878 427.246 333.351V337.277H426.329V336.466H426.286C426.226 336.594 426.122 336.733 425.977 336.882C425.831 337.028 425.637 337.154 425.395 337.261C425.157 337.364 424.864 337.416 424.515 337.416ZM424.654 336.594C425.017 336.594 425.322 336.523 425.571 336.381C425.82 336.239 426.009 336.055 426.137 335.831C426.265 335.604 426.329 335.367 426.329 335.122V334.279C426.29 334.326 426.204 334.368 426.073 334.407C425.945 334.443 425.795 334.475 425.625 334.503C425.458 334.532 425.294 334.557 425.134 334.578C424.974 334.596 424.846 334.61 424.75 334.621C424.512 334.653 424.289 334.704 424.083 334.775C423.877 334.843 423.71 334.944 423.582 335.079C423.457 335.215 423.395 335.399 423.395 335.634C423.395 335.951 423.513 336.191 423.747 336.354C423.985 336.514 424.288 336.594 424.654 336.594ZM430.83 337.405C430.276 337.405 429.796 337.273 429.39 337.01C428.988 336.743 428.677 336.379 428.457 335.917C428.24 335.455 428.131 334.927 428.131 334.333C428.131 333.725 428.243 333.19 428.467 332.727C428.691 332.261 429.004 331.897 429.406 331.634C429.812 331.371 430.283 331.239 430.82 331.239C431.239 331.239 431.616 331.317 431.95 331.474C432.288 331.627 432.564 331.844 432.777 332.125C432.994 332.405 433.127 332.733 433.177 333.106H432.26C432.213 332.925 432.13 332.754 432.009 332.594C431.888 332.434 431.728 332.306 431.529 332.21C431.333 332.11 431.1 332.061 430.83 332.061C430.475 332.061 430.164 332.153 429.897 332.338C429.63 332.523 429.422 332.784 429.273 333.122C429.123 333.456 429.049 333.849 429.049 334.301C429.049 334.759 429.122 335.161 429.268 335.506C429.413 335.847 429.62 336.112 429.886 336.301C430.156 336.489 430.471 336.583 430.83 336.583C431.189 336.583 431.497 336.491 431.753 336.306C432.009 336.118 432.178 335.862 432.26 335.538H433.177C433.127 335.89 432.999 336.207 432.793 336.487C432.59 336.768 432.322 336.992 431.988 337.16C431.657 337.323 431.271 337.405 430.83 337.405Z" fill="#1F1F1F"/>
<path d="M362.086 314.661L374.207 324.902H349.966L362.086 314.661Z" fill="#CACACA"/>
<rect x="258.656" y="379.518" width="201.397" height="36.8659" rx="5.46162" fill="#838383"/>
<path d="M270.722 399.14C270.53 399.14 270.364 399.072 270.226 398.937C270.091 398.798 270.023 398.633 270.023 398.441C270.023 398.249 270.091 398.085 270.226 397.95C270.364 397.812 270.53 397.742 270.722 397.742C270.914 397.742 271.077 397.812 271.213 397.95C271.351 398.085 271.421 398.249 271.421 398.441C271.421 398.633 271.351 398.798 271.213 398.937C271.077 399.072 270.914 399.14 270.722 399.14ZM273.689 390.949V401.056H272.884V390.949H273.689ZM276.479 388.569V401.636H275.7V388.569H276.479ZM279.049 392.824V400.599H278.274V392.824H279.049ZM281.005 399.14C280.813 399.14 280.647 399.072 280.509 398.937C280.374 398.798 280.306 398.633 280.306 398.441C280.306 398.249 280.374 398.085 280.509 397.95C280.647 397.812 280.813 397.742 281.005 397.742C281.197 397.742 281.36 397.812 281.495 397.95C281.634 398.085 281.703 398.249 281.703 398.441C281.703 398.633 281.634 398.798 281.495 398.937C281.36 399.072 281.197 399.14 281.005 399.14ZM283.597 399.14C283.405 399.14 283.239 399.072 283.101 398.937C282.966 398.798 282.898 398.633 282.898 398.441C282.898 398.249 282.966 398.085 283.101 397.95C283.239 397.812 283.405 397.742 283.597 397.742C283.789 397.742 283.952 397.812 284.087 397.95C284.226 398.085 284.296 398.249 284.296 398.441C284.296 398.633 284.226 398.798 284.087 398.937C283.952 399.072 283.789 399.14 283.597 399.14ZM286.189 399.14C285.997 399.14 285.832 399.072 285.693 398.937C285.558 398.798 285.49 398.633 285.49 398.441C285.49 398.249 285.558 398.085 285.693 397.95C285.832 397.812 285.997 397.742 286.189 397.742C286.381 397.742 286.545 397.812 286.68 397.95C286.818 398.085 286.888 398.249 286.888 398.441C286.888 398.633 286.818 398.798 286.68 398.937C286.545 399.072 286.381 399.14 286.189 399.14ZM288.781 399.14C288.589 399.14 288.424 399.072 288.285 398.937C288.15 398.798 288.082 398.633 288.082 398.441C288.082 398.249 288.15 398.085 288.285 397.95C288.424 397.812 288.589 397.742 288.781 397.742C288.973 397.742 289.137 397.812 289.272 397.95C289.41 398.085 289.48 398.249 289.48 398.441C289.48 398.633 289.41 398.798 289.272 398.937C289.137 399.072 288.973 399.14 288.781 399.14ZM291.373 399.14C291.181 399.14 291.016 399.072 290.877 398.937C290.742 398.798 290.675 398.633 290.675 398.441C290.675 398.249 290.742 398.085 290.877 397.95C291.016 397.812 291.181 397.742 291.373 397.742C291.565 397.742 291.729 397.812 291.864 397.95C292.003 398.085 292.072 398.249 292.072 398.441C292.072 398.633 292.003 398.798 291.864 398.937C291.729 399.072 291.565 399.14 291.373 399.14ZM293.965 399.14C293.773 399.14 293.608 399.072 293.469 398.937C293.334 398.798 293.267 398.633 293.267 398.441C293.267 398.249 293.334 398.085 293.469 397.95C293.608 397.812 293.773 397.742 293.965 397.742C294.157 397.742 294.321 397.812 294.456 397.95C294.595 398.085 294.664 398.249 294.664 398.441C294.664 398.633 294.595 398.798 294.456 398.937C294.321 399.072 294.157 399.14 293.965 399.14ZM296.689 392.824V400.599H295.915V392.824H296.689ZM298.646 399.14C298.453 399.14 298.288 399.072 298.149 398.937C298.014 398.798 297.947 398.633 297.947 398.441C297.947 398.249 298.014 398.085 298.149 397.95C298.288 397.812 298.453 397.742 298.646 397.742C298.838 397.742 299.001 397.812 299.136 397.95C299.275 398.085 299.344 398.249 299.344 398.441C299.344 398.633 299.275 398.798 299.136 398.937C299.001 399.072 298.838 399.14 298.646 399.14ZM301.862 388.569V401.636H301.083V388.569H301.862ZM304.299 399.14C304.107 399.14 303.942 399.072 303.803 398.937C303.668 398.798 303.6 398.633 303.6 398.441C303.6 398.249 303.668 398.085 303.803 397.95C303.942 397.812 304.107 397.742 304.299 397.742C304.491 397.742 304.655 397.812 304.79 397.95C304.929 398.085 304.998 398.249 304.998 398.441C304.998 398.633 304.929 398.798 304.79 398.937C304.655 399.072 304.491 399.14 304.299 399.14ZM307.137 391.574V400.904H306.395V391.574H307.137ZM309.237 399.14C309.045 399.14 308.88 399.072 308.741 398.937C308.606 398.798 308.538 398.633 308.538 398.441C308.538 398.249 308.606 398.085 308.741 397.95C308.88 397.812 309.045 397.742 309.237 397.742C309.429 397.742 309.593 397.812 309.728 397.95C309.866 398.085 309.936 398.249 309.936 398.441C309.936 398.633 309.866 398.798 309.728 398.937C309.593 399.072 309.429 399.14 309.237 399.14ZM311.829 399.14C311.637 399.14 311.472 399.072 311.333 398.937C311.198 398.798 311.13 398.633 311.13 398.441C311.13 398.249 311.198 398.085 311.333 397.95C311.472 397.812 311.637 397.742 311.829 397.742C312.021 397.742 312.185 397.812 312.32 397.95C312.458 398.085 312.528 398.249 312.528 398.441C312.528 398.633 312.458 398.798 312.32 398.937C312.185 399.072 312.021 399.14 311.829 399.14ZM314.421 399.14C314.229 399.14 314.064 399.072 313.925 398.937C313.79 398.798 313.723 398.633 313.723 398.441C313.723 398.249 313.79 398.085 313.925 397.95C314.064 397.812 314.229 397.742 314.421 397.742C314.613 397.742 314.777 397.812 314.912 397.95C315.051 398.085 315.12 398.249 315.12 398.441C315.12 398.633 315.051 398.798 314.912 398.937C314.777 399.072 314.613 399.14 314.421 399.14ZM317.013 399.14C316.821 399.14 316.656 399.072 316.517 398.937C316.382 398.798 316.315 398.633 316.315 398.441C316.315 398.249 316.382 398.085 316.517 397.95C316.656 397.812 316.821 397.742 317.013 397.742C317.205 397.742 317.369 397.812 317.504 397.95C317.643 398.085 317.712 398.249 317.712 398.441C317.712 398.633 317.643 398.798 317.504 398.937C317.369 399.072 317.205 399.14 317.013 399.14ZM319.606 399.14C319.414 399.14 319.248 399.072 319.109 398.937C318.974 398.798 318.907 398.633 318.907 398.441C318.907 398.249 318.974 398.085 319.109 397.95C319.248 397.812 319.414 397.742 319.606 397.742C319.798 397.742 319.961 397.812 320.096 397.95C320.235 398.085 320.304 398.249 320.304 398.441C320.304 398.633 320.235 398.798 320.096 398.937C319.961 399.072 319.798 399.14 319.606 399.14ZM322.017 395.325V399.99H321.271V395.325H322.017ZM323.687 399.14C323.495 399.14 323.329 399.072 323.191 398.937C323.055 398.798 322.988 398.633 322.988 398.441C322.988 398.249 323.055 398.085 323.191 397.95C323.329 397.812 323.495 397.742 323.687 397.742C323.879 397.742 324.042 397.812 324.177 397.95C324.316 398.085 324.385 398.249 324.385 398.441C324.385 398.633 324.316 398.798 324.177 398.937C324.042 399.072 323.879 399.14 323.687 399.14ZM326.279 399.14C326.087 399.14 325.921 399.072 325.783 398.937C325.648 398.798 325.58 398.633 325.58 398.441C325.58 398.249 325.648 398.085 325.783 397.95C325.921 397.812 326.087 397.742 326.279 397.742C326.471 397.742 326.634 397.812 326.769 397.95C326.908 398.085 326.977 398.249 326.977 398.441C326.977 398.633 326.908 398.798 326.769 398.937C326.634 399.072 326.471 399.14 326.279 399.14ZM329.495 388.569V401.636H328.716V388.569H329.495ZM331.932 399.14C331.74 399.14 331.575 399.072 331.436 398.937C331.301 398.798 331.234 398.633 331.234 398.441C331.234 398.249 331.301 398.085 331.436 397.95C331.575 397.812 331.74 397.742 331.932 397.742C332.124 397.742 332.288 397.812 332.423 397.95C332.562 398.085 332.631 398.249 332.631 398.441C332.631 398.633 332.562 398.798 332.423 398.937C332.288 399.072 332.124 399.14 331.932 399.14ZM334.524 399.14C334.332 399.14 334.167 399.072 334.028 398.937C333.893 398.798 333.826 398.633 333.826 398.441C333.826 398.249 333.893 398.085 334.028 397.95C334.167 397.812 334.332 397.742 334.524 397.742C334.716 397.742 334.88 397.812 335.015 397.95C335.154 398.085 335.223 398.249 335.223 398.441C335.223 398.633 335.154 398.798 335.015 398.937C334.88 399.072 334.716 399.14 334.524 399.14ZM337.117 399.14C336.925 399.14 336.759 399.072 336.621 398.937C336.485 398.798 336.418 398.633 336.418 398.441C336.418 398.249 336.485 398.085 336.621 397.95C336.759 397.812 336.925 397.742 337.117 397.742C337.309 397.742 337.472 397.812 337.607 397.95C337.746 398.085 337.815 398.249 337.815 398.441C337.815 398.633 337.746 398.798 337.607 398.937C337.472 399.072 337.309 399.14 337.117 399.14ZM339.709 399.14C339.517 399.14 339.351 399.072 339.213 398.937C339.078 398.798 339.01 398.633 339.01 398.441C339.01 398.249 339.078 398.085 339.213 397.95C339.351 397.812 339.517 397.742 339.709 397.742C339.901 397.742 340.064 397.812 340.199 397.95C340.338 398.085 340.407 398.249 340.407 398.441C340.407 398.633 340.338 398.798 340.199 398.937C340.064 399.072 339.901 399.14 339.709 399.14ZM342.301 399.14C342.109 399.14 341.944 399.072 341.805 398.937C341.67 398.798 341.602 398.633 341.602 398.441C341.602 398.249 341.67 398.085 341.805 397.95C341.944 397.812 342.109 397.742 342.301 397.742C342.493 397.742 342.656 397.812 342.792 397.95C342.93 398.085 343 398.249 343 398.441C343 398.633 342.93 398.798 342.792 398.937C342.656 399.072 342.493 399.14 342.301 399.14ZM345.011 392.199V400.751H344.33V392.199H345.011ZM347.043 399.14C346.851 399.14 346.686 399.072 346.547 398.937C346.412 398.798 346.345 398.633 346.345 398.441C346.345 398.249 346.412 398.085 346.547 397.95C346.686 397.812 346.851 397.742 347.043 397.742C347.235 397.742 347.399 397.812 347.534 397.95C347.673 398.085 347.742 398.249 347.742 398.441C347.742 398.633 347.673 398.798 347.534 398.937C347.399 399.072 347.235 399.14 347.043 399.14ZM349.635 399.14C349.443 399.14 349.278 399.072 349.139 398.937C349.004 398.798 348.937 398.633 348.937 398.441C348.937 398.249 349.004 398.085 349.139 397.95C349.278 397.812 349.443 397.742 349.635 397.742C349.827 397.742 349.991 397.812 350.126 397.95C350.265 398.085 350.334 398.249 350.334 398.441C350.334 398.633 350.265 398.798 350.126 398.937C349.991 399.072 349.827 399.14 349.635 399.14ZM352.227 399.14C352.035 399.14 351.87 399.072 351.731 398.937C351.596 398.798 351.529 398.633 351.529 398.441C351.529 398.249 351.596 398.085 351.731 397.95C351.87 397.812 352.035 397.742 352.227 397.742C352.42 397.742 352.583 397.812 352.718 397.95C352.857 398.085 352.926 398.249 352.926 398.441C352.926 398.633 352.857 398.798 352.718 398.937C352.583 399.072 352.42 399.14 352.227 399.14ZM354.82 399.14C354.628 399.14 354.462 399.072 354.324 398.937C354.188 398.798 354.121 398.633 354.121 398.441C354.121 398.249 354.188 398.085 354.324 397.95C354.462 397.812 354.628 397.742 354.82 397.742C355.012 397.742 355.175 397.812 355.31 397.95C355.449 398.085 355.518 398.249 355.518 398.441C355.518 398.633 355.449 398.798 355.31 398.937C355.175 399.072 355.012 399.14 354.82 399.14ZM357.412 399.14C357.22 399.14 357.054 399.072 356.916 398.937C356.781 398.798 356.713 398.633 356.713 398.441C356.713 398.249 356.781 398.085 356.916 397.95C357.054 397.812 357.22 397.742 357.412 397.742C357.604 397.742 357.767 397.812 357.902 397.95C358.041 398.085 358.11 398.249 358.11 398.441C358.11 398.633 358.041 398.798 357.902 398.937C357.767 399.072 357.604 399.14 357.412 399.14ZM360.004 399.14C359.812 399.14 359.647 399.072 359.508 398.937C359.373 398.798 359.305 398.633 359.305 398.441C359.305 398.249 359.373 398.085 359.508 397.95C359.647 397.812 359.812 397.742 360.004 397.742C360.196 397.742 360.359 397.812 360.495 397.95C360.633 398.085 360.703 398.249 360.703 398.441C360.703 398.633 360.633 398.798 360.495 398.937C360.359 399.072 360.196 399.14 360.004 399.14ZM362.596 399.14C362.404 399.14 362.239 399.072 362.1 398.937C361.965 398.798 361.897 398.633 361.897 398.441C361.897 398.249 361.965 398.085 362.1 397.95C362.239 397.812 362.404 397.742 362.596 397.742C362.788 397.742 362.952 397.812 363.087 397.95C363.225 398.085 363.295 398.249 363.295 398.441C363.295 398.633 363.225 398.798 363.087 398.937C362.952 399.072 362.788 399.14 362.596 399.14ZM365.008 395.325V399.99H364.261V395.325H365.008ZM367.301 388.569V401.636H366.522V388.569H367.301ZM369.739 399.14C369.547 399.14 369.381 399.072 369.243 398.937C369.107 398.798 369.04 398.633 369.04 398.441C369.04 398.249 369.107 398.085 369.243 397.95C369.381 397.812 369.547 397.742 369.739 397.742C369.931 397.742 370.094 397.812 370.229 397.95C370.368 398.085 370.437 398.249 370.437 398.441C370.437 398.633 370.368 398.798 370.229 398.937C370.094 399.072 369.931 399.14 369.739 399.14ZM372.748 391.574V400.904H371.819V391.574H372.748ZM374.836 399.14C374.644 399.14 374.479 399.072 374.34 398.937C374.205 398.798 374.138 398.633 374.138 398.441C374.138 398.249 374.205 398.085 374.34 397.95C374.479 397.812 374.644 397.742 374.836 397.742C375.028 397.742 375.192 397.812 375.327 397.95C375.466 398.085 375.535 398.249 375.535 398.441C375.535 398.633 375.466 398.798 375.327 398.937C375.192 399.072 375.028 399.14 374.836 399.14ZM377.428 399.14C377.236 399.14 377.071 399.072 376.932 398.937C376.797 398.798 376.73 398.633 376.73 398.441C376.73 398.249 376.797 398.085 376.932 397.95C377.071 397.812 377.236 397.742 377.428 397.742C377.62 397.742 377.784 397.812 377.919 397.95C378.058 398.085 378.127 398.249 378.127 398.441C378.127 398.633 378.058 398.798 377.919 398.937C377.784 399.072 377.62 399.14 377.428 399.14ZM380.021 399.14C379.829 399.14 379.663 399.072 379.525 398.937C379.389 398.798 379.322 398.633 379.322 398.441C379.322 398.249 379.389 398.085 379.525 397.95C379.663 397.812 379.829 397.742 380.021 397.742C380.213 397.742 380.376 397.812 380.511 397.95C380.65 398.085 380.719 398.249 380.719 398.441C380.719 398.633 380.65 398.798 380.511 398.937C380.376 399.072 380.213 399.14 380.021 399.14ZM382.613 399.14C382.421 399.14 382.255 399.072 382.117 398.937C381.982 398.798 381.914 398.633 381.914 398.441C381.914 398.249 381.982 398.085 382.117 397.95C382.255 397.812 382.421 397.742 382.613 397.742C382.805 397.742 382.968 397.812 383.103 397.95C383.242 398.085 383.311 398.249 383.311 398.441C383.311 398.633 383.242 398.798 383.103 398.937C382.968 399.072 382.805 399.14 382.613 399.14Z" fill="#DFDFDF"/>
<path d="M408.442 401.558C407.859 401.558 407.361 401.398 406.948 401.078C406.536 400.758 406.221 400.295 406.004 399.691C405.787 399.083 405.679 398.347 405.679 397.483C405.679 396.622 405.787 395.888 406.004 395.28C406.225 394.668 406.541 394.203 406.954 393.882C407.366 393.559 407.862 393.397 408.442 393.397C409.021 393.397 409.517 393.559 409.93 393.882C410.342 394.203 410.657 394.668 410.874 395.28C411.094 395.888 411.204 396.622 411.204 397.483C411.204 398.347 411.096 399.083 410.879 399.691C410.662 400.295 410.348 400.758 409.935 401.078C409.526 401.398 409.028 401.558 408.442 401.558ZM408.442 400.715C408.836 400.715 409.171 400.589 409.444 400.336C409.718 400.08 409.926 399.71 410.068 399.227C410.214 398.743 410.287 398.162 410.287 397.483C410.287 396.8 410.214 396.217 410.068 395.733C409.926 395.25 409.718 394.88 409.444 394.624C409.171 394.368 408.836 394.24 408.442 394.24C407.851 394.24 407.396 394.524 407.076 395.093C406.756 395.662 406.596 396.459 406.596 397.483C406.596 398.162 406.667 398.743 406.81 399.227C406.955 399.71 407.165 400.08 407.439 400.336C407.716 400.589 408.051 400.715 408.442 400.715ZM414.757 401.558C414.174 401.558 413.676 401.398 413.263 401.078C412.851 400.758 412.536 400.295 412.319 399.691C412.102 399.083 411.994 398.347 411.994 397.483C411.994 396.622 412.102 395.888 412.319 395.28C412.54 394.668 412.856 394.203 413.269 393.882C413.681 393.559 414.177 393.397 414.757 393.397C415.336 393.397 415.832 393.559 416.245 393.882C416.657 394.203 416.972 394.668 417.189 395.28C417.409 395.888 417.519 396.622 417.519 397.483C417.519 398.347 417.411 399.083 417.194 399.691C416.977 400.295 416.663 400.758 416.25 401.078C415.841 401.398 415.343 401.558 414.757 401.558ZM414.757 400.715C415.151 400.715 415.486 400.589 415.759 400.336C416.033 400.08 416.241 399.71 416.383 399.227C416.529 398.743 416.602 398.162 416.602 397.483C416.602 396.8 416.529 396.217 416.383 395.733C416.241 395.25 416.033 394.88 415.759 394.624C415.486 394.368 415.151 394.24 414.757 394.24C414.166 394.24 413.711 394.524 413.391 395.093C413.071 395.662 412.911 396.459 412.911 397.483C412.911 398.162 412.982 398.743 413.125 399.227C413.27 399.71 413.48 400.08 413.754 400.336C414.031 400.589 414.366 400.715 414.757 400.715ZM419.21 400.395C419.018 400.395 418.853 400.327 418.714 400.192C418.579 400.053 418.512 399.888 418.512 399.696C418.512 399.504 418.579 399.341 418.714 399.205C418.853 399.067 419.018 398.997 419.21 398.997C419.402 398.997 419.566 399.067 419.701 399.205C419.84 399.341 419.909 399.504 419.909 399.696C419.909 399.888 419.84 400.053 419.701 400.192C419.566 400.327 419.402 400.395 419.21 400.395ZM419.21 396.08C419.018 396.08 418.853 396.012 418.714 395.877C418.579 395.739 418.512 395.573 418.512 395.381C418.512 395.189 418.579 395.026 418.714 394.891C418.853 394.752 419.018 394.683 419.21 394.683C419.402 394.683 419.566 394.752 419.701 394.891C419.84 395.026 419.909 395.189 419.909 395.381C419.909 395.573 419.84 395.739 419.701 395.877C419.566 396.012 419.402 396.08 419.21 396.08ZM423.664 401.558C423.081 401.558 422.583 401.398 422.17 401.078C421.758 400.758 421.443 400.295 421.226 399.691C421.009 399.083 420.901 398.347 420.901 397.483C420.901 396.622 421.009 395.888 421.226 395.28C421.447 394.668 421.763 394.203 422.176 393.882C422.588 393.559 423.084 393.397 423.664 393.397C424.243 393.397 424.739 393.559 425.152 393.882C425.564 394.203 425.879 394.668 426.096 395.28C426.316 395.888 426.427 396.622 426.427 397.483C426.427 398.347 426.318 399.083 426.101 399.691C425.884 400.295 425.57 400.758 425.157 401.078C424.748 401.398 424.251 401.558 423.664 401.558ZM423.664 400.715C424.059 400.715 424.393 400.589 424.667 400.336C424.94 400.08 425.148 399.71 425.291 399.227C425.436 398.743 425.509 398.162 425.509 397.483C425.509 396.8 425.436 396.217 425.291 395.733C425.148 395.25 424.94 394.88 424.667 394.624C424.393 394.368 424.059 394.24 423.664 394.24C423.074 394.24 422.618 394.524 422.298 395.093C421.978 395.662 421.818 396.459 421.818 397.483C421.818 398.162 421.89 398.743 422.032 399.227C422.178 399.71 422.387 400.08 422.661 400.336C422.938 400.589 423.273 400.715 423.664 400.715ZM429.979 401.558C429.396 401.558 428.898 401.398 428.485 401.078C428.073 400.758 427.758 400.295 427.541 399.691C427.324 399.083 427.216 398.347 427.216 397.483C427.216 396.622 427.324 395.888 427.541 395.28C427.762 394.668 428.078 394.203 428.491 393.882C428.903 393.559 429.399 393.397 429.979 393.397C430.558 393.397 431.054 393.559 431.467 393.882C431.879 394.203 432.194 394.668 432.411 395.28C432.631 395.888 432.742 396.622 432.742 397.483C432.742 398.347 432.633 399.083 432.416 399.691C432.199 400.295 431.885 400.758 431.472 401.078C431.063 401.398 430.566 401.558 429.979 401.558ZM429.979 400.715C430.374 400.715 430.708 400.589 430.982 400.336C431.255 400.08 431.463 399.71 431.606 399.227C431.751 398.743 431.824 398.162 431.824 397.483C431.824 396.8 431.751 396.217 431.606 395.733C431.463 395.25 431.255 394.88 430.982 394.624C430.708 394.368 430.374 394.24 429.979 394.24C429.389 394.24 428.933 394.524 428.613 395.093C428.293 395.662 428.133 396.459 428.133 397.483C428.133 398.162 428.204 398.743 428.347 399.227C428.493 399.71 428.702 400.08 428.976 400.336C429.253 400.589 429.588 400.715 429.979 400.715ZM434.432 400.395C434.24 400.395 434.075 400.327 433.936 400.192C433.801 400.053 433.734 399.888 433.734 399.696C433.734 399.504 433.801 399.341 433.936 399.205C434.075 399.067 434.24 398.997 434.432 398.997C434.624 398.997 434.788 399.067 434.923 399.205C435.062 399.341 435.131 399.504 435.131 399.696C435.131 399.888 435.062 400.053 434.923 400.192C434.788 400.327 434.624 400.395 434.432 400.395ZM434.432 396.08C434.24 396.08 434.075 396.012 433.936 395.877C433.801 395.739 433.734 395.573 433.734 395.381C433.734 395.189 433.801 395.026 433.936 394.891C434.075 394.752 434.24 394.683 434.432 394.683C434.624 394.683 434.788 394.752 434.923 394.891C435.062 395.026 435.131 395.189 435.131 395.381C435.131 395.573 435.062 395.739 434.923 395.877C434.788 396.012 434.624 396.08 434.432 396.08ZM438.886 401.558C438.303 401.558 437.805 401.398 437.393 401.078C436.98 400.758 436.665 400.295 436.448 399.691C436.232 399.083 436.123 398.347 436.123 397.483C436.123 396.622 436.232 395.888 436.448 395.28C436.669 394.668 436.985 394.203 437.398 393.882C437.81 393.559 438.306 393.397 438.886 393.397C439.466 393.397 439.962 393.559 440.374 393.882C440.786 394.203 441.101 394.668 441.318 395.28C441.539 395.888 441.649 396.622 441.649 397.483C441.649 398.347 441.54 399.083 441.323 399.691C441.107 400.295 440.792 400.758 440.379 401.078C439.97 401.398 439.473 401.558 438.886 401.558ZM438.886 400.715C439.281 400.715 439.615 400.589 439.889 400.336C440.162 400.08 440.37 399.71 440.513 399.227C440.658 398.743 440.731 398.162 440.731 397.483C440.731 396.8 440.658 396.217 440.513 395.733C440.37 395.25 440.162 394.88 439.889 394.624C439.615 394.368 439.281 394.24 438.886 394.24C438.296 394.24 437.841 394.524 437.521 395.093C437.201 395.662 437.041 396.459 437.041 397.483C437.041 398.162 437.112 398.743 437.254 399.227C437.4 399.71 437.609 400.08 437.883 400.336C438.161 400.589 438.495 400.715 438.886 400.715ZM445.201 401.558C444.618 401.558 444.12 401.398 443.708 401.078C443.295 400.758 442.98 400.295 442.763 399.691C442.547 399.083 442.438 398.347 442.438 397.483C442.438 396.622 442.547 395.888 442.763 395.28C442.984 394.668 443.3 394.203 443.713 393.882C444.125 393.559 444.621 393.397 445.201 393.397C445.781 393.397 446.277 393.559 446.689 393.882C447.101 394.203 447.416 394.668 447.633 395.28C447.854 395.888 447.964 396.622 447.964 397.483C447.964 398.347 447.855 399.083 447.638 399.691C447.422 400.295 447.107 400.758 446.694 401.078C446.285 401.398 445.788 401.558 445.201 401.558ZM445.201 400.715C445.596 400.715 445.93 400.589 446.204 400.336C446.477 400.08 446.685 399.71 446.828 399.227C446.973 398.743 447.046 398.162 447.046 397.483C447.046 396.8 446.973 396.217 446.828 395.733C446.685 395.25 446.477 394.88 446.204 394.624C445.93 394.368 445.596 394.24 445.201 394.24C444.611 394.24 444.156 394.524 443.836 395.093C443.516 395.662 443.356 396.459 443.356 397.483C443.356 398.162 443.427 398.743 443.569 399.227C443.715 399.71 443.924 400.08 444.198 400.336C444.476 400.589 444.81 400.715 445.201 400.715Z" fill="#DFDFDF"/>
<rect x="313.606" y="603.915" width="91.4822" height="3.41351" rx="1.70676" fill="#1F1F1F"/>
</g>
<mask id="mask0_1072_3290" style="mask-type:luminance" maskUnits="userSpaceOnUse" x="215" y="45" width="289" height="581">
<path d="M503.812 626H215.732V45H503.812V626ZM287.561 58.6475C267.907 58.6475 258.079 58.6478 250.572 62.4727C243.969 65.8372 238.6 71.2063 235.235 77.8096C231.411 85.3165 231.41 95.1438 231.41 114.798V556.202C231.41 575.856 231.411 585.683 235.235 593.19C238.6 599.794 243.969 605.163 250.572 608.527C258.079 612.352 267.907 612.353 287.561 612.353H431.983C451.638 612.353 461.466 612.352 468.973 608.527C475.576 605.163 480.945 599.794 484.31 593.19C488.134 585.683 488.134 575.856 488.134 556.202V114.798C488.134 95.1439 488.134 85.3165 484.31 77.8096C480.945 71.2063 475.576 65.8372 468.973 62.4727C461.466 58.6477 451.638 58.6475 431.984 58.6475H287.561ZM389.073 66.0117C395.4 66.1043 400.506 71.2113 400.599 77.5381C400.6 77.6235 400.601 77.7248 400.601 77.9268C400.601 78.1288 400.6 78.23 400.599 78.3154C400.506 84.6421 395.4 89.7483 389.073 89.8408C388.988 89.8421 388.887 89.8418 388.685 89.8418H330.86C330.658 89.8418 330.557 89.8421 330.472 89.8408C324.145 89.7482 319.039 84.642 318.946 78.3154C318.945 78.23 318.945 78.1288 318.945 77.9268C318.945 77.7248 318.945 77.6235 318.946 77.5381C319.039 71.2114 324.145 66.1044 330.472 66.0117C330.557 66.0105 330.658 66.0107 330.86 66.0107H388.685C388.887 66.0107 388.988 66.0105 389.073 66.0117Z" fill="white"/>
</mask>
<g mask="url(#mask0_1072_3290)">
<g filter="url(#filter0_ii_1072_3290)">
<rect x="218.674" y="259.463" width="3.2662" height="43.8675" rx="1.62472" fill="url(#paint0_linear_1072_3290)"/>
</g>
<g filter="url(#filter1_ii_1072_3290)">
<rect x="218.674" y="203.573" width="3.2662" height="43.8675" rx="1.62472" fill="url(#paint1_linear_1072_3290)"/>
</g>
<g filter="url(#filter2_ii_1072_3290)">
<rect x="219" y="160.68" width="3.2662" height="23.396" rx="1.62472" fill="url(#paint2_linear_1072_3290)"/>
</g>
<g filter="url(#filter3_ii_1072_3290)">
<path d="M498.261 233.468H498.927C499.837 233.468 500.292 233.468 500.64 233.645C500.946 233.8 501.194 234.049 501.35 234.355C501.527 234.702 501.527 235.157 501.527 236.067V300.406C501.527 301.316 501.527 301.771 501.35 302.118C501.194 302.424 500.946 302.673 500.64 302.829C500.292 303.006 499.837 303.006 498.927 303.006H498.261V233.468Z" fill="url(#paint3_linear_1072_3290)"/>
</g>
<path d="M294.786 49.5488H425.412C438.365 49.5488 447.963 49.5512 455.56 50.1718C463.133 50.7906 468.546 52.015 473.16 54.3662C481.475 58.603 488.237 65.3633 492.474 73.6787C494.825 78.2931 496.049 83.7058 496.668 91.2792C497.289 98.8757 497.29 108.474 497.29 121.427V549.573C497.29 562.526 497.289 572.124 496.668 579.721C496.049 587.294 494.825 592.707 492.474 597.321C488.237 605.637 481.475 612.397 473.16 616.634C468.546 618.985 463.133 620.21 455.56 620.829C447.963 621.45 438.365 621.451 425.412 621.451H294.786C281.833 621.451 272.235 621.45 264.639 620.829C257.065 620.21 251.653 618.985 247.038 616.634C238.723 612.397 231.962 605.636 227.726 597.321C225.374 592.707 224.15 587.294 223.531 579.721C222.911 572.124 222.908 562.526 222.908 549.573V121.427C222.908 108.474 222.911 98.8757 223.531 91.2792C224.15 83.7057 225.374 78.2931 227.726 73.6787C231.962 65.3634 238.723 58.603 247.038 54.3662C251.653 52.015 257.065 50.7906 264.639 50.1718C272.235 49.5512 281.833 49.5488 294.786 49.5488Z" stroke="#423C36" stroke-width="3.89933"/>
<g filter="url(#filter4_dddd_1072_3290)">
<path d="M224.226 119.477C224.226 95.4551 224.226 83.444 228.901 74.2688C233.013 66.198 239.575 59.6363 247.645 55.524C256.821 50.849 268.832 50.849 292.854 50.849H427.346C451.368 50.849 463.379 50.849 472.554 55.524C480.625 59.6363 487.186 66.198 491.299 74.2688C495.974 83.444 495.974 95.4551 495.974 119.477V551.523C495.974 575.545 495.974 587.556 491.299 596.731C487.186 604.802 480.625 611.364 472.554 615.476C463.379 620.151 451.368 620.151 427.346 620.151H292.854C268.832 620.151 256.821 620.151 247.645 615.476C239.575 611.364 233.013 604.802 228.901 596.731C224.226 587.556 224.226 575.545 224.226 551.523V119.477Z" fill="#353333"/>
</g>
<path d="M225.532 118.697C225.532 95.4031 225.532 83.7561 230.066 74.8589C234.053 67.0327 240.416 60.6698 248.242 56.6821C257.14 52.1488 268.787 52.1488 292.081 52.1488H428.119C451.413 52.1488 463.06 52.1488 471.957 56.6821C479.784 60.6698 486.146 67.0327 490.134 74.8589C494.667 83.7561 494.667 95.4031 494.667 118.697V552.303C494.667 575.597 494.667 587.244 490.134 596.141C486.146 603.967 479.784 610.33 471.957 614.318C463.06 618.851 451.413 618.851 428.119 618.851H292.081C268.787 618.851 257.14 618.851 248.242 614.318C240.416 610.33 234.053 603.967 230.066 596.141C225.532 587.244 225.532 575.597 225.532 552.303V118.697Z" fill="black"/>
<path d="M220.959 122.467C220.959 96.2607 220.959 83.1577 226.059 73.1484C230.545 64.3439 237.703 57.1857 246.508 52.6996C256.517 47.5996 269.62 47.5996 295.826 47.5996H424.372C450.578 47.5996 463.681 47.5996 473.691 52.6996C482.495 57.1857 489.653 64.3439 494.14 73.1484C499.24 83.1577 499.24 96.2607 499.24 122.467V549.573C499.24 575.415 499.24 588.336 494.21 598.206C489.787 606.889 482.728 613.947 474.046 618.371C464.175 623.4 451.254 623.4 425.412 623.4H294.786C268.944 623.4 256.023 623.4 246.153 618.371C237.471 613.947 230.412 606.889 225.988 598.206C220.959 588.336 220.959 575.415 220.959 549.573V122.467Z" fill="url(#paint4_radial_1072_3290)" fill-opacity="0.25"/>
<path d="M220.959 122.467C220.959 96.2607 220.959 83.1577 226.059 73.1484C230.545 64.3439 237.703 57.1857 246.508 52.6996C256.517 47.5996 269.62 47.5996 295.826 47.5996H424.372C450.578 47.5996 463.681 47.5996 473.691 52.6996C482.495 57.1857 489.653 64.3439 494.14 73.1484C499.24 83.1577 499.24 96.2607 499.24 122.467V549.573C499.24 575.415 499.24 588.336 494.21 598.206C489.787 606.889 482.728 613.947 474.046 618.371C464.175 623.4 451.254 623.4 425.412 623.4H294.786C268.944 623.4 256.023 623.4 246.153 618.371C237.471 613.947 230.412 606.889 225.988 598.206C220.959 588.336 220.959 575.415 220.959 549.573V122.467Z" fill="url(#paint5_radial_1072_3290)" fill-opacity="0.25"/>
<path d="M220.959 122.467C220.959 96.2607 220.959 83.1577 226.059 73.1484C230.545 64.3439 237.703 57.1857 246.508 52.6996C256.517 47.5996 269.62 47.5996 295.826 47.5996H424.372C450.578 47.5996 463.681 47.5996 473.691 52.6996C482.495 57.1857 489.653 64.3439 494.14 73.1484C499.24 83.1577 499.24 96.2607 499.24 122.467V549.573C499.24 575.415 499.24 588.336 494.21 598.206C489.787 606.889 482.728 613.947 474.046 618.371C464.175 623.4 451.254 623.4 425.412 623.4H294.786C268.944 623.4 256.023 623.4 246.153 618.371C237.471 613.947 230.412 606.889 225.988 598.206C220.959 588.336 220.959 575.415 220.959 549.573V122.467Z" fill="url(#paint6_radial_1072_3290)" fill-opacity="0.25"/>
<path d="M220.959 122.467C220.959 96.2607 220.959 83.1577 226.059 73.1484C230.545 64.3439 237.703 57.1857 246.508 52.6996C256.517 47.5996 269.62 47.5996 295.826 47.5996H424.372C450.578 47.5996 463.681 47.5996 473.691 52.6996C482.495 57.1857 489.653 64.3439 494.14 73.1484C499.24 83.1577 499.24 96.2607 499.24 122.467V549.573C499.24 575.415 499.24 588.336 494.21 598.206C489.787 606.889 482.728 613.947 474.046 618.371C464.175 623.4 451.254 623.4 425.412 623.4H294.786C268.944 623.4 256.023 623.4 246.153 618.371C237.471 613.947 230.412 606.889 225.988 598.206C220.959 588.336 220.959 575.415 220.959 549.573V122.467Z" fill="url(#paint7_radial_1072_3290)" fill-opacity="0.25"/>
<foreignObject x="220.077" y="107.481" width="5.03318" height="5.66591"><div xmlns="http://www.w3.org/1999/xhtml" style="backdrop-filter:blur(0.44px);clip-path:url(#bgblur_2_1072_3290_clip_path);height:100%;width:100%"></div></foreignObject><rect data-figma-bg-blur-radius="0.88329" x="220.96" y="108.364" width="3.2662" height="3.89933" fill="#746E66" fill-opacity="0.6"/>
<foreignObject x="495.09" y="107.481" width="5.03318" height="5.66591"><div xmlns="http://www.w3.org/1999/xhtml" style="backdrop-filter:blur(0.44px);clip-path:url(#bgblur_3_1072_3290_clip_path);height:100%;width:100%"></div></foreignObject><rect data-figma-bg-blur-radius="0.88329" x="495.974" y="108.364" width="3.2662" height="3.89933" fill="#746E66" fill-opacity="0.6"/>
<foreignObject x="435.646" y="46.7163" width="5.6865" height="5.01602"><div xmlns="http://www.w3.org/1999/xhtml" style="backdrop-filter:blur(0.44px);clip-path:url(#bgblur_4_1072_3290_clip_path);height:100%;width:100%"></div></foreignObject><rect data-figma-bg-blur-radius="0.88329" x="436.529" y="47.5995" width="3.91944" height="3.24944" fill="#746E66" fill-opacity="0.6"/>
<foreignObject x="278.868" y="619.268" width="5.6865" height="5.01603"><div xmlns="http://www.w3.org/1999/xhtml" style="backdrop-filter:blur(0.44px);clip-path:url(#bgblur_5_1072_3290_clip_path);height:100%;width:100%"></div></foreignObject><rect data-figma-bg-blur-radius="0.88329" x="279.751" y="620.151" width="3.91944" height="3.24944" fill="#746E66" fill-opacity="0.6"/>
<foreignObject x="220.077" y="558.178" width="5.03318" height="5.6659"><div xmlns="http://www.w3.org/1999/xhtml" style="backdrop-filter:blur(0.44px);clip-path:url(#bgblur_6_1072_3290_clip_path);height:100%;width:100%"></div></foreignObject><rect data-figma-bg-blur-radius="0.88329" x="220.96" y="559.062" width="3.2662" height="3.89933" fill="#746E66" fill-opacity="0.6"/>
<foreignObject x="495.09" y="558.178" width="5.03318" height="5.6659"><div xmlns="http://www.w3.org/1999/xhtml" style="backdrop-filter:blur(0.44px);clip-path:url(#bgblur_7_1072_3290_clip_path);height:100%;width:100%"></div></foreignObject><rect data-figma-bg-blur-radius="0.88329" x="495.974" y="559.062" width="3.2662" height="3.89933" fill="#746E66" fill-opacity="0.6"/>
<g opacity="0.55" filter="url(#filter11_d_1072_3290)">
<ellipse cx="2.93958" cy="2.9245" rx="2.93958" ry="2.9245" transform="matrix(0.999849 0.0173629 -0.0175425 0.999846 386.281 74.8443)" fill="url(#paint8_linear_1072_3290)"/>
<ellipse cx="2.93958" cy="2.9245" rx="2.93958" ry="2.9245" transform="matrix(0.999849 0.0173629 -0.0175425 0.999846 386.281 74.8443)" fill="url(#paint9_linear_1072_3290)"/>
</g>
<g filter="url(#filter12_ii_1072_3290)">
<ellipse cx="2.93048" cy="2.93362" rx="2.93048" ry="2.93362" transform="matrix(0.631275 0.775559 -0.778726 0.627364 389.604 73.7061)" fill="black" fill-opacity="0.01"/>
</g>
<ellipse cx="0.651218" cy="0.651915" rx="0.651218" ry="0.651915" transform="matrix(0.631275 0.775559 -0.778726 0.627364 389.14 75.9223)" fill="#4C4C4D"/>
<g opacity="0.64" style="mix-blend-mode:screen">
<ellipse cx="0.651218" cy="0.651915" rx="0.651218" ry="0.651915" transform="matrix(0.631275 0.775559 -0.778726 0.627364 389.231 78.32)" fill="#4C4C4D"/>
</g>
<g filter="url(#filter13_i_1072_3290)">
<path d="M388.181 51.4989C388.099 52.4097 387.334 53.1238 386.401 53.1239H333.797C332.865 53.1238 332.1 52.4097 332.018 51.4989H388.181Z" fill="#1E1A24"/>
</g>
</g>
</g>
<defs>
<filter id="filter0_ii_1072_3290" x="217.374" y="259.463" width="4.89132" height="43.8674" filterUnits="userSpaceOnUse" color-interpolation-filters="sRGB">
<feFlood flood-opacity="0" result="BackgroundImageFix"/>
<feBlend mode="normal" in="SourceGraphic" in2="BackgroundImageFix" result="shape"/>
<feColorMatrix in="SourceAlpha" type="matrix" values="0 0 0 0 0 0 0 0 0 0 0 0 0 0 0 0 0 0 127 0" result="hardAlpha"/>
<feOffset dx="0.649888"/>
<feGaussianBlur stdDeviation="0.162472"/>
<feComposite in2="hardAlpha" operator="arithmetic" k2="-1" k3="1"/>
<feColorMatrix type="matrix" values="0 0 0 0 0.545098 0 0 0 0 0.517647 0 0 0 0 0.490196 0 0 0 1 0"/>
<feBlend mode="normal" in2="shape" result="effect1_innerShadow_1072_3290"/>
<feColorMatrix in="SourceAlpha" type="matrix" values="0 0 0 0 0 0 0 0 0 0 0 0 0 0 0 0 0 0 127 0" result="hardAlpha"/>
<feOffset dx="-1.29978"/>
<feGaussianBlur stdDeviation="0.649888"/>
<feComposite in2="hardAlpha" operator="arithmetic" k2="-1" k3="1"/>
<feColorMatrix type="matrix" values="0 0 0 0 0 0 0 0 0 0 0 0 0 0 0 0 0 0 0.5 0"/>
<feBlend mode="normal" in2="effect1_innerShadow_1072_3290" result="effect2_innerShadow_1072_3290"/>
</filter>
<filter id="filter1_ii_1072_3290" x="217.374" y="203.573" width="4.89132" height="43.8674" filterUnits="userSpaceOnUse" color-interpolation-filters="sRGB">
<feFlood flood-opacity="0" result="BackgroundImageFix"/>
<feBlend mode="normal" in="SourceGraphic" in2="BackgroundImageFix" result="shape"/>
<feColorMatrix in="SourceAlpha" type="matrix" values="0 0 0 0 0 0 0 0 0 0 0 0 0 0 0 0 0 0 127 0" result="hardAlpha"/>
<feOffset dx="0.649888"/>
<feGaussianBlur stdDeviation="0.162472"/>
<feComposite in2="hardAlpha" operator="arithmetic" k2="-1" k3="1"/>
<feColorMatrix type="matrix" values="0 0 0 0 0.545098 0 0 0 0 0.517647 0 0 0 0 0.490196 0 0 0 1 0"/>
<feBlend mode="normal" in2="shape" result="effect1_innerShadow_1072_3290"/>
<feColorMatrix in="SourceAlpha" type="matrix" values="0 0 0 0 0 0 0 0 0 0 0 0 0 0 0 0 0 0 127 0" result="hardAlpha"/>
<feOffset dx="-1.29978"/>
<feGaussianBlur stdDeviation="0.649888"/>
<feComposite in2="hardAlpha" operator="arithmetic" k2="-1" k3="1"/>
<feColorMatrix type="matrix" values="0 0 0 0 0 0 0 0 0 0 0 0 0 0 0 0 0 0 0.5 0"/>
<feBlend mode="normal" in2="effect1_innerShadow_1072_3290" result="effect2_innerShadow_1072_3290"/>
</filter>
<filter id="filter2_ii_1072_3290" x="217.7" y="160.68" width="4.89132" height="23.396" filterUnits="userSpaceOnUse" color-interpolation-filters="sRGB">
<feFlood flood-opacity="0" result="BackgroundImageFix"/>
<feBlend mode="normal" in="SourceGraphic" in2="BackgroundImageFix" result="shape"/>
<feColorMatrix in="SourceAlpha" type="matrix" values="0 0 0 0 0 0 0 0 0 0 0 0 0 0 0 0 0 0 127 0" result="hardAlpha"/>
<feOffset dx="0.649888"/>
<feGaussianBlur stdDeviation="0.162472"/>
<feComposite in2="hardAlpha" operator="arithmetic" k2="-1" k3="1"/>
<feColorMatrix type="matrix" values="0 0 0 0 0.545098 0 0 0 0 0.517647 0 0 0 0 0.490196 0 0 0 1 0"/>
<feBlend mode="normal" in2="shape" result="effect1_innerShadow_1072_3290"/>
<feColorMatrix in="SourceAlpha" type="matrix" values="0 0 0 0 0 0 0 0 0 0 0 0 0 0 0 0 0 0 127 0" result="hardAlpha"/>
<feOffset dx="-1.29978"/>
<feGaussianBlur stdDeviation="0.649888"/>
<feComposite in2="hardAlpha" operator="arithmetic" k2="-1" k3="1"/>
<feColorMatrix type="matrix" values="0 0 0 0 0 0 0 0 0 0 0 0 0 0 0 0 0 0 0.5 0"/>
<feBlend mode="normal" in2="effect1_innerShadow_1072_3290" result="effect2_innerShadow_1072_3290"/>
</filter>
<filter id="filter3_ii_1072_3290" x="497.936" y="233.468" width="4.89132" height="69.538" filterUnits="userSpaceOnUse" color-interpolation-filters="sRGB">
<feFlood flood-opacity="0" result="BackgroundImageFix"/>
<feBlend mode="normal" in="SourceGraphic" in2="BackgroundImageFix" result="shape"/>
<feColorMatrix in="SourceAlpha" type="matrix" values="0 0 0 0 0 0 0 0 0 0 0 0 0 0 0 0 0 0 127 0" result="hardAlpha"/>
<feOffset dx="-0.649888"/>
<feGaussianBlur stdDeviation="0.162472"/>
<feComposite in2="hardAlpha" operator="arithmetic" k2="-1" k3="1"/>
<feColorMatrix type="matrix" values="0 0 0 0 0.545098 0 0 0 0 0.517647 0 0 0 0 0.490196 0 0 0 1 0"/>
<feBlend mode="normal" in2="shape" result="effect1_innerShadow_1072_3290"/>
<feColorMatrix in="SourceAlpha" type="matrix" values="0 0 0 0 0 0 0 0 0 0 0 0 0 0 0 0 0 0 127 0" result="hardAlpha"/>
<feOffset dx="1.29978"/>
<feGaussianBlur stdDeviation="0.649888"/>
<feComposite in2="hardAlpha" operator="arithmetic" k2="-1" k3="1"/>
<feColorMatrix type="matrix" values="0 0 0 0 0 0 0 0 0 0 0 0 0 0 0 0 0 0 0.5 0"/>
<feBlend mode="normal" in2="effect1_innerShadow_1072_3290" result="effect2_innerShadow_1072_3290"/>
</filter>
<filter id="filter4_dddd_1072_3290" x="219.026" y="45.6499" width="282.146" height="579.7" filterUnits="userSpaceOnUse" color-interpolation-filters="sRGB">
<feFlood flood-opacity="0" result="BackgroundImageFix"/>
<feColorMatrix in="SourceAlpha" type="matrix" values="0 0 0 0 0 0 0 0 0 0 0 0 0 0 0 0 0 0 127 0" result="hardAlpha"/>
<feOffset/>
<feGaussianBlur stdDeviation="1.29978"/>
<feColorMatrix type="matrix" values="0 0 0 0 0.92549 0 0 0 0 0.89549 0 0 0 0 0.858824 0 0 0 1 0"/>
<feBlend mode="normal" in2="BackgroundImageFix" result="effect1_dropShadow_1072_3290"/>
<feColorMatrix in="SourceAlpha" type="matrix" values="0 0 0 0 0 0 0 0 0 0 0 0 0 0 0 0 0 0 127 0" result="hardAlpha"/>
<feOffset/>
<feGaussianBlur stdDeviation="2.59955"/>
<feComposite in2="hardAlpha" operator="out"/>
<feColorMatrix type="matrix" values="0 0 0 0 0.92549 0 0 0 0 0.894118 0 0 0 0 0.858824 0 0 0 1 0"/>
<feBlend mode="normal" in2="effect1_dropShadow_1072_3290" result="effect2_dropShadow_1072_3290"/>
<feColorMatrix in="SourceAlpha" type="matrix" values="0 0 0 0 0 0 0 0 0 0 0 0 0 0 0 0 0 0 127 0" result="hardAlpha"/>
<feOffset/>
<feGaussianBlur stdDeviation="2.27461"/>
<feComposite in2="hardAlpha" operator="out"/>
<feColorMatrix type="matrix" values="0 0 0 0 0.92549 0 0 0 0 0.894118 0 0 0 0 0.858824 0 0 0 1 0"/>
<feBlend mode="normal" in2="effect2_dropShadow_1072_3290" result="effect3_dropShadow_1072_3290"/>
<feColorMatrix in="SourceAlpha" type="matrix" values="0 0 0 0 0 0 0 0 0 0 0 0 0 0 0 0 0 0 127 0" result="hardAlpha"/>
<feOffset/>
<feGaussianBlur stdDeviation="2.59955"/>
<feComposite in2="hardAlpha" operator="out"/>
<feColorMatrix type="matrix" values="0 0 0 0 0.92549 0 0 0 0 0.894118 0 0 0 0 0.858824 0 0 0 1 0"/>
<feBlend mode="normal" in2="effect3_dropShadow_1072_3290" result="effect4_dropShadow_1072_3290"/>
<feBlend mode="normal" in="SourceGraphic" in2="effect4_dropShadow_1072_3290" result="shape"/>
</filter>
<clipPath id="bgblur_2_1072_3290_clip_path" transform="translate(-220.077 -107.481)"><rect x="220.96" y="108.364" width="3.2662" height="3.89933"/>
</clipPath><clipPath id="bgblur_3_1072_3290_clip_path" transform="translate(-495.09 -107.481)"><rect x="495.974" y="108.364" width="3.2662" height="3.89933"/>
</clipPath><clipPath id="bgblur_4_1072_3290_clip_path" transform="translate(-435.646 -46.7163)"><rect x="436.529" y="47.5995" width="3.91944" height="3.24944"/>
</clipPath><clipPath id="bgblur_5_1072_3290_clip_path" transform="translate(-278.868 -619.268)"><rect x="279.751" y="620.151" width="3.91944" height="3.24944"/>
</clipPath><clipPath id="bgblur_6_1072_3290_clip_path" transform="translate(-220.077 -558.178)"><rect x="220.96" y="559.062" width="3.2662" height="3.89933"/>
</clipPath><clipPath id="bgblur_7_1072_3290_clip_path" transform="translate(-495.09 -558.178)"><rect x="495.974" y="559.062" width="3.2662" height="3.89933"/>
</clipPath><filter id="filter11_d_1072_3290" x="384.93" y="73.5951" width="8.47846" height="8.44856" filterUnits="userSpaceOnUse" color-interpolation-filters="sRGB">
<feFlood flood-opacity="0" result="BackgroundImageFix"/>
<feColorMatrix in="SourceAlpha" type="matrix" values="0 0 0 0 0 0 0 0 0 0 0 0 0 0 0 0 0 0 127 0" result="hardAlpha"/>
<feOffset/>
<feGaussianBlur stdDeviation="0.649888"/>
<feColorMatrix type="matrix" values="0 0 0 0 0 0 0 0 0 0 0 0 0 0 0 0 0 0 0.5 0"/>
<feBlend mode="normal" in2="BackgroundImageFix" result="effect1_dropShadow_1072_3290"/>
<feBlend mode="normal" in="SourceGraphic" in2="effect1_dropShadow_1072_3290" result="shape"/>
</filter>
<filter id="filter12_ii_1072_3290" x="386.229" y="74.8948" width="5.87891" height="5.84919" filterUnits="userSpaceOnUse" color-interpolation-filters="sRGB">
<feFlood flood-opacity="0" result="BackgroundImageFix"/>
<feBlend mode="normal" in="SourceGraphic" in2="BackgroundImageFix" result="shape"/>
<feColorMatrix in="SourceAlpha" type="matrix" values="0 0 0 0 0 0 0 0 0 0 0 0 0 0 0 0 0 0 127 0" result="hardAlpha"/>
<feOffset/>
<feGaussianBlur stdDeviation="0.649888"/>
<feComposite in2="hardAlpha" operator="arithmetic" k2="-1" k3="1"/>
<feColorMatrix type="matrix" values="0 0 0 0 0.512512 0 0 0 0 0.584193 0 0 0 0 0.686594 0 0 0 1 0"/>
<feBlend mode="normal" in2="shape" result="effect1_innerShadow_1072_3290"/>
<feColorMatrix in="SourceAlpha" type="matrix" values="0 0 0 0 0 0 0 0 0 0 0 0 0 0 0 0 0 0 127 0" result="hardAlpha"/>
<feMorphology radius="0.324944" operator="erode" in="SourceAlpha" result="effect2_innerShadow_1072_3290"/>
<feOffset/>
<feGaussianBlur stdDeviation="0.324944"/>
<feComposite in2="hardAlpha" operator="arithmetic" k2="-1" k3="1"/>
<feColorMatrix type="matrix" values="0 0 0 0 0 0 0 0 0 0 0 0 0 0 0 0 0 0 1 0"/>
<feBlend mode="normal" in2="effect1_innerShadow_1072_3290" result="effect2_innerShadow_1072_3290"/>
</filter>
<filter id="filter13_i_1072_3290" x="332.018" y="51.4989" width="56.1631" height="1.625" filterUnits="userSpaceOnUse" color-interpolation-filters="sRGB">
<feFlood flood-opacity="0" result="BackgroundImageFix"/>
<feBlend mode="normal" in="SourceGraphic" in2="BackgroundImageFix" result="shape"/>
<feColorMatrix in="SourceAlpha" type="matrix" values="0 0 0 0 0 0 0 0 0 0 0 0 0 0 0 0 0 0 127 0" result="hardAlpha"/>
<feOffset dy="-0.162472"/>
<feComposite in2="hardAlpha" operator="arithmetic" k2="-1" k3="1"/>
<feColorMatrix type="matrix" values="0 0 0 0 1 0 0 0 0 1 0 0 0 0 1 0 0 0 0.2 0"/>
<feBlend mode="normal" in2="shape" result="effect1_innerShadow_1072_3290"/>
</filter>
<linearGradient id="paint0_linear_1072_3290" x1="218.684" y1="259.463" x2="218.684" y2="303.058" gradientUnits="userSpaceOnUse">
<stop stop-color="#E7E3DD"/>
<stop offset="0.00576235" stop-color="#F9F7EF"/>
<stop offset="0.0348918" stop-color="#F7F7EF"/>
<stop offset="0.0794157" stop-color="#DFDBD3"/>
<stop offset="0.491651" stop-color="#CBC5BE"/>
<stop offset="0.908107" stop-color="#ABA69E"/>
<stop offset="0.948523" stop-color="#625C55"/>
<stop offset="0.978252" stop-color="#C2BDB7"/>
<stop offset="1" stop-color="#87817A"/>
</linearGradient>
<linearGradient id="paint1_linear_1072_3290" x1="218.684" y1="203.573" x2="218.684" y2="247.167" gradientUnits="userSpaceOnUse">
<stop stop-color="#E7E3DD"/>
<stop offset="0.00576235" stop-color="#F9F7EF"/>
<stop offset="0.0348918" stop-color="#F7F7EF"/>
<stop offset="0.0794157" stop-color="#DFDBD3"/>
<stop offset="0.491651" stop-color="#CBC5BE"/>
<stop offset="0.908107" stop-color="#ABA69E"/>
<stop offset="0.948523" stop-color="#625C55"/>
<stop offset="0.978252" stop-color="#C2BDB7"/>
<stop offset="1" stop-color="#87817A"/>
</linearGradient>
<linearGradient id="paint2_linear_1072_3290" x1="219" y1="160.68" x2="219" y2="184.076" gradientUnits="userSpaceOnUse">
<stop stop-color="#DAD7CD"/>
<stop offset="0.0490965" stop-color="#FBF9EF"/>
<stop offset="0.49464" stop-color="#BDB7B0"/>
<stop offset="0.841441" stop-color="#B8B2AC"/>
<stop offset="0.926681" stop-color="#625E56"/>
<stop offset="0.965933" stop-color="#C8C1BB"/>
<stop offset="1" stop-color="#847D77"/>
</linearGradient>
<linearGradient id="paint3_linear_1072_3290" x1="498.28" y1="233.863" x2="498.28" y2="302.579" gradientUnits="userSpaceOnUse">
<stop stop-color="#E7E3DD"/>
<stop offset="0.00895078" stop-color="#FBFAF4"/>
<stop offset="0.022522" stop-color="#FAF4ED"/>
<stop offset="0.0722192" stop-color="#D7D0CA"/>
<stop offset="0.491651" stop-color="#C9C2BC"/>
<stop offset="0.921182" stop-color="#B8B2AC"/>
<stop offset="0.96181" stop-color="#5F5B53"/>
<stop offset="0.986829" stop-color="#C9C7BF"/>
<stop offset="1" stop-color="#777572"/>
</linearGradient>
<radialGradient id="paint4_radial_1072_3290" cx="0" cy="0" r="1" gradientUnits="userSpaceOnUse" gradientTransform="translate(217.528 42.3898) rotate(90) scale(71.982 34.7884)">
<stop/>
<stop offset="1" stop-opacity="0.01"/>
</radialGradient>
<radialGradient id="paint5_radial_1072_3290" cx="0" cy="0" r="1" gradientUnits="userSpaceOnUse" gradientTransform="translate(495.872 52.9666) rotate(90) scale(58.9646 28.4972)">
<stop/>
<stop offset="1" stop-opacity="0.01"/>
</radialGradient>
<radialGradient id="paint6_radial_1072_3290" cx="0" cy="0" r="1" gradientTransform="matrix(3.29045 54.3149 -26.25 6.8084 499.24 623.4)" gradientUnits="userSpaceOnUse">
<stop/>
<stop offset="1" stop-opacity="0.01"/>
</radialGradient>
<radialGradient id="paint7_radial_1072_3290" cx="0" cy="0" r="1" gradientTransform="matrix(5.90066 58.5333 -28.2887 12.2093 220.959 623.4)" gradientUnits="userSpaceOnUse">
<stop/>
<stop offset="1" stop-opacity="0.01"/>
</radialGradient>
<linearGradient id="paint8_linear_1072_3290" x1="0" y1="4.08436" x2="2.33167" y2="4.08436" gradientUnits="userSpaceOnUse">
<stop stop-color="#5B6A78"/>
<stop offset="1" stop-color="#6F7376" stop-opacity="0.01"/>
</linearGradient>
<linearGradient id="paint9_linear_1072_3290" x1="5.87916" y1="1.91764" x2="3.85504" y2="1.91764" gradientUnits="userSpaceOnUse">
<stop stop-color="#797E8E" stop-opacity="0.834579"/>
<stop offset="1" stop-color="#6C7782" stop-opacity="0.01"/>
</linearGradient>
<clipPath id="clip0_1072_3290">
<rect width="720" height="672" fill="white"/>
</clipPath>
<clipPath id="clip1_1072_3290">
<rect x="231.348" y="58.6477" width="256.014" height="554.355" rx="19.4966" fill="white"/>
</clipPath>
</defs>
</svg>
