<svg width="160" height="56" viewBox="0 0 160 56" fill="none" xmlns="http://www.w3.org/2000/svg">
<rect x="0.5" y="0.5" width="159" height="54.1361" rx="8.47564" fill="#CACACA"/>
<rect x="0.5" y="0.5" width="159" height="54.1361" rx="8.47564" stroke="#1F1F1F"/>
<path d="M34.4966 22.9282C34.3253 23.0595 31.3009 24.7426 31.3009 28.4853C31.3009 32.8142 35.1494 34.3457 35.2646 34.3836C35.2468 34.477 34.6532 36.481 33.2355 38.5229C31.9714 40.3199 30.6511 42.1139 28.6427 42.1139C26.6343 42.1139 26.1174 40.9616 23.7989 40.9616C21.5394 40.9616 20.7361 42.1518 18.899 42.1518C17.0618 42.1518 15.78 40.4891 14.3062 38.4471C12.599 36.0493 11.2197 32.3241 11.2197 28.7886C11.2197 23.1178 14.953 20.1103 18.6272 20.1103C20.5795 20.1103 22.2069 21.3763 23.4327 21.3763C24.5993 21.3763 26.4187 20.0345 28.6398 20.0345C29.4815 20.0345 32.506 20.1103 34.4966 22.9282ZM27.5853 17.6337C28.5039 16.5573 29.1537 15.0638 29.1537 13.5702C29.1537 13.3631 29.136 13.1531 29.0976 12.9839C27.6031 13.0393 25.825 13.9669 24.7529 15.195C23.9111 16.1402 23.1255 17.6337 23.1255 19.1477C23.1255 19.3752 23.1639 19.6027 23.1816 19.6757C23.2761 19.6932 23.4297 19.7136 23.5833 19.7136C24.9242 19.7136 26.6107 18.8268 27.5853 17.6337Z" fill="#1F1F1F"/>
<path d="M43.8597 20.6303C43.7822 20.6303 43.7163 20.6032 43.662 20.5489C43.6078 20.5024 43.5806 20.4365 43.5806 20.3513V17.8398C43.5806 17.7623 43.6078 17.6964 43.662 17.6422C43.7163 17.5879 43.7822 17.5608 43.8597 17.5608H44.0922C44.2782 17.5608 44.4371 17.4755 44.5689 17.305C44.7007 17.1267 44.8092 16.8709 44.8945 16.5376C44.9797 16.1965 45.0418 15.778 45.0805 15.2819C45.1193 14.7858 45.1386 14.2199 45.1386 13.5843V11.1543C45.1386 11.0768 45.1658 11.0109 45.22 10.9566C45.2743 10.9024 45.3441 10.8752 45.4293 10.8752H50.4173C50.5026 10.8752 50.5723 10.9024 50.6266 10.9566C50.6809 11.0109 50.708 11.0806 50.708 11.1659V17.5608H51.2661C51.3514 17.5608 51.4211 17.5879 51.4754 17.6422C51.5296 17.6964 51.5568 17.7623 51.5568 17.8398V20.3513C51.5568 20.4365 51.5296 20.5024 51.4754 20.5489C51.4211 20.6032 51.3514 20.6303 51.2661 20.6303H50.2197C50.1344 20.6303 50.0646 20.6032 50.0104 20.5489C49.9639 20.5024 49.9406 20.4365 49.9406 20.3513V19.0142H45.1968V20.3513C45.1968 20.4365 45.1697 20.5024 45.1154 20.5489C45.0611 20.6032 44.9914 20.6303 44.9061 20.6303H43.8597ZM46.0688 17.5608H49.0918V12.3286H46.7083V13.7936C46.7083 14.7548 46.654 15.5416 46.5455 16.1539C46.437 16.7585 46.2781 17.2275 46.0688 17.5608ZM55.3834 19.1304C54.7633 19.1304 54.2401 19.0219 53.8138 18.8049C53.3952 18.5878 53.0735 18.2817 52.8487 17.8863C52.6317 17.491 52.5077 17.0298 52.4767 16.5027C52.4689 16.3632 52.465 16.1927 52.465 15.9911C52.465 15.7896 52.4689 15.6191 52.4767 15.4795C52.5077 14.9447 52.6356 14.4835 52.8604 14.0959C53.0929 13.7006 53.4185 13.3944 53.837 13.1774C54.2634 12.9604 54.7788 12.8518 55.3834 12.8518C55.988 12.8518 56.4996 12.9604 56.9182 13.1774C57.3445 13.3944 57.6701 13.7006 57.8949 14.0959C58.1274 14.4835 58.2592 14.9447 58.2902 15.4795C58.2979 15.6191 58.3018 15.7896 58.3018 15.9911C58.3018 16.1927 58.2979 16.3632 58.2902 16.5027C58.2592 17.0298 58.1313 17.491 57.9065 17.8863C57.6895 18.2817 57.3678 18.5878 56.9414 18.8049C56.5229 19.0219 56.0035 19.1304 55.3834 19.1304ZM55.3834 17.9794C55.7942 17.9794 56.1121 17.8515 56.3368 17.5957C56.5616 17.3321 56.6857 16.9484 56.7089 16.4446C56.7167 16.3283 56.7205 16.1772 56.7205 15.9911C56.7205 15.8051 56.7167 15.6539 56.7089 15.5377C56.6857 15.0416 56.5616 14.6618 56.3368 14.3982C56.1121 14.1347 55.7942 14.0029 55.3834 14.0029C54.9726 14.0029 54.6548 14.1347 54.43 14.3982C54.2052 14.6618 54.0812 15.0416 54.0579 15.5377C54.0502 15.6539 54.0463 15.8051 54.0463 15.9911C54.0463 16.1772 54.0502 16.3283 54.0579 16.4446C54.0812 16.9484 54.2052 17.3321 54.43 17.5957C54.6548 17.8515 54.9726 17.9794 55.3834 17.9794ZM62.2061 19.1304C61.648 19.1304 61.1558 19.0258 60.7295 18.8165C60.3109 18.6072 59.9815 18.3049 59.7412 17.9096C59.5087 17.5065 59.3808 17.0221 59.3575 16.4562C59.3498 16.3399 59.3459 16.1888 59.3459 16.0028C59.3459 15.809 59.3498 15.6501 59.3575 15.526C59.3808 14.9602 59.5087 14.4796 59.7412 14.0843C59.9815 13.6812 60.3109 13.375 60.7295 13.1658C61.1558 12.9565 61.648 12.8518 62.2061 12.8518C62.7022 12.8518 63.1247 12.9216 63.4735 13.0611C63.8223 13.2006 64.1091 13.375 64.3339 13.5843C64.5587 13.7936 64.7253 14.0145 64.8338 14.2471C64.9501 14.4719 65.0121 14.6773 65.0199 14.8633C65.0276 14.9486 65.0005 15.0183 64.9385 15.0726C64.8842 15.1191 64.8183 15.1424 64.7408 15.1424H63.7176C63.6401 15.1424 63.5781 15.123 63.5316 15.0842C63.4929 15.0455 63.4541 14.9873 63.4153 14.9098C63.2991 14.5998 63.144 14.3827 62.9503 14.2587C62.7642 14.1269 62.5239 14.061 62.2294 14.061C61.8418 14.061 61.5318 14.1851 61.2992 14.4331C61.0744 14.6734 60.9543 15.0571 60.9388 15.5842C60.9233 15.8787 60.9233 16.15 60.9388 16.3981C60.9543 16.9329 61.0744 17.3205 61.2992 17.5608C61.5318 17.8011 61.8418 17.9212 62.2294 17.9212C62.5317 17.9212 62.7759 17.8592 62.9619 17.7352C63.1479 17.6034 63.2991 17.3825 63.4153 17.0724C63.4541 16.9949 63.4929 16.9368 63.5316 16.898C63.5781 16.8593 63.6401 16.8399 63.7176 16.8399H64.7408C64.8183 16.8399 64.8842 16.867 64.9385 16.9213C65.0005 16.9678 65.0276 17.0337 65.0199 17.119C65.0121 17.2585 64.9734 17.4174 64.9036 17.5957C64.8416 17.7662 64.737 17.9445 64.5897 18.1305C64.4502 18.3088 64.2719 18.4754 64.0548 18.6305C63.8378 18.7777 63.5742 18.8979 63.2642 18.9909C62.9619 19.0839 62.6092 19.1304 62.2061 19.1304ZM68.0811 19.0142C67.9959 19.0142 67.9261 18.987 67.8719 18.9328C67.8254 18.8785 67.8021 18.8126 67.8021 18.7351V14.2006H65.9069C65.8216 14.2006 65.7519 14.1734 65.6976 14.1192C65.6511 14.0649 65.6278 13.999 65.6278 13.9215V13.2472C65.6278 13.1696 65.6511 13.1038 65.6976 13.0495C65.7519 12.9952 65.8216 12.9681 65.9069 12.9681H71.1856C71.2708 12.9681 71.3406 12.9952 71.3949 13.0495C71.4491 13.1038 71.4762 13.1696 71.4762 13.2472V13.9215C71.4762 13.999 71.4491 14.0649 71.3949 14.1192C71.3406 14.1734 71.2708 14.2006 71.1856 14.2006H69.302V18.7351C69.302 18.8126 69.2749 18.8785 69.2206 18.9328C69.1663 18.987 69.1004 19.0142 69.0229 19.0142H68.0811ZM72.8282 21.2233C72.7506 21.2233 72.6848 21.1962 72.6305 21.1419C72.5762 21.0954 72.5491 21.0295 72.5491 20.9442V20.2815C72.5491 20.1962 72.5762 20.1265 72.6305 20.0722C72.6848 20.0257 72.7506 20.0025 72.8282 20.0025H73.1886C73.3436 20.0025 73.4715 19.9715 73.5723 19.9094C73.6731 19.8474 73.7661 19.7428 73.8513 19.5955C73.9366 19.456 74.0296 19.2622 74.1304 19.0142L76.5488 13.189C76.5798 13.127 76.6186 13.0766 76.6651 13.0379C76.7116 12.9914 76.7813 12.9681 76.8744 12.9681H77.758C77.82 12.9681 77.8743 12.9914 77.9208 13.0379C77.9751 13.0844 78.0022 13.1386 78.0022 13.2006C78.0022 13.2316 77.9983 13.2588 77.9906 13.282C77.9906 13.3053 77.9789 13.3402 77.9557 13.3867L75.7465 18.6653C75.6148 18.9987 75.4714 19.3165 75.3163 19.6188C75.1691 19.9288 75.0024 20.204 74.8164 20.4443C74.6381 20.6923 74.4288 20.8822 74.1885 21.014C73.9482 21.1535 73.6653 21.2233 73.3397 21.2233H72.8282ZM74.328 18.863L71.9678 13.3867C71.9367 13.3092 71.9212 13.2549 71.9212 13.2239C71.929 13.1541 71.9561 13.096 72.0026 13.0495C72.0491 12.9952 72.1073 12.9681 72.177 12.9681H73.1072C73.2002 12.9681 73.2661 12.9914 73.3049 13.0379C73.3514 13.0844 73.3863 13.1348 73.4095 13.189L75.2117 17.6305L74.328 18.863ZM79.308 19.0142C79.2305 19.0142 79.1646 18.987 79.1104 18.9328C79.0561 18.8785 79.029 18.8126 79.029 18.7351V13.2472C79.029 13.1696 79.0561 13.1038 79.1104 13.0495C79.1646 12.9952 79.2305 12.9681 79.308 12.9681H84.2844C84.3697 12.9681 84.4356 12.9952 84.4821 13.0495C84.5363 13.1038 84.5635 13.1696 84.5635 13.2472V18.7351C84.5635 18.8126 84.5363 18.8785 84.4821 18.9328C84.4356 18.987 84.3697 19.0142 84.2844 19.0142H83.3194C83.2419 19.0142 83.176 18.987 83.1217 18.9328C83.0675 18.8785 83.0403 18.8126 83.0403 18.7351V14.2006H80.5521V18.7351C80.5521 18.8126 80.525 18.8785 80.4707 18.9328C80.4242 18.987 80.3584 19.0142 80.2731 19.0142H79.308ZM86.416 19.0142C86.3385 19.0142 86.2726 18.987 86.2183 18.9328C86.1641 18.8785 86.1369 18.8126 86.1369 18.7351V13.2472C86.1369 13.1696 86.1641 13.1038 86.2183 13.0495C86.2726 12.9952 86.3385 12.9681 86.416 12.9681H87.381C87.4663 12.9681 87.5322 12.9952 87.5787 13.0495C87.6329 13.1038 87.6601 13.1696 87.6601 13.2472V15.3284H90.2878V13.2472C90.2878 13.1696 90.3149 13.1038 90.3692 13.0495C90.4234 12.9952 90.4893 12.9681 90.5668 12.9681H91.5319C91.6094 12.9681 91.6753 12.9952 91.7295 13.0495C91.7838 13.1038 91.8109 13.1696 91.8109 13.2472V18.7351C91.8109 18.8126 91.7838 18.8785 91.7295 18.9328C91.6753 18.987 91.6094 19.0142 91.5319 19.0142H90.5668C90.4893 19.0142 90.4234 18.987 90.3692 18.9328C90.3149 18.8785 90.2878 18.8126 90.2878 18.7351V16.5492H87.6601V18.7351C87.6601 18.8126 87.6329 18.8785 87.5787 18.9328C87.5322 18.987 87.4663 19.0142 87.381 19.0142H86.416ZM96.0553 19.1304C95.4352 19.1304 94.912 19.0219 94.4857 18.8049C94.0671 18.5878 93.7454 18.2817 93.5206 17.8863C93.3036 17.491 93.1796 17.0298 93.1486 16.5027C93.1408 16.3632 93.137 16.1927 93.137 15.9911C93.137 15.7896 93.1408 15.6191 93.1486 15.4795C93.1796 14.9447 93.3075 14.4835 93.5323 14.0959C93.7648 13.7006 94.0904 13.3944 94.5089 13.1774C94.9353 12.9604 95.4507 12.8518 96.0553 12.8518C96.6599 12.8518 97.1715 12.9604 97.5901 13.1774C98.0164 13.3944 98.342 13.7006 98.5668 14.0959C98.7993 14.4835 98.9311 14.9447 98.9621 15.4795C98.9698 15.6191 98.9737 15.7896 98.9737 15.9911C98.9737 16.1927 98.9698 16.3632 98.9621 16.5027C98.9311 17.0298 98.8032 17.491 98.5784 17.8863C98.3614 18.2817 98.0397 18.5878 97.6134 18.8049C97.1948 19.0219 96.6754 19.1304 96.0553 19.1304ZM96.0553 17.9794C96.4662 17.9794 96.784 17.8515 97.0088 17.5957C97.2335 17.3321 97.3576 16.9484 97.3808 16.4446C97.3886 16.3283 97.3924 16.1772 97.3924 15.9911C97.3924 15.8051 97.3886 15.6539 97.3808 15.5377C97.3576 15.0416 97.2335 14.6618 97.0088 14.3982C96.784 14.1347 96.4662 14.0029 96.0553 14.0029C95.6445 14.0029 95.3267 14.1347 95.1019 14.3982C94.8771 14.6618 94.7531 15.0416 94.7299 15.5377C94.7221 15.6539 94.7182 15.8051 94.7182 15.9911C94.7182 16.1772 94.7221 16.3283 94.7299 16.4446C94.7531 16.9484 94.8771 17.3321 95.1019 17.5957C95.3267 17.8515 95.6445 17.9794 96.0553 17.9794ZM103.198 19.0142C103.12 19.0142 103.055 18.987 103 18.9328C102.946 18.8785 102.919 18.8126 102.919 18.7351V13.2472C102.919 13.1696 102.946 13.1038 103 13.0495C103.055 12.9952 103.12 12.9681 103.198 12.9681H105.779C106.601 12.9681 107.209 13.1193 107.605 13.4216C108 13.7239 108.198 14.1308 108.198 14.6424C108.198 14.968 108.136 15.2199 108.012 15.3982C107.888 15.5764 107.717 15.7315 107.5 15.8632C107.771 15.9873 107.981 16.1772 108.128 16.433C108.283 16.681 108.36 16.9562 108.36 17.2585C108.36 17.8166 108.151 18.2507 107.733 18.5607C107.322 18.863 106.713 19.0142 105.907 19.0142H103.198ZM104.407 17.9677H105.802C106.112 17.9677 106.361 17.9096 106.547 17.7933C106.733 17.6771 106.826 17.4949 106.826 17.2469C106.826 16.9911 106.74 16.805 106.57 16.6888C106.399 16.5725 106.143 16.5143 105.802 16.5143H104.407V17.9677ZM104.407 15.433H105.756C106.066 15.433 106.31 15.371 106.488 15.247C106.667 15.1152 106.756 14.9253 106.756 14.6773C106.756 14.4292 106.663 14.2587 106.477 14.1657C106.299 14.0649 106.058 14.0145 105.756 14.0145H104.407V15.433Z" fill="#1F1F1F"/>
<path d="M43.648 41.9517L50.1783 24.7018H53.1354L59.6657 41.9517H56.5114L55.0575 38.0581H48.059L46.6051 41.9517H43.648ZM49.0201 35.4953H54.0965L51.5829 28.3982L49.0201 35.4953ZM60.0276 46.8802V28.891H62.5412V31.0842C62.9355 30.3285 63.5187 29.7289 64.2908 29.2853C65.0794 28.8418 65.9665 28.62 66.9522 28.62C68.6608 28.62 70.0079 29.1539 70.9936 30.2217C71.9793 31.2896 72.4722 32.8996 72.4722 35.0517V35.5446C72.4722 37.0231 72.2422 38.2635 71.7822 39.2656C71.3222 40.2513 70.6815 40.9906 69.8601 41.4834C69.0386 41.9763 68.0694 42.2227 66.9522 42.2227C66.0158 42.2227 65.1615 42.0174 64.3894 41.6067C63.6173 41.196 63.0669 40.621 62.7383 39.8817V46.8802H60.0276ZM66.3115 39.857C67.3301 39.857 68.1515 39.5038 68.7758 38.7974C69.4001 38.091 69.7122 37.0067 69.7122 35.5446V35.0517C69.7122 33.6717 69.4083 32.6532 68.8004 31.996C68.1926 31.3225 67.3629 30.9857 66.3115 30.9857C65.7037 30.9857 65.1205 31.1171 64.5619 31.38C64.0198 31.6428 63.5762 32.0289 63.2312 32.5382C62.9026 33.0474 62.7383 33.6799 62.7383 34.4356V36.1606C62.7383 36.9821 62.9026 37.672 63.2312 38.2306C63.5762 38.7728 64.0198 39.1835 64.5619 39.4627C65.104 39.7256 65.6872 39.857 66.3115 39.857ZM73.4637 46.8802V28.891H75.9772V31.0842C76.3715 30.3285 76.9547 29.7289 77.7269 29.2853C78.5154 28.8418 79.4026 28.62 80.3883 28.62C82.0968 28.62 83.444 29.1539 84.4297 30.2217C85.4154 31.2896 85.9082 32.8996 85.9082 35.0517V35.5446C85.9082 37.0231 85.6782 38.2635 85.2182 39.2656C84.7582 40.2513 84.1175 40.9906 83.2961 41.4834C82.4747 41.9763 81.5054 42.2227 80.3883 42.2227C79.4518 42.2227 78.5976 42.0174 77.8254 41.6067C77.0533 41.196 76.5029 40.621 76.1744 39.8817V46.8802H73.4637ZM79.7476 39.857C80.7661 39.857 81.5875 39.5038 82.2118 38.7974C82.8361 38.091 83.1482 37.0067 83.1482 35.5446V35.0517C83.1482 33.6717 82.8443 32.6532 82.2365 31.996C81.6286 31.3225 80.799 30.9857 79.7476 30.9857C79.1397 30.9857 78.5565 31.1171 77.9979 31.38C77.4558 31.6428 77.0122 32.0289 76.6672 32.5382C76.3387 33.0474 76.1744 33.6799 76.1744 34.4356V36.1606C76.1744 36.9821 76.3387 37.672 76.6672 38.2306C77.0122 38.7728 77.4558 39.1835 77.9979 39.4627C78.5401 39.7256 79.1233 39.857 79.7476 39.857ZM97.6193 42.2227C96.1407 42.2227 94.9168 42.0092 93.9475 41.582C92.9782 41.1549 92.239 40.5717 91.7297 39.8324C91.2368 39.0767 90.9411 38.2224 90.8425 37.2696H93.7997C93.9311 37.9431 94.2679 38.5017 94.81 38.9453C95.3521 39.3888 96.2886 39.6106 97.6193 39.6106C98.9993 39.6106 99.9768 39.3888 100.552 38.9453C101.143 38.4853 101.439 37.9267 101.439 37.2696C101.439 36.7274 101.275 36.2838 100.946 35.9388C100.617 35.5938 100.108 35.2981 99.4182 35.0517C98.7446 34.7889 97.8821 34.5506 96.8307 34.3371C95.6479 34.0742 94.6457 33.7456 93.8243 33.3514C93.0029 32.9407 92.3786 32.3985 91.9515 31.7249C91.5407 31.0514 91.3354 30.1889 91.3354 29.1375C91.3354 28.2668 91.5736 27.4782 92.05 26.7718C92.5265 26.0653 93.2247 25.4986 94.1447 25.0714C95.0811 24.6443 96.2393 24.4307 97.6193 24.4307C98.9664 24.4307 100.084 24.6361 100.971 25.0468C101.874 25.4411 102.564 25.9914 103.041 26.6978C103.534 27.4043 103.821 28.2175 103.903 29.1375H100.946C100.815 28.5132 100.478 28.0121 99.9357 27.6343C99.41 27.24 98.6378 27.0428 97.6193 27.0428C96.4364 27.0428 95.5821 27.2482 95.0564 27.6589C94.5472 28.0696 94.2925 28.5625 94.2925 29.1375C94.2925 29.926 94.6211 30.5175 95.2782 30.9117C95.9354 31.306 96.9457 31.6428 98.3093 31.9221C99.3278 32.1357 100.215 32.3903 100.971 32.686C101.726 32.9653 102.359 33.3103 102.868 33.721C103.377 34.1153 103.755 34.6081 104.002 35.1996C104.265 35.7746 104.396 36.4646 104.396 37.2696C104.396 38.2224 104.141 39.0767 103.632 39.8324C103.139 40.5717 102.392 41.1549 101.39 41.582C100.387 42.0092 99.1307 42.2227 97.6193 42.2227ZM110.449 42.0749C109.463 42.0749 108.658 41.9352 108.034 41.6559C107.426 41.3767 106.974 40.9413 106.679 40.3499C106.399 39.742 106.26 38.9617 106.26 38.0088V31.2075H104.411V28.891H106.26V25.9339H108.97V28.891H112.297V31.2075H108.97V37.6392C108.97 38.4113 109.11 38.9535 109.389 39.2656C109.685 39.5613 110.244 39.7092 111.065 39.7092C111.558 39.7092 112.051 39.6845 112.543 39.6352V41.9517C112.231 41.9845 111.911 42.0092 111.582 42.0256C111.254 42.0584 110.876 42.0749 110.449 42.0749ZM119.086 42.2227C117.887 42.2227 116.803 41.9763 115.833 41.4834C114.864 40.9742 114.092 40.2267 113.517 39.241C112.959 38.2388 112.679 37.0067 112.679 35.5446V35.0517C112.679 33.6717 112.959 32.5053 113.517 31.5524C114.092 30.5832 114.864 29.8521 115.833 29.3593C116.803 28.8664 117.887 28.62 119.086 28.62C120.302 28.62 121.386 28.8664 122.339 29.3593C123.308 29.8521 124.072 30.5832 124.631 31.5524C125.206 32.5053 125.493 33.6717 125.493 35.0517V35.5446C125.493 37.0067 125.206 38.2388 124.631 39.241C124.072 40.2267 123.308 40.9742 122.339 41.4834C121.386 41.9763 120.302 42.2227 119.086 42.2227ZM119.086 39.857C119.711 39.857 120.302 39.7092 120.861 39.4135C121.419 39.1178 121.871 38.6578 122.216 38.0335C122.561 37.3928 122.733 36.5631 122.733 35.5446V35.0517C122.733 34.1153 122.561 33.3514 122.216 32.7599C121.871 32.1521 121.419 31.7085 120.861 31.4292C120.302 31.1335 119.711 30.9857 119.086 30.9857C118.462 30.9857 117.871 31.1335 117.312 31.4292C116.753 31.7085 116.302 32.1521 115.957 32.7599C115.612 33.3514 115.439 34.1153 115.439 35.0517V35.5446C115.439 36.5631 115.612 37.3928 115.957 38.0335C116.302 38.6578 116.753 39.1178 117.312 39.4135C117.871 39.7092 118.462 39.857 119.086 39.857ZM126.469 41.9517V28.891H128.983V31.1089C129.164 30.6489 129.41 30.2382 129.722 29.8767C130.051 29.4989 130.445 29.195 130.905 28.965C131.382 28.735 131.916 28.62 132.507 28.62C132.918 28.62 133.222 28.6364 133.419 28.6693C133.632 28.7021 133.78 28.735 133.862 28.7678V31.2321C133.583 31.15 133.328 31.0925 133.098 31.0596C132.868 31.0103 132.589 30.9857 132.261 30.9857C131.554 30.9857 130.971 31.15 130.511 31.4785C130.051 31.7907 129.714 32.2014 129.501 32.7107C129.287 33.2035 129.18 33.7374 129.18 34.3124V41.9517H126.469ZM139.774 42.2227C138.624 42.2227 137.564 41.9845 136.595 41.5081C135.625 41.0152 134.845 40.276 134.254 39.2903C133.662 38.3045 133.367 37.056 133.367 35.5446V35.0517C133.367 33.606 133.646 32.4067 134.204 31.4539C134.779 30.501 135.535 29.7946 136.472 29.3346C137.408 28.8582 138.427 28.62 139.527 28.62C141.515 28.62 143.035 29.1539 144.086 30.2217C145.154 31.2896 145.688 32.8174 145.688 34.8053V36.1853H136.127C136.159 37.0724 136.348 37.787 136.693 38.3292C137.038 38.8713 137.482 39.2656 138.024 39.512C138.566 39.742 139.149 39.857 139.774 39.857C140.71 39.857 141.392 39.7092 141.819 39.4135C142.263 39.1178 142.566 38.7317 142.731 38.2553H145.441C145.179 39.5531 144.53 40.5388 143.495 41.2124C142.476 41.8859 141.236 42.2227 139.774 42.2227ZM139.65 30.9857C139.043 30.9857 138.476 31.0925 137.95 31.306C137.424 31.5196 136.997 31.8564 136.669 32.3164C136.34 32.7764 136.159 33.3924 136.127 34.1646H142.977C142.961 33.3432 142.805 32.7024 142.509 32.2424C142.213 31.7824 141.819 31.4621 141.326 31.2814C140.833 31.0842 140.275 30.9857 139.65 30.9857Z" fill="#1F1F1F"/>
</svg>
