<svg width="1440" height="715" viewBox="0 0 1440 715" fill="none" xmlns="http://www.w3.org/2000/svg">
<line y1="-0.5" x2="1439.24" y2="-0.5" transform="matrix(0 1 1 0 720.205 0.0548096)" stroke="#DFDFDF"/>
<path d="M719.705 718.919C719.705 374.339 440.955 95.0026 97.1025 95.0026C-246.75 95.0026 -525.5 374.339 -525.5 718.919C-525.5 1063.5 -246.75 1342.83 97.1025 1342.83C440.955 1342.83 719.705 1063.5 719.705 718.919Z" stroke="#DFDFDF"/>
<path d="M1965.91 718.919C1965.91 374.339 1687.16 95.0026 1343.31 95.0026C999.453 95.0026 720.703 374.339 720.703 718.919C720.703 1063.5 999.453 1342.83 1343.31 1342.83C1687.16 1342.83 1965.91 1063.5 1965.91 718.919Z" stroke="#DFDFDF"/>
<circle cx="719.621" cy="719.621" r="719.121" transform="matrix(0 -1 -1 0 1441.14 1439.24)" stroke="#DFDFDF"/>
<circle cx="8.22424" cy="8.22424" r="7.72424" transform="matrix(0 -1 -1 0 591.315 338.889)" fill="#1F1F1F" stroke="#DFDFDF"/>
<path d="M720 131.573L1436.1 847.671" stroke="#DFDFDF" stroke-dasharray="73.45 73.45"/>
<path d="M720.101 131.573L4.00023 847.671" stroke="#DFDFDF" stroke-dasharray="73.45 73.45"/>
<line y1="-0.5" x2="1438.03" y2="-0.5" transform="matrix(1 0 0 -1 -16.582 131.372)" stroke="#DFDFDF" stroke-dasharray="73.45 73.45"/>
<circle cx="8.22424" cy="8.22424" r="7.72424" transform="matrix(0 -1 -1 0 868.475 338.889)" fill="#1F1F1F" stroke="#DFDFDF"/>
</svg>
