<svg width="652" height="440" viewBox="0 0 652 440" fill="none" xmlns="http://www.w3.org/2000/svg">
<path d="M23.3828 40.25V22C23.3828 14 30.3828 14 37.3828 14H58.3828V18.25H37.8828C34.3828 18.25 30.8828 18.25 30.8828 22.25V26.5H48.8828C54.8828 26.5 60.8828 26.5 60.8828 33.25V40.25C60.8828 47 54.8828 47 48.8828 47H35.3828C29.3828 47 23.3828 47 23.3828 40.25ZM30.8828 41C30.8828 42.75 32.3828 42.75 33.8828 42.75H50.3828C51.8828 42.75 53.3828 42.75 53.3828 41V32.5C53.3828 30.75 51.8828 30.75 50.3828 30.75H33.8828C32.3828 30.75 30.8828 30.75 30.8828 32.5V41ZM64.3887 40.25V33.5C64.3887 30.5 66.3887 29 68.3887 28.5C66.3887 28 64.3887 26.5 64.3887 23.5V20.75C64.3887 14 70.3887 14 76.3887 14H89.8887C95.8887 14 101.889 14 101.889 20.75V23.5C101.889 26.5 99.8887 28 97.8887 28.5C99.8887 29 101.889 30.5 101.889 33.5V40.25C101.889 47 95.8887 47 89.8887 47H76.3887C70.3887 47 64.3887 47 64.3887 40.25ZM71.8887 41C71.8887 42.75 73.3887 42.75 74.8887 42.75H91.3887C92.8887 42.75 94.3887 42.75 94.3887 41V32.5C94.3887 30.75 92.8887 30.75 91.3887 30.75H74.8887C73.3887 30.75 71.8887 30.75 71.8887 32.5V41ZM71.8887 24.75C71.8887 26.5 73.3887 26.5 74.8887 26.5H91.3887C92.8887 26.5 94.3887 26.5 94.3887 24.75V20C94.3887 18.25 92.8887 18.25 91.3887 18.25H74.8887C73.3887 18.25 71.8887 18.25 71.8887 20V24.75Z" fill="#1F1F1F"/>
<path d="M129.88 30.48V26C129.88 23.48 132.12 23.48 134.36 23.48H137.16C139.4 23.48 141.64 23.48 141.64 26V30.48C141.64 33 139.4 33 137.16 33H134.36C132.12 33 129.88 33 129.88 30.48ZM133.24 30.62C133.24 31.32 133.8 31.32 134.36 31.32H137.16C137.72 31.32 138.28 31.32 138.28 30.62V25.86C138.28 25.16 137.72 25.16 137.16 25.16H134.36C133.8 25.16 133.24 25.16 133.24 25.86V30.62ZM111.68 21.52V17.04C111.68 14.52 113.92 14.52 116.16 14.52H118.96C121.2 14.52 123.44 14.52 123.44 17.04V21.52C123.44 24.04 121.2 24.04 118.96 24.04H116.16C113.92 24.04 111.68 24.04 111.68 21.52ZM115.04 21.66C115.04 22.36 115.6 22.36 116.16 22.36H118.96C119.52 22.36 120.08 22.36 120.08 21.66V16.9C120.08 16.2 119.52 16.2 118.96 16.2H116.16C115.6 16.2 115.04 16.2 115.04 16.9V21.66ZM120.36 33L129.6 14.52H132.96L123.72 33H120.36Z" fill="#1F1F1F"/>
<path d="M343.043 30.48V26C343.043 23.48 345.283 23.48 347.523 23.48H350.323C352.563 23.48 354.803 23.48 354.803 26V30.48C354.803 33 352.563 33 350.323 33H347.523C345.283 33 343.043 33 343.043 30.48ZM346.403 30.62C346.403 31.32 346.963 31.32 347.523 31.32H350.323C350.883 31.32 351.443 31.32 351.443 30.62V25.86C351.443 25.16 350.883 25.16 350.323 25.16H347.523C346.963 25.16 346.403 25.16 346.403 25.86V30.62ZM324.843 21.52V17.04C324.843 14.52 327.083 14.52 329.323 14.52H332.123C334.363 14.52 336.603 14.52 336.603 17.04V21.52C336.603 24.04 334.363 24.04 332.123 24.04H329.323C327.083 24.04 324.843 24.04 324.843 21.52ZM328.203 21.66C328.203 22.36 328.763 22.36 329.323 22.36H332.123C332.683 22.36 333.243 22.36 333.243 21.66V16.9C333.243 16.2 332.683 16.2 332.123 16.2H329.323C328.763 16.2 328.203 16.2 328.203 16.9V21.66ZM333.523 33L342.763 14.52H346.123L336.883 33H333.523Z" fill="#1F1F1F"/>
<path d="M602.066 30.48V26C602.066 23.48 604.306 23.48 606.546 23.48H609.346C611.586 23.48 613.826 23.48 613.826 26V30.48C613.826 33 611.586 33 609.346 33H606.546C604.306 33 602.066 33 602.066 30.48ZM605.426 30.62C605.426 31.32 605.986 31.32 606.546 31.32H609.346C609.906 31.32 610.466 31.32 610.466 30.62V25.86C610.466 25.16 609.906 25.16 609.346 25.16H606.546C605.986 25.16 605.426 25.16 605.426 25.86V30.62ZM583.866 21.52V17.04C583.866 14.52 586.106 14.52 588.346 14.52H591.146C593.386 14.52 595.626 14.52 595.626 17.04V21.52C595.626 24.04 593.386 24.04 591.146 24.04H588.346C586.106 24.04 583.866 24.04 583.866 21.52ZM587.226 21.66C587.226 22.36 587.786 22.36 588.346 22.36H591.146C591.706 22.36 592.266 22.36 592.266 21.66V16.9C592.266 16.2 591.706 16.2 591.146 16.2H588.346C587.786 16.2 587.226 16.2 587.226 16.9V21.66ZM592.546 33L601.786 14.52H605.146L595.906 33H592.546Z" fill="#1F1F1F"/>
<path d="M236.546 40.25V33.5C236.546 30.5 238.546 29 240.546 28.5C238.546 28 236.546 26.5 236.546 23.5V20.75C236.546 14 242.546 14 248.546 14H262.046C268.046 14 274.046 14 274.046 20.75V23.5C274.046 26.5 272.046 28 270.046 28.5C272.046 29 274.046 30.5 274.046 33.5V40.25C274.046 47 268.046 47 262.046 47H248.546C242.546 47 236.546 47 236.546 40.25ZM244.046 41C244.046 42.75 245.546 42.75 247.046 42.75H263.546C265.046 42.75 266.546 42.75 266.546 41V32.5C266.546 30.75 265.046 30.75 263.546 30.75H247.046C245.546 30.75 244.046 30.75 244.046 32.5V41ZM244.046 24.75C244.046 26.5 245.546 26.5 247.046 26.5H263.546C265.046 26.5 266.546 26.5 266.546 24.75V20C266.546 18.25 265.046 18.25 263.546 18.25H247.046C245.546 18.25 244.046 18.25 244.046 20V24.75ZM279.052 47V42.75H304.552C306.052 42.75 307.552 42.75 307.552 41V32.5C307.552 30.75 306.052 30.75 304.552 30.75H283.552V26.5H304.552C306.052 26.5 307.552 26.5 307.552 24.75V20C307.552 18.25 306.052 18.25 304.552 18.25H279.052V14H303.052C309.052 14 315.052 14 315.052 20.75V23.5C315.052 26.5 313.052 28 311.052 28.5C313.052 29 315.052 30.5 315.052 33.5V40.25C315.052 47 309.052 47 303.052 47H279.052Z" fill="#1F1F1F"/>
<path d="M497.068 47V42.75H522.568C524.068 42.75 525.568 42.75 525.568 41V32.5C525.568 30.75 524.068 30.75 522.568 30.75H501.568V26.5H522.568C524.068 26.5 525.568 26.5 525.568 24.75V20C525.568 18.25 524.068 18.25 522.568 18.25H497.068V14H521.068C527.068 14 533.068 14 533.068 20.75V23.5C533.068 26.5 531.068 28 529.068 28.5C531.068 29 533.068 30.5 533.068 33.5V40.25C533.068 47 527.068 47 521.068 47H497.068ZM536.574 40.25V22C536.574 14 543.574 14 550.574 14H571.574V18.25H551.074C547.574 18.25 544.074 18.25 544.074 22.25V26.5H562.074C568.074 26.5 574.074 26.5 574.074 33.25V40.25C574.074 47 568.074 47 562.074 47H548.574C542.574 47 536.574 47 536.574 40.25ZM544.074 41C544.074 42.75 545.574 42.75 547.074 42.75H563.574C565.074 42.75 566.574 42.75 566.574 41V32.5C566.574 30.75 565.074 30.75 563.574 30.75H547.074C545.574 30.75 544.074 30.75 544.074 32.5V41Z" fill="#1F1F1F"/>
<path d="M24.3906 75.1875C23.5781 75.1875 22.875 74.9948 22.2812 74.6094C21.6927 74.2188 21.237 73.6849 20.9141 73.0078C20.5964 72.3307 20.4375 71.5573 20.4375 70.6875C20.4375 69.7969 20.6016 69.013 20.9297 68.3359C21.2578 67.6536 21.7161 67.1198 22.3047 66.7344C22.8984 66.349 23.5885 66.1562 24.375 66.1562C24.9896 66.1562 25.5417 66.2708 26.0312 66.5C26.526 66.724 26.9297 67.0417 27.2422 67.4531C27.5599 67.8646 27.7552 68.3438 27.8281 68.8906H26.4844C26.4167 68.625 26.2943 68.375 26.1172 68.1406C25.9401 67.9062 25.7057 67.7188 25.4141 67.5781C25.1276 67.4323 24.7865 67.3594 24.3906 67.3594C23.8698 67.3594 23.4141 67.4948 23.0234 67.7656C22.6328 68.0365 22.3281 68.4193 22.1094 68.9141C21.8906 69.4036 21.7812 69.9792 21.7812 70.6406C21.7812 71.3125 21.888 71.901 22.1016 72.4062C22.3151 72.9062 22.6172 73.2943 23.0078 73.5703C23.4036 73.8464 23.8646 73.9844 24.3906 73.9844C24.9167 73.9844 25.3672 73.849 25.7422 73.5781C26.1172 73.3021 26.3646 72.9271 26.4844 72.4531H27.8281C27.7552 72.9688 27.5677 73.4323 27.2656 73.8438C26.9688 74.2552 26.5755 74.5833 26.0859 74.8281C25.6016 75.0677 25.0365 75.1875 24.3906 75.1875ZM27.9688 67.5156V66.2656H35.0469V67.5156H32.1875V75H30.8438V67.5156H27.9688ZM38.375 75.2031C37.8229 75.2031 37.3203 75.099 36.8672 74.8906C36.4141 74.6771 36.0547 74.3698 35.7891 73.9688C35.5234 73.5677 35.3906 73.0833 35.3906 72.5156C35.3906 72.0156 35.4896 71.612 35.6875 71.3047C35.8854 70.9922 36.1484 70.7474 36.4766 70.5703C36.8099 70.388 37.1745 70.2526 37.5703 70.1641C37.9714 70.0755 38.375 70.0052 38.7812 69.9531C39.3125 69.8854 39.7422 69.8333 40.0703 69.7969C40.4036 69.7604 40.6458 69.6979 40.7969 69.6094C40.9531 69.5208 41.0312 69.3698 41.0312 69.1562V69.1094C41.0312 68.5521 40.8776 68.1198 40.5703 67.8125C40.2682 67.5 39.8073 67.3438 39.1875 67.3438C38.5521 67.3438 38.0521 67.4844 37.6875 67.7656C37.3229 68.0417 37.0677 68.3385 36.9219 68.6562L35.6406 68.2031C35.8698 67.6719 36.1745 67.2578 36.5547 66.9609C36.9401 66.6641 37.3568 66.4557 37.8047 66.3359C38.2578 66.2161 38.7031 66.1562 39.1406 66.1562C39.4219 66.1562 39.7448 66.1901 40.1094 66.2578C40.474 66.3203 40.8281 66.4557 41.1719 66.6641C41.5208 66.8672 41.8073 67.1771 42.0312 67.5938C42.2604 68.0052 42.375 68.5573 42.375 69.25V75H41.0312V73.8125H40.9688C40.8802 74 40.7292 74.2031 40.5156 74.4219C40.3021 74.6354 40.0182 74.8203 39.6641 74.9766C39.3151 75.1276 38.8854 75.2031 38.375 75.2031ZM38.5781 74C39.1094 74 39.5573 73.8958 39.9219 73.6875C40.2865 73.4792 40.5625 73.2109 40.75 72.8828C40.9375 72.5495 41.0312 72.2031 41.0312 71.8438V70.6094C40.974 70.6771 40.849 70.7396 40.6562 70.7969C40.4688 70.849 40.25 70.8958 40 70.9375C39.7552 70.9792 39.5156 71.0156 39.2812 71.0469C39.0469 71.0729 38.8594 71.0938 38.7188 71.1094C38.3698 71.1562 38.0443 71.2318 37.7422 71.3359C37.4401 71.4349 37.1953 71.5833 37.0078 71.7812C36.8255 71.9792 36.7344 72.25 36.7344 72.5938C36.7344 73.0573 36.9062 73.4089 37.25 73.6484C37.599 73.8828 38.0417 74 38.5781 74ZM43.3125 75V73.75H43.625C43.9792 73.75 44.2552 73.6536 44.4531 73.4609C44.651 73.263 44.7969 72.9036 44.8906 72.3828C44.9896 71.862 45.0573 71.1146 45.0938 70.1406L45.25 66.2656H51.0625V75H49.7188V67.5156H46.5156L46.375 70.6406C46.3438 71.3542 46.2812 71.9844 46.1875 72.5312C46.0938 73.0729 45.9479 73.5286 45.75 73.8984C45.5573 74.263 45.2995 74.5391 44.9766 74.7266C44.6536 74.9089 44.25 75 43.7656 75H43.3125ZM52.7812 75V66.2656H54.1094V70.0625H55L58.1406 66.2656H59.8594L56.3438 70.4844L59.9062 75H58.1875L55.3125 71.3125H54.1094V75H52.7812ZM61.9375 73.0156L66.1406 66.2656H67.6875V75H66.3594V68.25L62.1719 75H60.6094V66.2656H61.9375V73.0156ZM69.4062 75V66.2656H72.9688C73.9062 66.2708 74.651 66.487 75.2031 66.9141C75.7604 67.3359 76.0365 67.8958 76.0312 68.5938C76.0365 69.125 75.8802 69.5339 75.5625 69.8203C75.25 70.1068 74.849 70.3021 74.3594 70.4062C74.6771 70.4531 74.987 70.5677 75.2891 70.75C75.5964 70.9323 75.8516 71.1823 76.0547 71.5C76.2578 71.8125 76.3594 72.1979 76.3594 72.6562C76.3594 73.1042 76.2448 73.5052 76.0156 73.8594C75.7865 74.2135 75.4609 74.4922 75.0391 74.6953C74.6172 74.8984 74.1094 75 73.5156 75H69.4062ZM70.6719 73.7656H73.5156C73.974 73.7708 74.3333 73.6641 74.5938 73.4453C74.8594 73.2266 74.9896 72.9271 74.9844 72.5469C74.9896 72.0938 74.8594 71.7396 74.5938 71.4844C74.3333 71.224 73.974 71.0938 73.5156 71.0938H70.6719V73.7656ZM70.6719 69.9375H72.9688C73.5052 69.9323 73.9271 69.8203 74.2344 69.6016C74.5417 69.3776 74.6927 69.0729 74.6875 68.6875C74.6927 68.3177 74.5417 68.0286 74.2344 67.8203C73.9271 67.6068 73.5052 67.5 72.9688 67.5H70.6719V69.9375ZM80.2031 75.2031C79.651 75.2031 79.1484 75.099 78.6953 74.8906C78.2422 74.6771 77.8828 74.3698 77.6172 73.9688C77.3516 73.5677 77.2188 73.0833 77.2188 72.5156C77.2188 72.0156 77.3177 71.612 77.5156 71.3047C77.7135 70.9922 77.9766 70.7474 78.3047 70.5703C78.638 70.388 79.0026 70.2526 79.3984 70.1641C79.7995 70.0755 80.2031 70.0052 80.6094 69.9531C81.1406 69.8854 81.5703 69.8333 81.8984 69.7969C82.2318 69.7604 82.474 69.6979 82.625 69.6094C82.7812 69.5208 82.8594 69.3698 82.8594 69.1562V69.1094C82.8594 68.5521 82.7057 68.1198 82.3984 67.8125C82.0964 67.5 81.6354 67.3438 81.0156 67.3438C80.3802 67.3438 79.8802 67.4844 79.5156 67.7656C79.151 68.0417 78.8958 68.3385 78.75 68.6562L77.4688 68.2031C77.6979 67.6719 78.0026 67.2578 78.3828 66.9609C78.7682 66.6641 79.1849 66.4557 79.6328 66.3359C80.0859 66.2161 80.5312 66.1562 80.9688 66.1562C81.25 66.1562 81.5729 66.1901 81.9375 66.2578C82.3021 66.3203 82.6562 66.4557 83 66.6641C83.349 66.8672 83.6354 67.1771 83.8594 67.5938C84.0885 68.0052 84.2031 68.5573 84.2031 69.25V75H82.8594V73.8125H82.7969C82.7083 74 82.5573 74.2031 82.3438 74.4219C82.1302 74.6354 81.8464 74.8203 81.4922 74.9766C81.1432 75.1276 80.7135 75.2031 80.2031 75.2031ZM80.4062 74C80.9375 74 81.3854 73.8958 81.75 73.6875C82.1146 73.4792 82.3906 73.2109 82.5781 72.8828C82.7656 72.5495 82.8594 72.2031 82.8594 71.8438V70.6094C82.8021 70.6771 82.6771 70.7396 82.4844 70.7969C82.2969 70.849 82.0781 70.8958 81.8281 70.9375C81.5833 70.9792 81.3438 71.0156 81.1094 71.0469C80.875 71.0729 80.6875 71.0938 80.5469 71.1094C80.1979 71.1562 79.8724 71.2318 79.5703 71.3359C79.2682 71.4349 79.0234 71.5833 78.8359 71.7812C78.6536 71.9792 78.5625 72.25 78.5625 72.5938C78.5625 73.0573 78.7344 73.4089 79.0781 73.6484C79.4271 73.8828 79.8698 74 80.4062 74ZM90.0938 70.0938V71.3438H85.4844V70.0938H90.0938ZM86.625 66.2656V75H85.2812V66.2656H86.625ZM92.7812 75.1875C91.9948 75.1823 91.3021 74.9922 90.7031 74.6172C90.1094 74.2422 89.6484 73.7188 89.3203 73.0469C88.9922 72.3698 88.8281 71.5833 88.8281 70.6875C88.8281 69.776 88.9922 68.9818 89.3203 68.3047C89.6484 67.6224 90.1094 67.0938 90.7031 66.7188C91.3021 66.3438 91.9948 66.1562 92.7812 66.1562C93.5677 66.1562 94.2578 66.3438 94.8516 66.7188C95.4453 67.0938 95.9062 67.6224 96.2344 68.3047C96.5677 68.9818 96.7344 69.776 96.7344 70.6875C96.7344 71.5833 96.5677 72.3698 96.2344 73.0469C95.9062 73.7188 95.4453 74.2422 94.8516 74.6172C94.2578 74.9922 93.5677 75.1823 92.7812 75.1875ZM92.7812 73.9844C93.3802 73.9792 93.8698 73.8229 94.25 73.5156C94.6354 73.2083 94.9219 72.8047 95.1094 72.3047C95.2969 71.8047 95.3906 71.2656 95.3906 70.6875C95.3906 70.099 95.2969 69.5547 95.1094 69.0547C94.9219 68.5495 94.6354 68.1406 94.25 67.8281C93.8698 67.5156 93.3802 67.3594 92.7812 67.3594C92.1823 67.3594 91.6901 67.5156 91.3047 67.8281C90.9193 68.1406 90.6328 68.5495 90.4453 69.0547C90.263 69.5547 90.1719 70.099 90.1719 70.6875C90.1719 71.2656 90.263 71.8047 90.4453 72.3047C90.6328 72.8047 90.9193 73.2083 91.3047 73.5156C91.6901 73.8229 92.1823 73.9792 92.7812 73.9844ZM97.0469 67.5156V66.2656H104.125V67.5156H101.266V75H99.9219V67.5156H97.0469ZM108.422 75.1875C107.609 75.1875 106.906 74.9948 106.312 74.6094C105.724 74.2188 105.268 73.6849 104.945 73.0078C104.628 72.3307 104.469 71.5573 104.469 70.6875C104.469 69.7969 104.633 69.013 104.961 68.3359C105.289 67.6536 105.747 67.1198 106.336 66.7344C106.93 66.349 107.62 66.1562 108.406 66.1562C109.021 66.1562 109.573 66.2708 110.062 66.5C110.557 66.724 110.961 67.0417 111.273 67.4531C111.591 67.8646 111.786 68.3438 111.859 68.8906H110.516C110.448 68.625 110.326 68.375 110.148 68.1406C109.971 67.9062 109.737 67.7188 109.445 67.5781C109.159 67.4323 108.818 67.3594 108.422 67.3594C107.901 67.3594 107.445 67.4948 107.055 67.7656C106.664 68.0365 106.359 68.4193 106.141 68.9141C105.922 69.4036 105.812 69.9792 105.812 70.6406C105.812 71.3125 105.919 71.901 106.133 72.4062C106.346 72.9062 106.648 73.2943 107.039 73.5703C107.435 73.8464 107.896 73.9844 108.422 73.9844C108.948 73.9844 109.398 73.849 109.773 73.5781C110.148 73.3021 110.396 72.9271 110.516 72.4531H111.859C111.786 72.9688 111.599 73.4323 111.297 73.8438C111 74.2552 110.607 74.5833 110.117 74.8281C109.633 75.0677 109.068 75.1875 108.422 75.1875ZM118.375 75V67.5H116.047C115.526 67.5 115.115 67.6224 114.812 67.8672C114.516 68.1068 114.37 68.4375 114.375 68.8594C114.37 69.276 114.503 69.6042 114.773 69.8438C115.044 70.0833 115.417 70.2031 115.891 70.2031H118.703V71.4531H115.891C115.297 71.4531 114.786 71.349 114.359 71.1406C113.932 70.9323 113.604 70.6354 113.375 70.25C113.146 69.8594 113.031 69.3958 113.031 68.8594C113.031 68.3229 113.151 67.862 113.391 67.4766C113.635 67.0911 113.982 66.7943 114.43 66.5859C114.883 66.3724 115.422 66.2656 116.047 66.2656H119.641V75H118.375ZM112.547 75L115.031 70.6562H116.484L114 75H112.547ZM24.3906 94.1875C23.5781 94.1875 22.875 93.9948 22.2812 93.6094C21.6927 93.2188 21.237 92.6849 20.9141 92.0078C20.5964 91.3307 20.4375 90.5573 20.4375 89.6875C20.4375 88.7969 20.6016 88.013 20.9297 87.3359C21.2578 86.6536 21.7161 86.1198 22.3047 85.7344C22.8984 85.349 23.5885 85.1562 24.375 85.1562C24.9896 85.1562 25.5417 85.2708 26.0312 85.5C26.526 85.724 26.9297 86.0417 27.2422 86.4531C27.5599 86.8646 27.7552 87.3438 27.8281 87.8906H26.4844C26.4167 87.625 26.2943 87.375 26.1172 87.1406C25.9401 86.9062 25.7057 86.7188 25.4141 86.5781C25.1276 86.4323 24.7865 86.3594 24.3906 86.3594C23.8698 86.3594 23.4141 86.4948 23.0234 86.7656C22.6328 87.0365 22.3281 87.4193 22.1094 87.9141C21.8906 88.4036 21.7812 88.9792 21.7812 89.6406C21.7812 90.3125 21.888 90.901 22.1016 91.4062C22.3151 91.9062 22.6172 92.2943 23.0078 92.5703C23.4036 92.8464 23.8646 92.9844 24.3906 92.9844C24.9167 92.9844 25.3672 92.849 25.7422 92.5781C26.1172 92.3021 26.3646 91.9271 26.4844 91.4531H27.8281C27.7552 91.9688 27.5677 92.4323 27.2656 92.8438C26.9688 93.2552 26.5755 93.5833 26.0859 93.8281C25.6016 94.0677 25.0365 94.1875 24.3906 94.1875ZM32.8438 94V85.2656H39.7031V94H38.3594V86.5156H34.1719V94H32.8438ZM44.9531 94.1875C44.1667 94.1875 43.4766 94 42.8828 93.625C42.2891 93.25 41.8255 92.724 41.4922 92.0469C41.1641 91.3698 41 90.5833 41 89.6875C41 88.776 41.1641 87.9818 41.4922 87.3047C41.8255 86.6224 42.2891 86.0938 42.8828 85.7188C43.4766 85.3438 44.1667 85.1562 44.9531 85.1562C45.7448 85.1562 46.4375 85.3438 47.0312 85.7188C47.625 86.0938 48.0885 86.6224 48.4219 87.3047C48.7552 87.9818 48.9219 88.776 48.9219 89.6875C48.9219 90.5833 48.7552 91.3698 48.4219 92.0469C48.0885 92.724 47.625 93.25 47.0312 93.625C46.4375 94 45.7448 94.1875 44.9531 94.1875ZM44.9531 92.9844C45.5573 92.9844 46.0521 92.8307 46.4375 92.5234C46.8229 92.2161 47.1094 91.8125 47.2969 91.3125C47.4844 90.8073 47.5781 90.2656 47.5781 89.6875C47.5781 89.099 47.4844 88.5521 47.2969 88.0469C47.1094 87.5417 46.8229 87.1354 46.4375 86.8281C46.0521 86.5156 45.5573 86.3594 44.9531 86.3594C44.3594 86.3594 43.8698 86.5156 43.4844 86.8281C43.099 87.1354 42.8125 87.5417 42.625 88.0469C42.4375 88.5521 42.3438 89.099 42.3438 89.6875C42.3438 90.2656 42.4375 90.8073 42.625 91.3125C42.8125 91.8125 43.099 92.2161 43.4844 92.5234C43.8698 92.8307 44.3594 92.9844 44.9531 92.9844ZM49.4375 94V92.75H49.75C50.1042 92.75 50.3802 92.6536 50.5781 92.4609C50.776 92.263 50.9219 91.9036 51.0156 91.3828C51.1146 90.862 51.1823 90.1146 51.2188 89.1406L51.375 85.2656H57.1875V94H55.8438V86.5156H52.6406L52.5 89.6406C52.4688 90.3542 52.4062 90.9844 52.3125 91.5312C52.2188 92.0729 52.0729 92.5286 51.875 92.8984C51.6823 93.263 51.4245 93.5391 51.1016 93.7266C50.7786 93.9089 50.375 94 49.8906 94H49.4375ZM62.4375 94.1875C61.651 94.1875 60.9609 94 60.3672 93.625C59.7734 93.25 59.3099 92.724 58.9766 92.0469C58.6484 91.3698 58.4844 90.5833 58.4844 89.6875C58.4844 88.776 58.6484 87.9818 58.9766 87.3047C59.3099 86.6224 59.7734 86.0938 60.3672 85.7188C60.9609 85.3438 61.651 85.1562 62.4375 85.1562C63.2292 85.1562 63.9219 85.3438 64.5156 85.7188C65.1094 86.0938 65.5729 86.6224 65.9062 87.3047C66.2396 87.9818 66.4062 88.776 66.4062 89.6875C66.4062 90.5833 66.2396 91.3698 65.9062 92.0469C65.5729 92.724 65.1094 93.25 64.5156 93.625C63.9219 94 63.2292 94.1875 62.4375 94.1875ZM62.4375 92.9844C63.0417 92.9844 63.5365 92.8307 63.9219 92.5234C64.3073 92.2161 64.5938 91.8125 64.7812 91.3125C64.9688 90.8073 65.0625 90.2656 65.0625 89.6875C65.0625 89.099 64.9688 88.5521 64.7812 88.0469C64.5938 87.5417 64.3073 87.1354 63.9219 86.8281C63.5365 86.5156 63.0417 86.3594 62.4375 86.3594C61.8438 86.3594 61.3542 86.5156 60.9688 86.8281C60.5833 87.1354 60.2969 87.5417 60.1094 88.0469C59.9219 88.5521 59.8281 89.099 59.8281 89.6875C59.8281 90.2656 59.9219 90.8073 60.1094 91.3125C60.2969 91.8125 60.5833 92.2161 60.9688 92.5234C61.3542 92.8307 61.8438 92.9844 62.4375 92.9844ZM72.4688 92.1875L75.5156 85.2656H76.7812L73.0156 94H71.9219L68.2188 85.2656H69.4688L72.4688 92.1875ZM69.0312 85.2656V94H67.7031V85.2656H69.0312ZM75.9062 94V85.2656H77.2344V94H75.9062ZM78.9531 94V85.2656H80.2812V89.0625H81.1719L84.3125 85.2656H86.0312L82.5156 89.4844L86.0781 94H84.3594L81.4844 90.3125H80.2812V94H78.9531ZM89.3438 94.2031C88.7917 94.2031 88.2891 94.099 87.8359 93.8906C87.3828 93.6771 87.0234 93.3698 86.7578 92.9688C86.4922 92.5677 86.3594 92.0833 86.3594 91.5156C86.3594 91.0156 86.4583 90.612 86.6562 90.3047C86.8542 89.9922 87.1172 89.7474 87.4453 89.5703C87.7786 89.388 88.1432 89.2526 88.5391 89.1641C88.9401 89.0755 89.3438 89.0052 89.75 88.9531C90.2812 88.8854 90.7109 88.8333 91.0391 88.7969C91.3724 88.7604 91.6146 88.6979 91.7656 88.6094C91.9219 88.5208 92 88.3698 92 88.1562V88.1094C92 87.5521 91.8464 87.1198 91.5391 86.8125C91.237 86.5 90.776 86.3438 90.1562 86.3438C89.5208 86.3438 89.0208 86.4844 88.6562 86.7656C88.2917 87.0417 88.0365 87.3385 87.8906 87.6562L86.6094 87.2031C86.8385 86.6719 87.1432 86.2578 87.5234 85.9609C87.9089 85.6641 88.3255 85.4557 88.7734 85.3359C89.2266 85.2161 89.6719 85.1562 90.1094 85.1562C90.3906 85.1562 90.7135 85.1901 91.0781 85.2578C91.4427 85.3203 91.7969 85.4557 92.1406 85.6641C92.4896 85.8672 92.776 86.1771 93 86.5938C93.2292 87.0052 93.3438 87.5573 93.3438 88.25V94H92V92.8125H91.9375C91.849 93 91.6979 93.2031 91.4844 93.4219C91.2708 93.6354 90.987 93.8203 90.6328 93.9766C90.2839 94.1276 89.8542 94.2031 89.3438 94.2031ZM89.5469 93C90.0781 93 90.526 92.8958 90.8906 92.6875C91.2552 92.4792 91.5312 92.2109 91.7188 91.8828C91.9062 91.5495 92 91.2031 92 90.8438V89.6094C91.9427 89.6771 91.8177 89.7396 91.625 89.7969C91.4375 89.849 91.2188 89.8958 90.9688 89.9375C90.724 89.9792 90.4844 90.0156 90.25 90.0469C90.0156 90.0729 89.8281 90.0938 89.6875 90.1094C89.3385 90.1562 89.013 90.2318 88.7109 90.3359C88.4089 90.4349 88.1641 90.5833 87.9766 90.7812C87.7943 90.9792 87.7031 91.25 87.7031 91.5938C87.7031 92.0573 87.875 92.4089 88.2188 92.6484C88.5677 92.8828 89.0104 93 89.5469 93ZM99.8281 92.1875L102.875 85.2656H104.141L100.375 94H99.2812L95.5781 85.2656H96.8281L99.8281 92.1875ZM96.3906 85.2656V94H95.0625V85.2656H96.3906ZM103.266 94V85.2656H104.594V94H103.266ZM107.641 92.0156L111.844 85.2656H113.391V94H112.062V87.25L107.875 94H106.312V85.2656H107.641V92.0156ZM123.625 92.1875L126.672 85.2656H127.938L124.172 94H123.078L119.375 85.2656H120.625L123.625 92.1875ZM120.188 85.2656V94H118.859V85.2656H120.188ZM127.062 94V85.2656H128.391V94H127.062ZM131.438 92.0156L135.641 85.2656H137.188V94H135.859V87.25L131.672 94H130.109V85.2656H131.438V92.0156ZM144.734 89.0156V90.2656H139.922V89.0156H144.734ZM140.234 85.2656V94H138.906V85.2656H140.234ZM145.766 85.2656V94H144.422V85.2656H145.766ZM148.812 92.0156L153.016 85.2656H154.562V94H153.234V87.25L149.047 94H147.484V85.2656H148.812V92.0156ZM161.047 92.1875L164.094 85.2656H165.359L161.594 94H160.5L156.797 85.2656H158.047L161.047 92.1875ZM157.609 85.2656V94H156.281V85.2656H157.609ZM164.484 94V85.2656H165.812V94H164.484ZM168.078 97.2656C167.849 97.2708 167.646 97.2552 167.469 97.2188C167.292 97.1823 167.167 97.1458 167.094 97.1094L167.438 95.9375L167.57 95.9688C168.018 96.0729 168.393 96.0495 168.695 95.8984C169.003 95.7526 169.271 95.3646 169.5 94.7344L169.75 94.0469L166.531 85.2656H167.984L170.391 92.2344H170.484L172.891 85.2656H174.344L170.641 95.2656C170.474 95.7188 170.268 96.0938 170.023 96.3906C169.779 96.6875 169.495 96.9062 169.172 97.0469C168.849 97.1927 168.484 97.2656 168.078 97.2656ZM180.141 92.1875L183.188 85.2656H184.453L180.688 94H179.594L175.891 85.2656H177.141L180.141 92.1875ZM176.703 85.2656V94H175.375V85.2656H176.703ZM183.578 94V85.2656H184.906V94H183.578ZM20.8594 116.266V104.266H22.1406V105.656H22.2969C22.3958 105.505 22.5339 105.312 22.7109 105.078C22.888 104.839 23.1432 104.625 23.4766 104.438C23.8099 104.25 24.2604 104.156 24.8281 104.156C25.5625 104.156 26.2083 104.341 26.7656 104.711C27.3229 105.076 27.7578 105.596 28.0703 106.273C28.388 106.945 28.5469 107.74 28.5469 108.656C28.5469 109.578 28.3906 110.38 28.0781 111.062C27.7656 111.74 27.3307 112.263 26.7734 112.633C26.2161 113.003 25.5729 113.188 24.8438 113.188C24.2865 113.188 23.8385 113.094 23.5 112.906C23.1615 112.714 22.901 112.497 22.7188 112.258C22.5365 112.013 22.3958 111.812 22.2969 111.656H22.1875V116.266H20.8594ZM24.6719 111.984C25.2292 111.984 25.6953 111.836 26.0703 111.539C26.4453 111.237 26.7266 110.833 26.9141 110.328C27.1068 109.823 27.2031 109.26 27.2031 108.641C27.2031 108.026 27.1094 107.471 26.9219 106.977C26.7344 106.482 26.4531 106.089 26.0781 105.797C25.7083 105.505 25.2396 105.359 24.6719 105.359C24.125 105.359 23.6667 105.497 23.2969 105.773C22.9271 106.044 22.6458 106.427 22.4531 106.922C22.2656 107.411 22.1719 107.984 22.1719 108.641C22.1719 109.297 22.2682 109.878 22.4609 110.383C22.6536 110.883 22.9349 111.276 23.3047 111.562C23.6797 111.844 24.1354 111.984 24.6719 111.984ZM32.4062 113.203C31.8542 113.203 31.3516 113.099 30.8984 112.891C30.4453 112.677 30.0859 112.37 29.8203 111.969C29.5547 111.568 29.4219 111.083 29.4219 110.516C29.4219 110.016 29.5208 109.612 29.7188 109.305C29.9167 108.992 30.1797 108.747 30.5078 108.57C30.8411 108.388 31.2057 108.253 31.6016 108.164C32.0026 108.076 32.4062 108.005 32.8125 107.953C33.3438 107.885 33.7734 107.833 34.1016 107.797C34.4349 107.76 34.6771 107.698 34.8281 107.609C34.9844 107.521 35.0625 107.37 35.0625 107.156V107.109C35.0625 106.552 34.9089 106.12 34.6016 105.812C34.2995 105.5 33.8385 105.344 33.2188 105.344C32.5833 105.344 32.0833 105.484 31.7188 105.766C31.3542 106.042 31.099 106.339 30.9531 106.656L29.6719 106.203C29.901 105.672 30.2057 105.258 30.5859 104.961C30.9714 104.664 31.388 104.456 31.8359 104.336C32.2891 104.216 32.7344 104.156 33.1719 104.156C33.4531 104.156 33.776 104.19 34.1406 104.258C34.5052 104.32 34.8594 104.456 35.2031 104.664C35.5521 104.867 35.8385 105.177 36.0625 105.594C36.2917 106.005 36.4062 106.557 36.4062 107.25V113H35.0625V111.812H35C34.9115 112 34.7604 112.203 34.5469 112.422C34.3333 112.635 34.0495 112.82 33.6953 112.977C33.3464 113.128 32.9167 113.203 32.4062 113.203ZM32.6094 112C33.1406 112 33.5885 111.896 33.9531 111.688C34.3177 111.479 34.5938 111.211 34.7812 110.883C34.9688 110.549 35.0625 110.203 35.0625 109.844V108.609C35.0052 108.677 34.8802 108.74 34.6875 108.797C34.5 108.849 34.2812 108.896 34.0312 108.938C33.7865 108.979 33.5469 109.016 33.3125 109.047C33.0781 109.073 32.8906 109.094 32.75 109.109C32.401 109.156 32.0755 109.232 31.7734 109.336C31.4714 109.435 31.2266 109.583 31.0391 109.781C30.8568 109.979 30.7656 110.25 30.7656 110.594C30.7656 111.057 30.9375 111.409 31.2812 111.648C31.6302 111.883 32.0729 112 32.6094 112ZM37.9531 110.766H39.375C39.4115 111.161 39.5938 111.464 39.9219 111.672C40.25 111.875 40.6771 111.979 41.2031 111.984C41.7396 111.979 42.1979 111.867 42.5781 111.648C42.9583 111.424 43.151 111.062 43.1562 110.562C43.1562 110.271 43.0833 110.018 42.9375 109.805C42.7917 109.586 42.5885 109.417 42.3281 109.297C42.0677 109.172 41.7604 109.109 41.4062 109.109H39.9062V107.906H41.4062C41.9375 107.906 42.3307 107.786 42.5859 107.547C42.8411 107.307 42.9688 107.005 42.9688 106.641C42.9688 106.25 42.8307 105.938 42.5547 105.703C42.2786 105.464 41.8854 105.344 41.375 105.344C40.8698 105.344 40.4453 105.458 40.1016 105.688C39.763 105.911 39.5833 106.203 39.5625 106.562H38.1562C38.1719 106.094 38.3151 105.68 38.5859 105.32C38.8568 104.956 39.2266 104.672 39.6953 104.469C40.1693 104.26 40.7083 104.156 41.3125 104.156C41.9271 104.156 42.4583 104.263 42.9062 104.477C43.3594 104.69 43.7109 104.982 43.9609 105.352C44.2109 105.716 44.3333 106.13 44.3281 106.594C44.3333 107.083 44.1953 107.482 43.9141 107.789C43.638 108.091 43.2917 108.307 42.875 108.438V108.516C43.2031 108.542 43.4896 108.648 43.7344 108.836C43.9844 109.023 44.1771 109.268 44.3125 109.57C44.4479 109.867 44.5156 110.198 44.5156 110.562C44.5156 111.094 44.3724 111.557 44.0859 111.953C43.8047 112.344 43.4167 112.646 42.9219 112.859C42.4271 113.073 41.8594 113.182 41.2188 113.188C40.599 113.182 40.0443 113.078 39.5547 112.875C39.0703 112.672 38.6849 112.391 38.3984 112.031C38.1172 111.667 37.9688 111.245 37.9531 110.766ZM49.0312 113V104.266H52.5938C53.5312 104.271 54.276 104.487 54.8281 104.914C55.3854 105.336 55.6615 105.896 55.6562 106.594C55.6615 107.125 55.5052 107.534 55.1875 107.82C54.875 108.107 54.474 108.302 53.9844 108.406C54.3021 108.453 54.612 108.568 54.9141 108.75C55.2214 108.932 55.4766 109.182 55.6797 109.5C55.8828 109.812 55.9844 110.198 55.9844 110.656C55.9844 111.104 55.8698 111.505 55.6406 111.859C55.4115 112.214 55.0859 112.492 54.6641 112.695C54.2422 112.898 53.7344 113 53.1406 113H49.0312ZM50.2969 111.766H53.1406C53.599 111.771 53.9583 111.664 54.2188 111.445C54.4844 111.227 54.6146 110.927 54.6094 110.547C54.6146 110.094 54.4844 109.74 54.2188 109.484C53.9583 109.224 53.599 109.094 53.1406 109.094H50.2969V111.766ZM50.2969 107.938H52.5938C53.1302 107.932 53.5521 107.82 53.8594 107.602C54.1667 107.378 54.3177 107.073 54.3125 106.688C54.3177 106.318 54.1667 106.029 53.8594 105.82C53.5521 105.607 53.1302 105.5 52.5938 105.5H50.2969V107.938ZM61.0156 113V104.266H67.875V113H66.5312V105.516H62.3438V113H61.0156ZM73.125 113.188C72.3385 113.188 71.6484 113 71.0547 112.625C70.4609 112.25 69.9974 111.724 69.6641 111.047C69.3359 110.37 69.1719 109.583 69.1719 108.688C69.1719 107.776 69.3359 106.982 69.6641 106.305C69.9974 105.622 70.4609 105.094 71.0547 104.719C71.6484 104.344 72.3385 104.156 73.125 104.156C73.9167 104.156 74.6094 104.344 75.2031 104.719C75.7969 105.094 76.2604 105.622 76.5938 106.305C76.9271 106.982 77.0938 107.776 77.0938 108.688C77.0938 109.583 76.9271 110.37 76.5938 111.047C76.2604 111.724 75.7969 112.25 75.2031 112.625C74.6094 113 73.9167 113.188 73.125 113.188ZM73.125 111.984C73.7292 111.984 74.224 111.831 74.6094 111.523C74.9948 111.216 75.2812 110.812 75.4688 110.312C75.6562 109.807 75.75 109.266 75.75 108.688C75.75 108.099 75.6562 107.552 75.4688 107.047C75.2812 106.542 74.9948 106.135 74.6094 105.828C74.224 105.516 73.7292 105.359 73.125 105.359C72.5312 105.359 72.0417 105.516 71.6562 105.828C71.2708 106.135 70.9844 106.542 70.7969 107.047C70.6094 107.552 70.5156 108.099 70.5156 108.688C70.5156 109.266 70.6094 109.807 70.7969 110.312C70.9844 110.812 71.2708 111.216 71.6562 111.523C72.0417 111.831 72.5312 111.984 73.125 111.984ZM77.6094 113V111.75H77.9219C78.276 111.75 78.5521 111.654 78.75 111.461C78.9479 111.263 79.0938 110.904 79.1875 110.383C79.2865 109.862 79.3542 109.115 79.3906 108.141L79.5469 104.266H85.3594V113H84.0156V105.516H80.8125L80.6719 108.641C80.6406 109.354 80.5781 109.984 80.4844 110.531C80.3906 111.073 80.2448 111.529 80.0469 111.898C79.8542 112.263 79.5964 112.539 79.2734 112.727C78.9505 112.909 78.5469 113 78.0625 113H77.6094ZM92.4531 104.266V105.516H88.4062V113H87.0781V104.266H92.4531ZM96.75 113.188C95.9635 113.188 95.2734 113 94.6797 112.625C94.0859 112.25 93.6224 111.724 93.2891 111.047C92.9609 110.37 92.7969 109.583 92.7969 108.688C92.7969 107.776 92.9609 106.982 93.2891 106.305C93.6224 105.622 94.0859 105.094 94.6797 104.719C95.2734 104.344 95.9635 104.156 96.75 104.156C97.5417 104.156 98.2344 104.344 98.8281 104.719C99.4219 105.094 99.8854 105.622 100.219 106.305C100.552 106.982 100.719 107.776 100.719 108.688C100.719 109.583 100.552 110.37 100.219 111.047C99.8854 111.724 99.4219 112.25 98.8281 112.625C98.2344 113 97.5417 113.188 96.75 113.188ZM96.75 111.984C97.3542 111.984 97.849 111.831 98.2344 111.523C98.6198 111.216 98.9062 110.812 99.0938 110.312C99.2812 109.807 99.375 109.266 99.375 108.688C99.375 108.099 99.2812 107.552 99.0938 107.047C98.9062 106.542 98.6198 106.135 98.2344 105.828C97.849 105.516 97.3542 105.359 96.75 105.359C96.1562 105.359 95.6667 105.516 95.2812 105.828C94.8958 106.135 94.6094 106.542 94.4219 107.047C94.2344 107.552 94.1406 108.099 94.1406 108.688C94.1406 109.266 94.2344 109.807 94.4219 110.312C94.6094 110.812 94.8958 111.216 95.2812 111.523C95.6667 111.831 96.1562 111.984 96.75 111.984ZM101.078 115.5V111.75H101.797C101.974 111.562 102.128 111.362 102.258 111.148C102.393 110.935 102.508 110.68 102.602 110.383C102.695 110.081 102.776 109.716 102.844 109.289C102.917 108.862 102.979 108.344 103.031 107.734L103.328 104.266H108.875V111.75H110.219V115.5H108.875V113H102.422V115.5H101.078ZM103.328 111.75H107.531V105.516H104.578L104.344 107.734C104.255 108.646 104.141 109.443 104 110.125C103.859 110.807 103.635 111.349 103.328 111.75ZM113.812 113.203C113.26 113.203 112.758 113.099 112.305 112.891C111.852 112.677 111.492 112.37 111.227 111.969C110.961 111.568 110.828 111.083 110.828 110.516C110.828 110.016 110.927 109.612 111.125 109.305C111.323 108.992 111.586 108.747 111.914 108.57C112.247 108.388 112.612 108.253 113.008 108.164C113.409 108.076 113.812 108.005 114.219 107.953C114.75 107.885 115.18 107.833 115.508 107.797C115.841 107.76 116.083 107.698 116.234 107.609C116.391 107.521 116.469 107.37 116.469 107.156V107.109C116.469 106.552 116.315 106.12 116.008 105.812C115.706 105.5 115.245 105.344 114.625 105.344C113.99 105.344 113.49 105.484 113.125 105.766C112.76 106.042 112.505 106.339 112.359 106.656L111.078 106.203C111.307 105.672 111.612 105.258 111.992 104.961C112.378 104.664 112.794 104.456 113.242 104.336C113.695 104.216 114.141 104.156 114.578 104.156C114.859 104.156 115.182 104.19 115.547 104.258C115.911 104.32 116.266 104.456 116.609 104.664C116.958 104.867 117.245 105.177 117.469 105.594C117.698 106.005 117.812 106.557 117.812 107.25V113H116.469V111.812H116.406C116.318 112 116.167 112.203 115.953 112.422C115.74 112.635 115.456 112.82 115.102 112.977C114.753 113.128 114.323 113.203 113.812 113.203ZM114.016 112C114.547 112 114.995 111.896 115.359 111.688C115.724 111.479 116 111.211 116.188 110.883C116.375 110.549 116.469 110.203 116.469 109.844V108.609C116.411 108.677 116.286 108.74 116.094 108.797C115.906 108.849 115.688 108.896 115.438 108.938C115.193 108.979 114.953 109.016 114.719 109.047C114.484 109.073 114.297 109.094 114.156 109.109C113.807 109.156 113.482 109.232 113.18 109.336C112.878 109.435 112.633 109.583 112.445 109.781C112.263 109.979 112.172 110.25 112.172 110.594C112.172 111.057 112.344 111.409 112.688 111.648C113.036 111.883 113.479 112 114.016 112Z" fill="#1F1F1F"/>
<path d="M240.233 70.5039V71.7539H235.421V70.5039H240.233ZM235.733 66.7539V75.4883H234.405V66.7539H235.733ZM241.265 66.7539V75.4883H239.921V66.7539H241.265ZM246.64 75.6758C245.801 75.6758 245.075 75.4883 244.46 75.1133C243.851 74.7383 243.382 74.2148 243.054 73.543C242.726 72.8659 242.562 72.082 242.562 71.1914C242.562 70.2956 242.723 69.5065 243.046 68.8242C243.369 68.1419 243.822 67.6081 244.405 67.2227C244.994 66.8372 245.681 66.6445 246.468 66.6445C246.921 66.6445 247.371 66.7201 247.819 66.8711C248.267 67.0221 248.674 67.2669 249.038 67.6055C249.408 67.944 249.702 68.3919 249.921 68.9492C250.14 69.5065 250.249 70.1914 250.249 71.0039V71.582H243.515V70.4258H249.522L248.905 70.8633C248.905 70.2799 248.814 69.7617 248.632 69.3086C248.45 68.8555 248.176 68.4987 247.812 68.2383C247.452 67.9779 247.004 67.8477 246.468 67.8477C245.931 67.8477 245.47 67.9805 245.085 68.2461C244.705 68.5065 244.413 68.8477 244.21 69.2695C244.007 69.6914 243.905 70.1445 243.905 70.6289V71.3945C243.905 72.056 244.02 72.6159 244.249 73.0742C244.478 73.5326 244.799 73.8815 245.21 74.1211C245.621 74.3555 246.098 74.4727 246.64 74.4727C246.989 74.4727 247.306 74.4232 247.593 74.3242C247.879 74.2201 248.127 74.0664 248.335 73.8633C248.543 73.6549 248.702 73.3997 248.812 73.0977L250.108 73.4727C249.973 73.9102 249.744 74.2956 249.421 74.6289C249.103 74.957 248.707 75.2148 248.233 75.4023C247.759 75.5846 247.228 75.6758 246.64 75.6758ZM255.265 75.4883V66.7539H262.124V75.4883H260.78V68.0039H256.593V75.4883H255.265ZM267.374 75.6758C266.588 75.6758 265.897 75.4883 265.304 75.1133C264.71 74.7383 264.246 74.2122 263.913 73.5352C263.585 72.8581 263.421 72.0716 263.421 71.1758C263.421 70.2643 263.585 69.4701 263.913 68.793C264.246 68.1107 264.71 67.582 265.304 67.207C265.897 66.832 266.588 66.6445 267.374 66.6445C268.166 66.6445 268.858 66.832 269.452 67.207C270.046 67.582 270.509 68.1107 270.843 68.793C271.176 69.4701 271.343 70.2643 271.343 71.1758C271.343 72.0716 271.176 72.8581 270.843 73.5352C270.509 74.2122 270.046 74.7383 269.452 75.1133C268.858 75.4883 268.166 75.6758 267.374 75.6758ZM267.374 74.4727C267.978 74.4727 268.473 74.319 268.858 74.0117C269.244 73.7044 269.53 73.3008 269.718 72.8008C269.905 72.2956 269.999 71.7539 269.999 71.1758C269.999 70.5872 269.905 70.0404 269.718 69.5352C269.53 69.0299 269.244 68.6237 268.858 68.3164C268.473 68.0039 267.978 67.8477 267.374 67.8477C266.78 67.8477 266.291 68.0039 265.905 68.3164C265.52 68.6237 265.233 69.0299 265.046 69.5352C264.858 70.0404 264.765 70.5872 264.765 71.1758C264.765 71.7539 264.858 72.2956 265.046 72.8008C265.233 73.3008 265.52 73.7044 265.905 74.0117C266.291 74.319 266.78 74.4727 267.374 74.4727ZM278.468 70.5039V71.7539H273.655V70.5039H278.468ZM273.968 66.7539V75.4883H272.64V66.7539H273.968ZM279.499 66.7539V75.4883H278.155V66.7539H279.499ZM282.546 73.5039L286.749 66.7539H288.296V75.4883H286.968V68.7383L282.78 75.4883H281.218V66.7539H282.546V73.5039ZM294.78 73.6758L297.827 66.7539H299.093L295.327 75.4883H294.233L290.53 66.7539H291.78L294.78 73.6758ZM291.343 66.7539V75.4883H290.015V66.7539H291.343ZM298.218 75.4883V66.7539H299.546V75.4883H298.218ZM303.827 75.6914C303.275 75.6914 302.772 75.5872 302.319 75.3789C301.866 75.1654 301.507 74.8581 301.241 74.457C300.976 74.056 300.843 73.5716 300.843 73.0039C300.843 72.5039 300.942 72.1003 301.14 71.793C301.338 71.4805 301.601 71.2357 301.929 71.0586C302.262 70.8763 302.627 70.7409 303.022 70.6523C303.424 70.5638 303.827 70.4935 304.233 70.4414C304.765 70.3737 305.194 70.3216 305.522 70.2852C305.856 70.2487 306.098 70.1862 306.249 70.0977C306.405 70.0091 306.483 69.8581 306.483 69.6445V69.5977C306.483 69.0404 306.33 68.6081 306.022 68.3008C305.72 67.9883 305.259 67.832 304.64 67.832C304.004 67.832 303.504 67.9727 303.14 68.2539C302.775 68.5299 302.52 68.8268 302.374 69.1445L301.093 68.6914C301.322 68.1602 301.627 67.7461 302.007 67.4492C302.392 67.1523 302.809 66.944 303.257 66.8242C303.71 66.7044 304.155 66.6445 304.593 66.6445C304.874 66.6445 305.197 66.6784 305.562 66.7461C305.926 66.8086 306.28 66.944 306.624 67.1523C306.973 67.3555 307.259 67.6654 307.483 68.082C307.713 68.4935 307.827 69.0456 307.827 69.7383V75.4883H306.483V74.3008H306.421C306.332 74.4883 306.181 74.6914 305.968 74.9102C305.754 75.1237 305.47 75.3086 305.116 75.4648C304.767 75.6159 304.338 75.6914 303.827 75.6914ZM304.03 74.4883C304.562 74.4883 305.009 74.3841 305.374 74.1758C305.739 73.9674 306.015 73.6992 306.202 73.3711C306.39 73.0378 306.483 72.6914 306.483 72.332V71.0977C306.426 71.1654 306.301 71.2279 306.108 71.2852C305.921 71.3372 305.702 71.3841 305.452 71.4258C305.207 71.4674 304.968 71.5039 304.733 71.5352C304.499 71.5612 304.312 71.582 304.171 71.5977C303.822 71.6445 303.496 71.7201 303.194 71.8242C302.892 71.9232 302.647 72.0716 302.46 72.2695C302.278 72.4674 302.187 72.7383 302.187 73.082C302.187 73.5456 302.358 73.8971 302.702 74.1367C303.051 74.3711 303.494 74.4883 304.03 74.4883ZM313.718 70.582V71.832H309.108V70.582H313.718ZM310.249 66.7539V75.4883H308.905V66.7539H310.249ZM316.405 75.6758C315.619 75.6706 314.926 75.4805 314.327 75.1055C313.733 74.7305 313.272 74.207 312.944 73.5352C312.616 72.8581 312.452 72.0716 312.452 71.1758C312.452 70.2643 312.616 69.4701 312.944 68.793C313.272 68.1107 313.733 67.582 314.327 67.207C314.926 66.832 315.619 66.6445 316.405 66.6445C317.192 66.6445 317.882 66.832 318.476 67.207C319.069 67.582 319.53 68.1107 319.858 68.793C320.192 69.4701 320.358 70.2643 320.358 71.1758C320.358 72.0716 320.192 72.8581 319.858 73.5352C319.53 74.207 319.069 74.7305 318.476 75.1055C317.882 75.4805 317.192 75.6706 316.405 75.6758ZM316.405 74.4727C317.004 74.4674 317.494 74.3112 317.874 74.0039C318.259 73.6966 318.546 73.293 318.733 72.793C318.921 72.293 319.015 71.7539 319.015 71.1758C319.015 70.5872 318.921 70.043 318.733 69.543C318.546 69.0378 318.259 68.6289 317.874 68.3164C317.494 68.0039 317.004 67.8477 316.405 67.8477C315.806 67.8477 315.314 68.0039 314.929 68.3164C314.543 68.6289 314.257 69.0378 314.069 69.543C313.887 70.043 313.796 70.5872 313.796 71.1758C313.796 71.7539 313.887 72.293 314.069 72.793C314.257 73.293 314.543 73.6966 314.929 74.0039C315.314 74.3112 315.806 74.4674 316.405 74.4727ZM320.671 68.0039V66.7539H327.749V68.0039H324.89V75.4883H323.546V68.0039H320.671ZM327.28 78.2539L327.968 73.8633H329.515L328.312 78.2539H327.28ZM234.405 94.4883V85.7539H235.733V89.5508H236.624L239.765 85.7539H241.483L237.968 89.9727L241.53 94.4883H239.812L236.937 90.8008H235.733V94.4883H234.405ZM244.796 94.6914C244.244 94.6914 243.741 94.5872 243.288 94.3789C242.835 94.1654 242.476 93.8581 242.21 93.457C241.944 93.056 241.812 92.5716 241.812 92.0039C241.812 91.5039 241.91 91.1003 242.108 90.793C242.306 90.4805 242.569 90.2357 242.897 90.0586C243.231 89.8763 243.595 89.7409 243.991 89.6523C244.392 89.5638 244.796 89.4935 245.202 89.4414C245.733 89.3737 246.163 89.3216 246.491 89.2852C246.825 89.2487 247.067 89.1862 247.218 89.0977C247.374 89.0091 247.452 88.8581 247.452 88.6445V88.5977C247.452 88.0404 247.299 87.6081 246.991 87.3008C246.689 86.9883 246.228 86.832 245.608 86.832C244.973 86.832 244.473 86.9727 244.108 87.2539C243.744 87.5299 243.489 87.8268 243.343 88.1445L242.062 87.6914C242.291 87.1602 242.595 86.7461 242.976 86.4492C243.361 86.1523 243.778 85.944 244.226 85.8242C244.679 85.7044 245.124 85.6445 245.562 85.6445C245.843 85.6445 246.166 85.6784 246.53 85.7461C246.895 85.8086 247.249 85.944 247.593 86.1523C247.942 86.3555 248.228 86.6654 248.452 87.082C248.681 87.4935 248.796 88.0456 248.796 88.7383V94.4883H247.452V93.3008H247.39C247.301 93.4883 247.15 93.6914 246.937 93.9102C246.723 94.1237 246.439 94.3086 246.085 94.4648C245.736 94.6159 245.306 94.6914 244.796 94.6914ZM244.999 93.4883C245.53 93.4883 245.978 93.3841 246.343 93.1758C246.707 92.9674 246.983 92.6992 247.171 92.3711C247.358 92.0378 247.452 91.6914 247.452 91.332V90.0977C247.395 90.1654 247.27 90.2279 247.077 90.2852C246.89 90.3372 246.671 90.3841 246.421 90.4258C246.176 90.4674 245.937 90.5039 245.702 90.5352C245.468 90.5612 245.28 90.582 245.14 90.5977C244.791 90.6445 244.465 90.7201 244.163 90.8242C243.861 90.9232 243.616 91.0716 243.429 91.2695C243.246 91.4674 243.155 91.7383 243.155 92.082C243.155 92.5456 243.327 92.8971 243.671 93.1367C244.02 93.3711 244.463 93.4883 244.999 93.4883ZM250.515 94.4883V85.7539H251.843V89.5508H252.733L255.874 85.7539H257.593L254.077 89.9727L257.64 94.4883H255.921L253.046 90.8008H251.843V94.4883H250.515ZM262.093 94.4883V85.7539H268.952V94.4883H267.608V87.0039H263.421V94.4883H262.093ZM270.671 97.7539V85.7539H271.952V87.1445H272.108C272.207 86.9935 272.345 86.8008 272.522 86.5664C272.7 86.3268 272.955 86.1133 273.288 85.9258C273.621 85.7383 274.072 85.6445 274.64 85.6445C275.374 85.6445 276.02 85.8294 276.577 86.1992C277.134 86.5638 277.569 87.0846 277.882 87.7617C278.2 88.4336 278.358 89.2279 278.358 90.1445C278.358 91.0664 278.202 91.8685 277.89 92.5508C277.577 93.2279 277.142 93.7513 276.585 94.1211C276.028 94.4909 275.384 94.6758 274.655 94.6758C274.098 94.6758 273.65 94.582 273.312 94.3945C272.973 94.2018 272.713 93.9857 272.53 93.7461C272.348 93.5013 272.207 93.3008 272.108 93.1445H271.999V97.7539H270.671ZM274.483 93.4727C275.041 93.4727 275.507 93.3242 275.882 93.0273C276.257 92.7253 276.538 92.3216 276.726 91.8164C276.918 91.3112 277.015 90.7487 277.015 90.1289C277.015 89.5143 276.921 88.9596 276.733 88.4648C276.546 87.9701 276.265 87.5768 275.89 87.2852C275.52 86.9935 275.051 86.8477 274.483 86.8477C273.937 86.8477 273.478 86.9857 273.108 87.2617C272.739 87.5326 272.457 87.9154 272.265 88.4102C272.077 88.8997 271.983 89.4727 271.983 90.1289C271.983 90.7852 272.08 91.3659 272.272 91.8711C272.465 92.3711 272.746 92.7643 273.116 93.0508C273.491 93.332 273.947 93.4727 274.483 93.4727ZM282.218 94.6914C281.666 94.6914 281.163 94.5872 280.71 94.3789C280.257 94.1654 279.897 93.8581 279.632 93.457C279.366 93.056 279.233 92.5716 279.233 92.0039C279.233 91.5039 279.332 91.1003 279.53 90.793C279.728 90.4805 279.991 90.2357 280.319 90.0586C280.653 89.8763 281.017 89.7409 281.413 89.6523C281.814 89.5638 282.218 89.4935 282.624 89.4414C283.155 89.3737 283.585 89.3216 283.913 89.2852C284.246 89.2487 284.489 89.1862 284.64 89.0977C284.796 89.0091 284.874 88.8581 284.874 88.6445V88.5977C284.874 88.0404 284.72 87.6081 284.413 87.3008C284.111 86.9883 283.65 86.832 283.03 86.832C282.395 86.832 281.895 86.9727 281.53 87.2539C281.166 87.5299 280.91 87.8268 280.765 88.1445L279.483 87.6914C279.713 87.1602 280.017 86.7461 280.397 86.4492C280.783 86.1523 281.2 85.944 281.647 85.8242C282.101 85.7044 282.546 85.6445 282.983 85.6445C283.265 85.6445 283.588 85.6784 283.952 85.7461C284.317 85.8086 284.671 85.944 285.015 86.1523C285.364 86.3555 285.65 86.6654 285.874 87.082C286.103 87.4935 286.218 88.0456 286.218 88.7383V94.4883H284.874V93.3008H284.812C284.723 93.4883 284.572 93.6914 284.358 93.9102C284.145 94.1237 283.861 94.3086 283.507 94.4648C283.158 94.6159 282.728 94.6914 282.218 94.6914ZM282.421 93.4883C282.952 93.4883 283.4 93.3841 283.765 93.1758C284.129 92.9674 284.405 92.6992 284.593 92.3711C284.78 92.0378 284.874 91.6914 284.874 91.332V90.0977C284.817 90.1654 284.692 90.2279 284.499 90.2852C284.312 90.3372 284.093 90.3841 283.843 90.4258C283.598 90.4674 283.358 90.5039 283.124 90.5352C282.89 90.5612 282.702 90.582 282.562 90.5977C282.213 90.6445 281.887 90.7201 281.585 90.8242C281.283 90.9232 281.038 91.0716 280.851 91.2695C280.668 91.4674 280.577 91.7383 280.577 92.082C280.577 92.5456 280.749 92.8971 281.093 93.1367C281.442 93.3711 281.884 93.4883 282.421 93.4883ZM287.937 94.4883V85.7539H291.499C292.437 85.7591 293.181 85.9753 293.733 86.4023C294.291 86.8242 294.567 87.3841 294.562 88.082C294.567 88.6133 294.41 89.0221 294.093 89.3086C293.78 89.5951 293.379 89.7904 292.89 89.8945C293.207 89.9414 293.517 90.056 293.819 90.2383C294.127 90.4206 294.382 90.6706 294.585 90.9883C294.788 91.3008 294.89 91.6862 294.89 92.1445C294.89 92.5924 294.775 92.9935 294.546 93.3477C294.317 93.7018 293.991 93.9805 293.569 94.1836C293.147 94.3867 292.64 94.4883 292.046 94.4883H287.937ZM289.202 93.2539H292.046C292.504 93.2591 292.864 93.1523 293.124 92.9336C293.39 92.7148 293.52 92.4154 293.515 92.0352C293.52 91.582 293.39 91.2279 293.124 90.9727C292.864 90.7122 292.504 90.582 292.046 90.582H289.202V93.2539ZM289.202 89.4258H291.499C292.035 89.4206 292.457 89.3086 292.765 89.0898C293.072 88.8659 293.223 88.5612 293.218 88.1758C293.223 87.806 293.072 87.5169 292.765 87.3086C292.457 87.0951 292.035 86.9883 291.499 86.9883H289.202V89.4258ZM297.499 92.5039L301.702 85.7539H303.249V94.4883H301.921V87.7383L297.733 94.4883H296.171V85.7539H297.499V92.5039ZM304.187 94.4883V93.2383H304.499C304.853 93.2383 305.129 93.1419 305.327 92.9492C305.525 92.7513 305.671 92.3919 305.765 91.8711C305.864 91.3503 305.931 90.6029 305.968 89.6289L306.124 85.7539H311.937V94.4883H310.593V87.0039H307.39L307.249 90.1289C307.218 90.8424 307.155 91.4727 307.062 92.0195C306.968 92.5612 306.822 93.0169 306.624 93.3867C306.431 93.7513 306.174 94.0273 305.851 94.2148C305.528 94.3971 305.124 94.4883 304.64 94.4883H304.187ZM314.812 88.9258H317.312C318.332 88.9206 319.114 89.1784 319.655 89.6992C320.197 90.2201 320.468 90.8789 320.468 91.6758C320.468 92.1966 320.345 92.6706 320.101 93.0977C319.861 93.5195 319.507 93.8581 319.038 94.1133C318.569 94.3633 317.994 94.4883 317.312 94.4883H313.655V85.7539H314.983V93.2383H317.312C317.838 93.2383 318.27 93.1003 318.608 92.8242C318.952 92.543 319.124 92.181 319.124 91.7383C319.124 91.2747 318.952 90.8971 318.608 90.6055C318.27 90.3138 317.838 90.1706 317.312 90.1758H314.812V88.9258ZM327.593 89.5039V90.7539H322.78V89.5039H327.593ZM323.093 85.7539V94.4883H321.765V85.7539H323.093ZM328.624 85.7539V94.4883H327.28V85.7539H328.624ZM333.874 94.6758C333.088 94.6758 332.397 94.4883 331.804 94.1133C331.21 93.7383 330.746 93.2122 330.413 92.5352C330.085 91.8581 329.921 91.0716 329.921 90.1758C329.921 89.2643 330.085 88.4701 330.413 87.793C330.746 87.1107 331.21 86.582 331.804 86.207C332.397 85.832 333.088 85.6445 333.874 85.6445C334.666 85.6445 335.358 85.832 335.952 86.207C336.546 86.582 337.009 87.1107 337.343 87.793C337.676 88.4701 337.843 89.2643 337.843 90.1758C337.843 91.0716 337.676 91.8581 337.343 92.5352C337.009 93.2122 336.546 93.7383 335.952 94.1133C335.358 94.4883 334.666 94.6758 333.874 94.6758ZM333.874 93.4727C334.478 93.4727 334.973 93.319 335.358 93.0117C335.744 92.7044 336.03 92.3008 336.218 91.8008C336.405 91.2956 336.499 90.7539 336.499 90.1758C336.499 89.5872 336.405 89.0404 336.218 88.5352C336.03 88.0299 335.744 87.6237 335.358 87.3164C334.973 87.0039 334.478 86.8477 333.874 86.8477C333.28 86.8477 332.791 87.0039 332.405 87.3164C332.02 87.6237 331.733 88.0299 331.546 88.5352C331.358 89.0404 331.265 89.5872 331.265 90.1758C331.265 90.7539 331.358 91.2956 331.546 91.8008C331.733 92.3008 332.02 92.7044 332.405 93.0117C332.791 93.319 333.28 93.4727 333.874 93.4727ZM346.421 94.6758C345.634 94.6758 344.944 94.4883 344.351 94.1133C343.757 93.7383 343.293 93.2122 342.96 92.5352C342.632 91.8581 342.468 91.0716 342.468 90.1758C342.468 89.2643 342.632 88.4701 342.96 87.793C343.293 87.1107 343.757 86.582 344.351 86.207C344.944 85.832 345.634 85.6445 346.421 85.6445C347.213 85.6445 347.905 85.832 348.499 86.207C349.093 86.582 349.556 87.1107 349.89 87.793C350.223 88.4701 350.39 89.2643 350.39 90.1758C350.39 91.0716 350.223 91.8581 349.89 92.5352C349.556 93.2122 349.093 93.7383 348.499 94.1133C347.905 94.4883 347.213 94.6758 346.421 94.6758ZM346.421 93.4727C347.025 93.4727 347.52 93.319 347.905 93.0117C348.291 92.7044 348.577 92.3008 348.765 91.8008C348.952 91.2956 349.046 90.7539 349.046 90.1758C349.046 89.5872 348.952 89.0404 348.765 88.5352C348.577 88.0299 348.291 87.6237 347.905 87.3164C347.52 87.0039 347.025 86.8477 346.421 86.8477C345.827 86.8477 345.338 87.0039 344.952 87.3164C344.567 87.6237 344.28 88.0299 344.093 88.5352C343.905 89.0404 343.812 89.5872 343.812 90.1758C343.812 90.7539 343.905 91.2956 344.093 91.8008C344.28 92.3008 344.567 92.7044 344.952 93.0117C345.338 93.319 345.827 93.4727 346.421 93.4727ZM351.687 94.4883V85.7539H358.546V94.4883H357.202V87.0039H353.015V94.4883H351.687ZM361.593 92.5039L365.796 85.7539H367.343V94.4883H366.015V87.7383L361.827 94.4883H360.265V85.7539H361.593V92.5039ZM372.593 94.6758C371.78 94.6758 371.077 94.4831 370.483 94.0977C369.895 93.707 369.439 93.1732 369.116 92.4961C368.799 91.819 368.64 91.0456 368.64 90.1758C368.64 89.2852 368.804 88.5013 369.132 87.8242C369.46 87.1419 369.918 86.6081 370.507 86.2227C371.101 85.8372 371.791 85.6445 372.577 85.6445C373.192 85.6445 373.744 85.7591 374.233 85.9883C374.728 86.2122 375.132 86.5299 375.444 86.9414C375.762 87.3529 375.957 87.832 376.03 88.3789H374.687C374.619 88.1133 374.496 87.8633 374.319 87.6289C374.142 87.3945 373.908 87.207 373.616 87.0664C373.33 86.9206 372.989 86.8477 372.593 86.8477C372.072 86.8477 371.616 86.9831 371.226 87.2539C370.835 87.5247 370.53 87.9076 370.312 88.4023C370.093 88.8919 369.983 89.4674 369.983 90.1289C369.983 90.8008 370.09 91.3893 370.304 91.8945C370.517 92.3945 370.819 92.7826 371.21 93.0586C371.606 93.3346 372.067 93.4727 372.593 93.4727C373.119 93.4727 373.569 93.3372 373.944 93.0664C374.319 92.7904 374.567 92.4154 374.687 91.9414H376.03C375.957 92.457 375.77 92.9206 375.468 93.332C375.171 93.7435 374.778 94.0716 374.288 94.3164C373.804 94.556 373.239 94.6758 372.593 94.6758ZM379.858 94.6914C379.306 94.6914 378.804 94.5872 378.351 94.3789C377.897 94.1654 377.538 93.8581 377.272 93.457C377.007 93.056 376.874 92.5716 376.874 92.0039C376.874 91.5039 376.973 91.1003 377.171 90.793C377.369 90.4805 377.632 90.2357 377.96 90.0586C378.293 89.8763 378.658 89.7409 379.054 89.6523C379.455 89.5638 379.858 89.4935 380.265 89.4414C380.796 89.3737 381.226 89.3216 381.554 89.2852C381.887 89.2487 382.129 89.1862 382.28 89.0977C382.437 89.0091 382.515 88.8581 382.515 88.6445V88.5977C382.515 88.0404 382.361 87.6081 382.054 87.3008C381.752 86.9883 381.291 86.832 380.671 86.832C380.035 86.832 379.535 86.9727 379.171 87.2539C378.806 87.5299 378.551 87.8268 378.405 88.1445L377.124 87.6914C377.353 87.1602 377.658 86.7461 378.038 86.4492C378.424 86.1523 378.84 85.944 379.288 85.8242C379.741 85.7044 380.187 85.6445 380.624 85.6445C380.905 85.6445 381.228 85.6784 381.593 85.7461C381.957 85.8086 382.312 85.944 382.655 86.1523C383.004 86.3555 383.291 86.6654 383.515 87.082C383.744 87.4935 383.858 88.0456 383.858 88.7383V94.4883H382.515V93.3008H382.452C382.364 93.4883 382.213 93.6914 381.999 93.9102C381.785 94.1237 381.502 94.3086 381.147 94.4648C380.799 94.6159 380.369 94.6914 379.858 94.6914ZM380.062 93.4883C380.593 93.4883 381.041 93.3841 381.405 93.1758C381.77 92.9674 382.046 92.6992 382.233 92.3711C382.421 92.0378 382.515 91.6914 382.515 91.332V90.0977C382.457 90.1654 382.332 90.2279 382.14 90.2852C381.952 90.3372 381.733 90.3841 381.483 90.4258C381.239 90.4674 380.999 90.5039 380.765 90.5352C380.53 90.5612 380.343 90.582 380.202 90.5977C379.853 90.6445 379.528 90.7201 379.226 90.8242C378.924 90.9232 378.679 91.0716 378.491 91.2695C378.309 91.4674 378.218 91.7383 378.218 92.082C378.218 92.5456 378.39 92.8971 378.733 93.1367C379.082 93.3711 379.525 93.4883 380.062 93.4883ZM384.405 87.0039V85.7539H391.483V87.0039H388.624V94.4883H387.28V87.0039H384.405ZM393.858 88.9258H396.358C397.379 88.9206 398.16 89.1784 398.702 89.6992C399.244 90.2201 399.515 90.8789 399.515 91.6758C399.515 92.1966 399.392 92.6706 399.147 93.0977C398.908 93.5195 398.554 93.8581 398.085 94.1133C397.616 94.3633 397.041 94.4883 396.358 94.4883H392.702V85.7539H394.03V93.2383H396.358C396.884 93.2383 397.317 93.1003 397.655 92.8242C397.999 92.543 398.171 92.181 398.171 91.7383C398.171 91.2747 397.999 90.8971 397.655 90.6055C397.317 90.3138 396.884 90.1706 396.358 90.1758H393.858V88.9258ZM234.405 113.488V104.754H241.265V113.488H239.921V106.004H235.733V113.488H234.405ZM242.983 116.754V104.754H244.265V106.145H244.421C244.52 105.993 244.658 105.801 244.835 105.566C245.012 105.327 245.267 105.113 245.601 104.926C245.934 104.738 246.384 104.645 246.952 104.645C247.687 104.645 248.332 104.829 248.89 105.199C249.447 105.564 249.882 106.085 250.194 106.762C250.512 107.434 250.671 108.228 250.671 109.145C250.671 110.066 250.515 110.868 250.202 111.551C249.89 112.228 249.455 112.751 248.897 113.121C248.34 113.491 247.697 113.676 246.968 113.676C246.41 113.676 245.963 113.582 245.624 113.395C245.285 113.202 245.025 112.986 244.843 112.746C244.66 112.501 244.52 112.301 244.421 112.145H244.312V116.754H242.983ZM246.796 112.473C247.353 112.473 247.819 112.324 248.194 112.027C248.569 111.725 248.851 111.322 249.038 110.816C249.231 110.311 249.327 109.749 249.327 109.129C249.327 108.514 249.233 107.96 249.046 107.465C248.858 106.97 248.577 106.577 248.202 106.285C247.832 105.993 247.364 105.848 246.796 105.848C246.249 105.848 245.791 105.986 245.421 106.262C245.051 106.533 244.77 106.915 244.577 107.41C244.39 107.9 244.296 108.473 244.296 109.129C244.296 109.785 244.392 110.366 244.585 110.871C244.778 111.371 245.059 111.764 245.429 112.051C245.804 112.332 246.259 112.473 246.796 112.473ZM255.499 113.676C254.713 113.676 254.022 113.488 253.429 113.113C252.835 112.738 252.371 112.212 252.038 111.535C251.71 110.858 251.546 110.072 251.546 109.176C251.546 108.264 251.71 107.47 252.038 106.793C252.371 106.111 252.835 105.582 253.429 105.207C254.022 104.832 254.713 104.645 255.499 104.645C256.291 104.645 256.983 104.832 257.577 105.207C258.171 105.582 258.634 106.111 258.968 106.793C259.301 107.47 259.468 108.264 259.468 109.176C259.468 110.072 259.301 110.858 258.968 111.535C258.634 112.212 258.171 112.738 257.577 113.113C256.983 113.488 256.291 113.676 255.499 113.676ZM255.499 112.473C256.103 112.473 256.598 112.319 256.983 112.012C257.369 111.704 257.655 111.301 257.843 110.801C258.03 110.296 258.124 109.754 258.124 109.176C258.124 108.587 258.03 108.04 257.843 107.535C257.655 107.03 257.369 106.624 256.983 106.316C256.598 106.004 256.103 105.848 255.499 105.848C254.905 105.848 254.416 106.004 254.03 106.316C253.645 106.624 253.358 107.03 253.171 107.535C252.983 108.04 252.89 108.587 252.89 109.176C252.89 109.754 252.983 110.296 253.171 110.801C253.358 111.301 253.645 111.704 254.03 112.012C254.416 112.319 254.905 112.473 255.499 112.473ZM267.233 101.488L267.921 102.301C267.655 102.561 267.348 102.743 266.999 102.848C266.65 102.947 266.254 103.009 265.812 103.035C265.374 103.056 264.884 103.077 264.343 103.098C263.739 103.118 263.239 103.267 262.843 103.543C262.447 103.814 262.14 104.207 261.921 104.723C261.707 105.238 261.572 105.874 261.515 106.629H261.624C261.916 106.082 262.322 105.681 262.843 105.426C263.369 105.165 263.931 105.035 264.53 105.035C265.213 105.035 265.825 105.194 266.366 105.512C266.913 105.829 267.345 106.301 267.663 106.926C267.986 107.551 268.145 108.322 268.14 109.238C268.145 110.15 267.986 110.939 267.663 111.605C267.34 112.267 266.887 112.777 266.304 113.137C265.72 113.491 265.041 113.671 264.265 113.676C263.088 113.671 262.14 113.254 261.421 112.426C260.707 111.592 260.348 110.368 260.343 108.754V107.832C260.348 105.884 260.679 104.41 261.335 103.41C261.996 102.405 262.994 101.884 264.327 101.848C264.796 101.832 265.213 101.829 265.577 101.84C265.947 101.845 266.267 101.827 266.538 101.785C266.814 101.743 267.046 101.645 267.233 101.488ZM264.265 112.473C264.791 112.467 265.241 112.335 265.616 112.074C265.996 111.809 266.288 111.434 266.491 110.949C266.7 110.465 266.801 109.895 266.796 109.238C266.801 108.603 266.7 108.061 266.491 107.613C266.288 107.165 265.994 106.824 265.608 106.59C265.228 106.355 264.77 106.238 264.233 106.238C263.843 106.238 263.491 106.306 263.179 106.441C262.871 106.572 262.608 106.767 262.39 107.027C262.171 107.283 262.002 107.595 261.882 107.965C261.762 108.335 261.697 108.759 261.687 109.238C261.687 110.212 261.916 110.993 262.374 111.582C262.832 112.171 263.463 112.467 264.265 112.473ZM268.655 113.488V112.238H268.968C269.322 112.238 269.598 112.142 269.796 111.949C269.994 111.751 270.14 111.392 270.233 110.871C270.332 110.35 270.4 109.603 270.437 108.629L270.593 104.754H276.405V113.488H275.062V106.004H271.858L271.718 109.129C271.687 109.842 271.624 110.473 271.53 111.02C271.437 111.561 271.291 112.017 271.093 112.387C270.9 112.751 270.642 113.027 270.319 113.215C269.996 113.397 269.593 113.488 269.108 113.488H268.655ZM281.78 113.676C280.942 113.676 280.215 113.488 279.601 113.113C278.991 112.738 278.522 112.215 278.194 111.543C277.866 110.866 277.702 110.082 277.702 109.191C277.702 108.296 277.864 107.507 278.187 106.824C278.509 106.142 278.963 105.608 279.546 105.223C280.134 104.837 280.822 104.645 281.608 104.645C282.062 104.645 282.512 104.72 282.96 104.871C283.408 105.022 283.814 105.267 284.179 105.605C284.549 105.944 284.843 106.392 285.062 106.949C285.28 107.507 285.39 108.191 285.39 109.004V109.582H278.655V108.426H284.663L284.046 108.863C284.046 108.28 283.955 107.762 283.772 107.309C283.59 106.855 283.317 106.499 282.952 106.238C282.593 105.978 282.145 105.848 281.608 105.848C281.072 105.848 280.611 105.98 280.226 106.246C279.845 106.507 279.554 106.848 279.351 107.27C279.147 107.691 279.046 108.145 279.046 108.629V109.395C279.046 110.056 279.16 110.616 279.39 111.074C279.619 111.533 279.939 111.882 280.351 112.121C280.762 112.355 281.239 112.473 281.78 112.473C282.129 112.473 282.447 112.423 282.733 112.324C283.02 112.22 283.267 112.066 283.476 111.863C283.684 111.655 283.843 111.4 283.952 111.098L285.249 111.473C285.114 111.91 284.884 112.296 284.562 112.629C284.244 112.957 283.848 113.215 283.374 113.402C282.9 113.585 282.369 113.676 281.78 113.676ZM291.421 111.676L294.468 104.754H295.733L291.968 113.488H290.874L287.171 104.754H288.421L291.421 111.676ZM287.983 104.754V113.488H286.655V104.754H287.983ZM294.858 113.488V104.754H296.187V113.488H294.858ZM298.452 116.754C298.223 116.759 298.02 116.743 297.843 116.707C297.666 116.671 297.541 116.634 297.468 116.598L297.812 115.426L297.944 115.457C298.392 115.561 298.767 115.538 299.069 115.387C299.377 115.241 299.645 114.853 299.874 114.223L300.124 113.535L296.905 104.754H298.358L300.765 111.723H300.858L303.265 104.754H304.718L301.015 114.754C300.848 115.207 300.642 115.582 300.397 115.879C300.153 116.176 299.869 116.395 299.546 116.535C299.223 116.681 298.858 116.754 298.452 116.754ZM314.265 111.676L317.312 104.754H318.577L314.812 113.488H313.718L310.015 104.754H311.265L314.265 111.676ZM310.827 104.754V113.488H309.499V104.754H310.827ZM317.702 113.488V104.754H319.03V113.488H317.702ZM323.312 113.691C322.759 113.691 322.257 113.587 321.804 113.379C321.351 113.165 320.991 112.858 320.726 112.457C320.46 112.056 320.327 111.572 320.327 111.004C320.327 110.504 320.426 110.1 320.624 109.793C320.822 109.48 321.085 109.236 321.413 109.059C321.746 108.876 322.111 108.741 322.507 108.652C322.908 108.564 323.312 108.493 323.718 108.441C324.249 108.374 324.679 108.322 325.007 108.285C325.34 108.249 325.582 108.186 325.733 108.098C325.89 108.009 325.968 107.858 325.968 107.645V107.598C325.968 107.04 325.814 106.608 325.507 106.301C325.205 105.988 324.744 105.832 324.124 105.832C323.489 105.832 322.989 105.973 322.624 106.254C322.259 106.53 322.004 106.827 321.858 107.145L320.577 106.691C320.806 106.16 321.111 105.746 321.491 105.449C321.877 105.152 322.293 104.944 322.741 104.824C323.194 104.704 323.64 104.645 324.077 104.645C324.358 104.645 324.681 104.678 325.046 104.746C325.41 104.809 325.765 104.944 326.108 105.152C326.457 105.355 326.744 105.665 326.968 106.082C327.197 106.493 327.312 107.046 327.312 107.738V113.488H325.968V112.301H325.905C325.817 112.488 325.666 112.691 325.452 112.91C325.239 113.124 324.955 113.309 324.601 113.465C324.252 113.616 323.822 113.691 323.312 113.691ZM323.515 112.488C324.046 112.488 324.494 112.384 324.858 112.176C325.223 111.967 325.499 111.699 325.687 111.371C325.874 111.038 325.968 110.691 325.968 110.332V109.098C325.91 109.165 325.785 109.228 325.593 109.285C325.405 109.337 325.187 109.384 324.937 109.426C324.692 109.467 324.452 109.504 324.218 109.535C323.983 109.561 323.796 109.582 323.655 109.598C323.306 109.645 322.981 109.72 322.679 109.824C322.377 109.923 322.132 110.072 321.944 110.27C321.762 110.467 321.671 110.738 321.671 111.082C321.671 111.546 321.843 111.897 322.187 112.137C322.535 112.371 322.978 112.488 323.515 112.488ZM332.562 113.676C331.749 113.676 331.046 113.483 330.452 113.098C329.864 112.707 329.408 112.173 329.085 111.496C328.767 110.819 328.608 110.046 328.608 109.176C328.608 108.285 328.772 107.501 329.101 106.824C329.429 106.142 329.887 105.608 330.476 105.223C331.069 104.837 331.759 104.645 332.546 104.645C333.16 104.645 333.713 104.759 334.202 104.988C334.697 105.212 335.101 105.53 335.413 105.941C335.731 106.353 335.926 106.832 335.999 107.379H334.655C334.588 107.113 334.465 106.863 334.288 106.629C334.111 106.395 333.877 106.207 333.585 106.066C333.299 105.921 332.957 105.848 332.562 105.848C332.041 105.848 331.585 105.983 331.194 106.254C330.804 106.525 330.499 106.908 330.28 107.402C330.062 107.892 329.952 108.467 329.952 109.129C329.952 109.801 330.059 110.389 330.272 110.895C330.486 111.395 330.788 111.783 331.179 112.059C331.575 112.335 332.035 112.473 332.562 112.473C333.088 112.473 333.538 112.337 333.913 112.066C334.288 111.79 334.535 111.415 334.655 110.941H335.999C335.926 111.457 335.739 111.921 335.437 112.332C335.14 112.743 334.746 113.072 334.257 113.316C333.772 113.556 333.207 113.676 332.562 113.676ZM336.14 106.004V104.754H343.218V106.004H340.358V113.488H339.015V106.004H336.14ZM347.64 113.676C346.801 113.676 346.075 113.488 345.46 113.113C344.851 112.738 344.382 112.215 344.054 111.543C343.726 110.866 343.562 110.082 343.562 109.191C343.562 108.296 343.723 107.507 344.046 106.824C344.369 106.142 344.822 105.608 345.405 105.223C345.994 104.837 346.681 104.645 347.468 104.645C347.921 104.645 348.371 104.72 348.819 104.871C349.267 105.022 349.674 105.267 350.038 105.605C350.408 105.944 350.702 106.392 350.921 106.949C351.14 107.507 351.249 108.191 351.249 109.004V109.582H344.515V108.426H350.522L349.905 108.863C349.905 108.28 349.814 107.762 349.632 107.309C349.45 106.855 349.176 106.499 348.812 106.238C348.452 105.978 348.004 105.848 347.468 105.848C346.931 105.848 346.47 105.98 346.085 106.246C345.705 106.507 345.413 106.848 345.21 107.27C345.007 107.691 344.905 108.145 344.905 108.629V109.395C344.905 110.056 345.02 110.616 345.249 111.074C345.478 111.533 345.799 111.882 346.21 112.121C346.621 112.355 347.098 112.473 347.64 112.473C347.989 112.473 348.306 112.423 348.593 112.324C348.879 112.22 349.127 112.066 349.335 111.863C349.543 111.655 349.702 111.4 349.812 111.098L351.108 111.473C350.973 111.91 350.744 112.296 350.421 112.629C350.103 112.957 349.707 113.215 349.233 113.402C348.759 113.585 348.228 113.676 347.64 113.676ZM352.515 116.754V104.754H353.796V106.145H353.952C354.051 105.993 354.189 105.801 354.366 105.566C354.543 105.327 354.799 105.113 355.132 104.926C355.465 104.738 355.916 104.645 356.483 104.645C357.218 104.645 357.864 104.829 358.421 105.199C358.978 105.564 359.413 106.085 359.726 106.762C360.043 107.434 360.202 108.228 360.202 109.145C360.202 110.066 360.046 110.868 359.733 111.551C359.421 112.228 358.986 112.751 358.429 113.121C357.871 113.491 357.228 113.676 356.499 113.676C355.942 113.676 355.494 113.582 355.155 113.395C354.817 113.202 354.556 112.986 354.374 112.746C354.192 112.501 354.051 112.301 353.952 112.145H353.843V116.754H352.515ZM356.327 112.473C356.884 112.473 357.351 112.324 357.726 112.027C358.101 111.725 358.382 111.322 358.569 110.816C358.762 110.311 358.858 109.749 358.858 109.129C358.858 108.514 358.765 107.96 358.577 107.465C358.39 106.97 358.108 106.577 357.733 106.285C357.364 105.993 356.895 105.848 356.327 105.848C355.78 105.848 355.322 105.986 354.952 106.262C354.582 106.533 354.301 106.915 354.108 107.41C353.921 107.9 353.827 108.473 353.827 109.129C353.827 109.785 353.924 110.366 354.116 110.871C354.309 111.371 354.59 111.764 354.96 112.051C355.335 112.332 355.791 112.473 356.327 112.473ZM362.046 116.754C361.817 116.759 361.614 116.743 361.437 116.707C361.259 116.671 361.134 116.634 361.062 116.598L361.405 115.426L361.538 115.457C361.986 115.561 362.361 115.538 362.663 115.387C362.97 115.241 363.239 114.853 363.468 114.223L363.718 113.535L360.499 104.754H361.952L364.358 111.723H364.452L366.858 104.754H368.312L364.608 114.754C364.442 115.207 364.236 115.582 363.991 115.879C363.746 116.176 363.463 116.395 363.14 116.535C362.817 116.681 362.452 116.754 362.046 116.754Z" fill="#1F1F1F"/>
<path d="M494.719 78.2656C494.49 78.2708 494.286 78.2552 494.109 78.2188C493.932 78.1823 493.807 78.1458 493.734 78.1094L494.078 76.9375L494.211 76.9688C494.659 77.0729 495.034 77.0495 495.336 76.8984C495.643 76.7526 495.911 76.3646 496.141 75.7344L496.391 75.0469L493.172 66.2656H494.625L497.031 73.2344H497.125L499.531 66.2656H500.984L497.281 76.2656C497.115 76.7188 496.909 77.0938 496.664 77.3906C496.419 77.6875 496.135 77.9062 495.812 78.0469C495.49 78.1927 495.125 78.2656 494.719 78.2656ZM501.469 75L505.016 70.5625L501.516 66.2656H503.094L506.016 70H506.734V66.2656H508.078V70H508.781L511.688 66.2656H513.281L509.797 70.5625L513.328 75H511.719L508.766 71.25H508.078V75H506.734V71.25H506.047L503.078 75H501.469ZM517.797 75.1875C516.958 75.1875 516.232 75 515.617 74.625C515.008 74.25 514.539 73.7266 514.211 73.0547C513.883 72.3776 513.719 71.5938 513.719 70.7031C513.719 69.8073 513.88 69.0182 514.203 68.3359C514.526 67.6536 514.979 67.1198 515.562 66.7344C516.151 66.349 516.839 66.1562 517.625 66.1562C518.078 66.1562 518.529 66.2318 518.977 66.3828C519.424 66.5339 519.831 66.7786 520.195 67.1172C520.565 67.4557 520.859 67.9036 521.078 68.4609C521.297 69.0182 521.406 69.7031 521.406 70.5156V71.0938H514.672V69.9375H520.68L520.062 70.375C520.062 69.7917 519.971 69.2734 519.789 68.8203C519.607 68.3672 519.333 68.0104 518.969 67.75C518.609 67.4896 518.161 67.3594 517.625 67.3594C517.089 67.3594 516.628 67.4922 516.242 67.7578C515.862 68.0182 515.57 68.3594 515.367 68.7812C515.164 69.2031 515.062 69.6562 515.062 70.1406V70.9062C515.062 71.5677 515.177 72.1276 515.406 72.5859C515.635 73.0443 515.956 73.3932 516.367 73.6328C516.779 73.8672 517.255 73.9844 517.797 73.9844C518.146 73.9844 518.464 73.9349 518.75 73.8359C519.036 73.7318 519.284 73.5781 519.492 73.375C519.701 73.1667 519.859 72.9115 519.969 72.6094L521.266 72.9844C521.13 73.4219 520.901 73.8073 520.578 74.1406C520.26 74.4688 519.865 74.7266 519.391 74.9141C518.917 75.0964 518.385 75.1875 517.797 75.1875ZM532.891 63L533.578 63.8125C533.312 64.0729 533.005 64.2552 532.656 64.3594C532.307 64.4583 531.911 64.5208 531.469 64.5469C531.031 64.5677 530.542 64.5885 530 64.6094C529.396 64.6302 528.896 64.7786 528.5 65.0547C528.104 65.3255 527.797 65.7188 527.578 66.2344C527.365 66.75 527.229 67.3854 527.172 68.1406H527.281C527.573 67.5938 527.979 67.1927 528.5 66.9375C529.026 66.6771 529.589 66.5469 530.188 66.5469C530.87 66.5469 531.482 66.7057 532.023 67.0234C532.57 67.3411 533.003 67.8125 533.32 68.4375C533.643 69.0625 533.802 69.8333 533.797 70.75C533.802 71.6615 533.643 72.4505 533.32 73.1172C532.997 73.7786 532.544 74.2891 531.961 74.6484C531.378 75.0026 530.698 75.1823 529.922 75.1875C528.745 75.1823 527.797 74.7656 527.078 73.9375C526.365 73.1042 526.005 71.8802 526 70.2656V69.3438C526.005 67.3958 526.336 65.9219 526.992 64.9219C527.654 63.9167 528.651 63.3958 529.984 63.3594C530.453 63.3438 530.87 63.3411 531.234 63.3516C531.604 63.3568 531.924 63.3385 532.195 63.2969C532.471 63.2552 532.703 63.1562 532.891 63ZM529.922 73.9844C530.448 73.9792 530.898 73.8464 531.273 73.5859C531.654 73.3203 531.945 72.9453 532.148 72.4609C532.357 71.9766 532.458 71.4062 532.453 70.75C532.458 70.1146 532.357 69.5729 532.148 69.125C531.945 68.6771 531.651 68.3359 531.266 68.1016C530.885 67.8672 530.427 67.75 529.891 67.75C529.5 67.75 529.148 67.8177 528.836 67.9531C528.529 68.0833 528.266 68.2786 528.047 68.5391C527.828 68.7943 527.659 69.1068 527.539 69.4766C527.419 69.8464 527.354 70.2708 527.344 70.75C527.344 71.724 527.573 72.5052 528.031 73.0938C528.49 73.6823 529.12 73.9792 529.922 73.9844ZM536.25 69.4375H538.75C539.771 69.4323 540.552 69.6901 541.094 70.2109C541.635 70.7318 541.906 71.3906 541.906 72.1875C541.906 72.7083 541.784 73.1823 541.539 73.6094C541.299 74.0312 540.945 74.3698 540.477 74.625C540.008 74.875 539.432 75 538.75 75H535.094V66.2656H536.422V73.75H538.75C539.276 73.75 539.708 73.612 540.047 73.3359C540.391 73.0547 540.562 72.6927 540.562 72.25C540.562 71.7865 540.391 71.4089 540.047 71.1172C539.708 70.8255 539.276 70.6823 538.75 70.6875H536.25V69.4375ZM543.297 75V66.2656H544.625V75H543.297ZM545.562 75V73.75H545.875C546.229 73.75 546.505 73.6536 546.703 73.4609C546.901 73.263 547.047 72.9036 547.141 72.3828C547.24 71.862 547.307 71.1146 547.344 70.1406L547.5 66.2656H553.312V75H551.969V67.5156H548.766L548.625 70.6406C548.594 71.3542 548.531 71.9844 548.438 72.5312C548.344 73.0729 548.198 73.5286 548 73.8984C547.807 74.263 547.549 74.5391 547.227 74.7266C546.904 74.9089 546.5 75 546.016 75H545.562ZM556.359 73.0156L560.562 66.2656H562.109V75H560.781V68.25L556.594 75H555.031V66.2656H556.359V73.0156ZM571.109 75.1875C570.323 75.1875 569.633 75 569.039 74.625C568.445 74.25 567.982 73.724 567.648 73.0469C567.32 72.3698 567.156 71.5833 567.156 70.6875C567.156 69.776 567.32 68.9818 567.648 68.3047C567.982 67.6224 568.445 67.0938 569.039 66.7188C569.633 66.3438 570.323 66.1562 571.109 66.1562C571.901 66.1562 572.594 66.3438 573.188 66.7188C573.781 67.0938 574.245 67.6224 574.578 68.3047C574.911 68.9818 575.078 69.776 575.078 70.6875C575.078 71.5833 574.911 72.3698 574.578 73.0469C574.245 73.724 573.781 74.25 573.188 74.625C572.594 75 571.901 75.1875 571.109 75.1875ZM571.109 73.9844C571.714 73.9844 572.208 73.8307 572.594 73.5234C572.979 73.2161 573.266 72.8125 573.453 72.3125C573.641 71.8073 573.734 71.2656 573.734 70.6875C573.734 70.099 573.641 69.5521 573.453 69.0469C573.266 68.5417 572.979 68.1354 572.594 67.8281C572.208 67.5156 571.714 67.3594 571.109 67.3594C570.516 67.3594 570.026 67.5156 569.641 67.8281C569.255 68.1354 568.969 68.5417 568.781 69.0469C568.594 69.5521 568.5 70.099 568.5 70.6875C568.5 71.2656 568.594 71.8073 568.781 72.3125C568.969 72.8125 569.255 73.2161 569.641 73.5234C570.026 73.8307 570.516 73.9844 571.109 73.9844ZM582.844 63L583.531 63.8125C583.266 64.0729 582.958 64.2552 582.609 64.3594C582.26 64.4583 581.865 64.5208 581.422 64.5469C580.984 64.5677 580.495 64.5885 579.953 64.6094C579.349 64.6302 578.849 64.7786 578.453 65.0547C578.057 65.3255 577.75 65.7188 577.531 66.2344C577.318 66.75 577.182 67.3854 577.125 68.1406H577.234C577.526 67.5938 577.932 67.1927 578.453 66.9375C578.979 66.6771 579.542 66.5469 580.141 66.5469C580.823 66.5469 581.435 66.7057 581.977 67.0234C582.523 67.3411 582.956 67.8125 583.273 68.4375C583.596 69.0625 583.755 69.8333 583.75 70.75C583.755 71.6615 583.596 72.4505 583.273 73.1172C582.951 73.7786 582.497 74.2891 581.914 74.6484C581.331 75.0026 580.651 75.1823 579.875 75.1875C578.698 75.1823 577.75 74.7656 577.031 73.9375C576.318 73.1042 575.958 71.8802 575.953 70.2656V69.3438C575.958 67.3958 576.289 65.9219 576.945 64.9219C577.607 63.9167 578.604 63.3958 579.938 63.3594C580.406 63.3438 580.823 63.3411 581.188 63.3516C581.557 63.3568 581.878 63.3385 582.148 63.2969C582.424 63.2552 582.656 63.1562 582.844 63ZM579.875 73.9844C580.401 73.9792 580.852 73.8464 581.227 73.5859C581.607 73.3203 581.898 72.9453 582.102 72.4609C582.31 71.9766 582.411 71.4062 582.406 70.75C582.411 70.1146 582.31 69.5729 582.102 69.125C581.898 68.6771 581.604 68.3359 581.219 68.1016C580.839 67.8672 580.38 67.75 579.844 67.75C579.453 67.75 579.102 67.8177 578.789 67.9531C578.482 68.0833 578.219 68.2786 578 68.5391C577.781 68.7943 577.612 69.1068 577.492 69.4766C577.372 69.8464 577.307 70.2708 577.297 70.75C577.297 71.724 577.526 72.5052 577.984 73.0938C578.443 73.6823 579.073 73.9792 579.875 73.9844ZM589.812 73.1875L592.859 66.2656H594.125L590.359 75H589.266L585.562 66.2656H586.812L589.812 73.1875ZM586.375 66.2656V75H585.047V66.2656H586.375ZM593.25 75V66.2656H594.578V75H593.25ZM598.859 75.2031C598.307 75.2031 597.805 75.099 597.352 74.8906C596.898 74.6771 596.539 74.3698 596.273 73.9688C596.008 73.5677 595.875 73.0833 595.875 72.5156C595.875 72.0156 595.974 71.612 596.172 71.3047C596.37 70.9922 596.633 70.7474 596.961 70.5703C597.294 70.388 597.659 70.2526 598.055 70.1641C598.456 70.0755 598.859 70.0052 599.266 69.9531C599.797 69.8854 600.227 69.8333 600.555 69.7969C600.888 69.7604 601.13 69.6979 601.281 69.6094C601.438 69.5208 601.516 69.3698 601.516 69.1562V69.1094C601.516 68.5521 601.362 68.1198 601.055 67.8125C600.753 67.5 600.292 67.3438 599.672 67.3438C599.036 67.3438 598.536 67.4844 598.172 67.7656C597.807 68.0417 597.552 68.3385 597.406 68.6562L596.125 68.2031C596.354 67.6719 596.659 67.2578 597.039 66.9609C597.424 66.6641 597.841 66.4557 598.289 66.3359C598.742 66.2161 599.188 66.1562 599.625 66.1562C599.906 66.1562 600.229 66.1901 600.594 66.2578C600.958 66.3203 601.312 66.4557 601.656 66.6641C602.005 66.8672 602.292 67.1771 602.516 67.5938C602.745 68.0052 602.859 68.5573 602.859 69.25V75H601.516V73.8125H601.453C601.365 74 601.214 74.2031 601 74.4219C600.786 74.6354 600.503 74.8203 600.148 74.9766C599.799 75.1276 599.37 75.2031 598.859 75.2031ZM599.062 74C599.594 74 600.042 73.8958 600.406 73.6875C600.771 73.4792 601.047 73.2109 601.234 72.8828C601.422 72.5495 601.516 72.2031 601.516 71.8438V70.6094C601.458 70.6771 601.333 70.7396 601.141 70.7969C600.953 70.849 600.734 70.8958 600.484 70.9375C600.24 70.9792 600 71.0156 599.766 71.0469C599.531 71.0729 599.344 71.0938 599.203 71.1094C598.854 71.1562 598.529 71.2318 598.227 71.3359C597.924 71.4349 597.68 71.5833 597.492 71.7812C597.31 71.9792 597.219 72.25 597.219 72.5938C597.219 73.0573 597.391 73.4089 597.734 73.6484C598.083 73.8828 598.526 74 599.062 74ZM610.406 70.0156V71.2656H605.594V70.0156H610.406ZM605.906 66.2656V75H604.578V66.2656H605.906ZM611.438 66.2656V75H610.094V66.2656H611.438ZM613.703 78.2656C613.474 78.2708 613.271 78.2552 613.094 78.2188C612.917 78.1823 612.792 78.1458 612.719 78.1094L613.062 76.9375L613.195 76.9688C613.643 77.0729 614.018 77.0495 614.32 76.8984C614.628 76.7526 614.896 76.3646 615.125 75.7344L615.375 75.0469L612.156 66.2656H613.609L616.016 73.2344H616.109L618.516 66.2656H619.969L616.266 76.2656C616.099 76.7188 615.893 77.0938 615.648 77.3906C615.404 77.6875 615.12 77.9062 614.797 78.0469C614.474 78.1927 614.109 78.2656 613.703 78.2656ZM620.5 67.5156V66.2656H627.578V67.5156H624.719V75H623.375V67.5156H620.5ZM629.953 69.4375H632.453C633.474 69.4323 634.255 69.6901 634.797 70.2109C635.339 70.7318 635.609 71.3906 635.609 72.1875C635.609 72.7083 635.487 73.1823 635.242 73.6094C635.003 74.0312 634.648 74.3698 634.18 74.625C633.711 74.875 633.135 75 632.453 75H628.797V66.2656H630.125V73.75H632.453C632.979 73.75 633.411 73.612 633.75 73.3359C634.094 73.0547 634.266 72.6927 634.266 72.25C634.266 71.7865 634.094 71.4089 633.75 71.1172C633.411 70.8255 632.979 70.6823 632.453 70.6875H629.953V69.4375ZM637 75V66.2656H638.328V75H637ZM498.625 92.1875L501.672 85.2656H502.938L499.172 94H498.078L494.375 85.2656H495.625L498.625 92.1875ZM495.188 85.2656V94H493.859V85.2656H495.188ZM502.062 94V85.2656H503.391V94H502.062ZM507.672 94.2031C507.12 94.2031 506.617 94.099 506.164 93.8906C505.711 93.6771 505.352 93.3698 505.086 92.9688C504.82 92.5677 504.688 92.0833 504.688 91.5156C504.688 91.0156 504.786 90.612 504.984 90.3047C505.182 89.9922 505.445 89.7474 505.773 89.5703C506.107 89.388 506.471 89.2526 506.867 89.1641C507.268 89.0755 507.672 89.0052 508.078 88.9531C508.609 88.8854 509.039 88.8333 509.367 88.7969C509.701 88.7604 509.943 88.6979 510.094 88.6094C510.25 88.5208 510.328 88.3698 510.328 88.1562V88.1094C510.328 87.5521 510.174 87.1198 509.867 86.8125C509.565 86.5 509.104 86.3438 508.484 86.3438C507.849 86.3438 507.349 86.4844 506.984 86.7656C506.62 87.0417 506.365 87.3385 506.219 87.6562L504.938 87.2031C505.167 86.6719 505.471 86.2578 505.852 85.9609C506.237 85.6641 506.654 85.4557 507.102 85.3359C507.555 85.2161 508 85.1562 508.438 85.1562C508.719 85.1562 509.042 85.1901 509.406 85.2578C509.771 85.3203 510.125 85.4557 510.469 85.6641C510.818 85.8672 511.104 86.1771 511.328 86.5938C511.557 87.0052 511.672 87.5573 511.672 88.25V94H510.328V92.8125H510.266C510.177 93 510.026 93.2031 509.812 93.4219C509.599 93.6354 509.315 93.8203 508.961 93.9766C508.612 94.1276 508.182 94.2031 507.672 94.2031ZM507.875 93C508.406 93 508.854 92.8958 509.219 92.6875C509.583 92.4792 509.859 92.2109 510.047 91.8828C510.234 91.5495 510.328 91.2031 510.328 90.8438V89.6094C510.271 89.6771 510.146 89.7396 509.953 89.7969C509.766 89.849 509.547 89.8958 509.297 89.9375C509.052 89.9792 508.812 90.0156 508.578 90.0469C508.344 90.0729 508.156 90.0938 508.016 90.1094C507.667 90.1562 507.341 90.2318 507.039 90.3359C506.737 90.4349 506.492 90.5833 506.305 90.7812C506.122 90.9792 506.031 91.25 506.031 91.5938C506.031 92.0573 506.203 92.4089 506.547 92.6484C506.896 92.8828 507.339 93 507.875 93ZM516.922 94.1875C516.109 94.1875 515.406 93.9948 514.812 93.6094C514.224 93.2188 513.768 92.6849 513.445 92.0078C513.128 91.3307 512.969 90.5573 512.969 89.6875C512.969 88.7969 513.133 88.013 513.461 87.3359C513.789 86.6536 514.247 86.1198 514.836 85.7344C515.43 85.349 516.12 85.1562 516.906 85.1562C517.521 85.1562 518.073 85.2708 518.562 85.5C519.057 85.724 519.461 86.0417 519.773 86.4531C520.091 86.8646 520.286 87.3438 520.359 87.8906H519.016C518.948 87.625 518.826 87.375 518.648 87.1406C518.471 86.9062 518.237 86.7188 517.945 86.5781C517.659 86.4323 517.318 86.3594 516.922 86.3594C516.401 86.3594 515.945 86.4948 515.555 86.7656C515.164 87.0365 514.859 87.4193 514.641 87.9141C514.422 88.4036 514.312 88.9792 514.312 89.6406C514.312 90.3125 514.419 90.901 514.633 91.4062C514.846 91.9062 515.148 92.2943 515.539 92.5703C515.935 92.8464 516.396 92.9844 516.922 92.9844C517.448 92.9844 517.898 92.849 518.273 92.5781C518.648 92.3021 518.896 91.9271 519.016 91.4531H520.359C520.286 91.9688 520.099 92.4323 519.797 92.8438C519.5 93.2552 519.107 93.5833 518.617 93.8281C518.133 94.0677 517.568 94.1875 516.922 94.1875ZM520.5 86.5156V85.2656H527.578V86.5156H524.719V94H523.375V86.5156H520.5ZM532 94.1875C531.161 94.1875 530.435 94 529.82 93.625C529.211 93.25 528.742 92.7266 528.414 92.0547C528.086 91.3776 527.922 90.5938 527.922 89.7031C527.922 88.8073 528.083 88.0182 528.406 87.3359C528.729 86.6536 529.182 86.1198 529.766 85.7344C530.354 85.349 531.042 85.1562 531.828 85.1562C532.281 85.1562 532.732 85.2318 533.18 85.3828C533.628 85.5339 534.034 85.7786 534.398 86.1172C534.768 86.4557 535.062 86.9036 535.281 87.4609C535.5 88.0182 535.609 88.7031 535.609 89.5156V90.0938H528.875V88.9375H534.883L534.266 89.375C534.266 88.7917 534.174 88.2734 533.992 87.8203C533.81 87.3672 533.536 87.0104 533.172 86.75C532.812 86.4896 532.365 86.3594 531.828 86.3594C531.292 86.3594 530.831 86.4922 530.445 86.7578C530.065 87.0182 529.773 87.3594 529.57 87.7812C529.367 88.2031 529.266 88.6562 529.266 89.1406V89.9062C529.266 90.5677 529.38 91.1276 529.609 91.5859C529.839 92.0443 530.159 92.3932 530.57 92.6328C530.982 92.8672 531.458 92.9844 532 92.9844C532.349 92.9844 532.667 92.9349 532.953 92.8359C533.24 92.7318 533.487 92.5781 533.695 92.375C533.904 92.1667 534.062 91.9115 534.172 91.6094L535.469 91.9844C535.333 92.4219 535.104 92.8073 534.781 93.1406C534.464 93.4688 534.068 93.7266 533.594 93.9141C533.12 94.0964 532.589 94.1875 532 94.1875ZM536.875 97.2656V85.2656H538.156V86.6562H538.312C538.411 86.5052 538.549 86.3125 538.727 86.0781C538.904 85.8385 539.159 85.625 539.492 85.4375C539.826 85.25 540.276 85.1562 540.844 85.1562C541.578 85.1562 542.224 85.3411 542.781 85.7109C543.339 86.0755 543.773 86.5964 544.086 87.2734C544.404 87.9453 544.562 88.7396 544.562 89.6562C544.562 90.5781 544.406 91.3802 544.094 92.0625C543.781 92.7396 543.346 93.263 542.789 93.6328C542.232 94.0026 541.589 94.1875 540.859 94.1875C540.302 94.1875 539.854 94.0938 539.516 93.9062C539.177 93.7135 538.917 93.4974 538.734 93.2578C538.552 93.013 538.411 92.8125 538.312 92.6562H538.203V97.2656H536.875ZM540.688 92.9844C541.245 92.9844 541.711 92.8359 542.086 92.5391C542.461 92.237 542.742 91.8333 542.93 91.3281C543.122 90.8229 543.219 90.2604 543.219 89.6406C543.219 89.026 543.125 88.4714 542.938 87.9766C542.75 87.4818 542.469 87.0885 542.094 86.7969C541.724 86.5052 541.255 86.3594 540.688 86.3594C540.141 86.3594 539.682 86.4974 539.312 86.7734C538.943 87.0443 538.661 87.4271 538.469 87.9219C538.281 88.4115 538.188 88.9844 538.188 89.6406C538.188 90.2969 538.284 90.8776 538.477 91.3828C538.669 91.8828 538.951 92.276 539.32 92.5625C539.695 92.8438 540.151 92.9844 540.688 92.9844ZM549.391 94.1875C548.604 94.1875 547.914 94 547.32 93.625C546.727 93.25 546.263 92.724 545.93 92.0469C545.602 91.3698 545.438 90.5833 545.438 89.6875C545.438 88.776 545.602 87.9818 545.93 87.3047C546.263 86.6224 546.727 86.0938 547.32 85.7188C547.914 85.3438 548.604 85.1562 549.391 85.1562C550.182 85.1562 550.875 85.3438 551.469 85.7188C552.062 86.0938 552.526 86.6224 552.859 87.3047C553.193 87.9818 553.359 88.776 553.359 89.6875C553.359 90.5833 553.193 91.3698 552.859 92.0469C552.526 92.724 552.062 93.25 551.469 93.625C550.875 94 550.182 94.1875 549.391 94.1875ZM549.391 92.9844C549.995 92.9844 550.49 92.8307 550.875 92.5234C551.26 92.2161 551.547 91.8125 551.734 91.3125C551.922 90.8073 552.016 90.2656 552.016 89.6875C552.016 89.099 551.922 88.5521 551.734 88.0469C551.547 87.5417 551.26 87.1354 550.875 86.8281C550.49 86.5156 549.995 86.3594 549.391 86.3594C548.797 86.3594 548.307 86.5156 547.922 86.8281C547.536 87.1354 547.25 87.5417 547.062 88.0469C546.875 88.5521 546.781 89.099 546.781 89.6875C546.781 90.2656 546.875 90.8073 547.062 91.3125C547.25 91.8125 547.536 92.2161 547.922 92.5234C548.307 92.8307 548.797 92.9844 549.391 92.9844ZM559.422 92.1875L562.469 85.2656H563.734L559.969 94H558.875L555.172 85.2656H556.422L559.422 92.1875ZM555.984 85.2656V94H554.656V85.2656H555.984ZM562.859 94V85.2656H564.188V94H562.859Z" fill="#1F1F1F"/>
<ellipse cx="342.675" cy="308.98" rx="129.511" ry="130.361" fill="#017DFF"/>
<path d="M106.582 202.05C165.173 202.05 212.663 249.168 212.663 307.282C212.663 365.396 165.173 412.514 106.582 412.514C47.9911 412.514 0.500067 365.396 0.5 307.282C0.5 249.168 47.991 202.05 106.582 202.05Z" fill="#1F1F1F" stroke="#1F1F1F"/>
<circle cx="528.661" cy="307.282" r="55.9755" fill="#CACACA" stroke="#CACACA"/>
<line x1="0.592773" y1="6.55579" x2="0.592761" y2="308.556" stroke="#797979"/>
<line x1="213.593" y1="6.55579" x2="213.593" y2="308.556" stroke="#797979"/>
<line x1="472.593" y1="6.55579" x2="472.593" y2="308.556" stroke="#797979"/>
</svg>
