<svg width="145" height="22" viewBox="0 0 145 22" fill="none" xmlns="http://www.w3.org/2000/svg">
<path d="M108.491 9.88207L110.856 13.956L107.442 22L102.714 19.5002L106.4 14.5592L105.832 13.5814L99.6875 14.2856L99.9695 9.12623L108.491 9.88207Z" fill="#1F1F1F"/>
<path d="M122.207 14.0721L116.062 13.3681L115.494 14.3459L119.18 19.2869L114.547 21.6237L110.944 13.9056L113.309 9.83164L122.019 8.74981L122.207 14.0721Z" fill="#1F1F1F"/>
<path d="M118.133 2.82251L113.214 9.78479H108.484L103.187 2.82251L107.728 0L110.187 5.64502H111.322L113.782 0L118.133 2.82251Z" fill="#1F1F1F"/>
<path d="M24.0669 0V5.45378H5.88508V8.5042H24.0669V14.2661H5.88508V22H0V0H24.0669Z" fill="#1F1F1F"/>
<path d="M25.6286 17.7171H30.5845V4.31372H25.6286V0H41.4254V4.31372H36.4696V17.7171H41.4254V22H25.6286V17.7171Z" fill="#1F1F1F"/>
<path d="M69.7837 0L59.779 11L69.7837 22H61.7924L55.4736 14.5742L49.1549 22H41.1326L51.1373 11L41.1326 0H49.1549L55.4736 7.42577L61.7924 0H69.7837Z" fill="#1F1F1F"/>
<path d="M97.345 6.2549C97.345 7.11765 97.1695 7.95985 96.8185 8.78151C96.4674 9.60318 95.8996 10.3427 95.1149 11C95.8996 11.6573 96.4674 12.4071 96.8185 13.2493C97.1695 14.071 97.345 14.9029 97.345 15.7451C97.345 16.8954 97.1489 17.8711 96.7565 18.6723C96.3642 19.4528 95.8376 20.0896 95.1769 20.5826C94.5161 21.0756 93.7417 21.4351 92.8538 21.6611C91.9659 21.887 91.0367 22 90.0661 22H69.1896V0H90.0661C91.0367 0 91.9659 0.112978 92.8538 0.338935C93.7417 0.564893 94.5161 0.92437 95.1769 1.41737C95.8376 1.91036 96.3642 2.55742 96.7565 3.35854C97.1489 4.13912 97.345 5.10458 97.345 6.2549ZM89.4466 8.9972C90.0868 8.9972 90.5824 8.85341 90.9334 8.56583C91.3051 8.2577 91.4909 7.80579 91.4909 7.21008C91.4909 6.676 91.3051 6.2549 90.9334 5.94678C90.5824 5.61811 90.1281 5.45378 89.5705 5.45378H75.0437V8.9972H89.4466ZM75.0437 13.0336V16.5462H89.5705C90.1281 16.5462 90.5824 16.3922 90.9334 16.084C91.3051 15.7759 91.4909 15.3445 91.4909 14.7899C91.4909 14.1942 91.3051 13.7526 90.9334 13.465C90.5824 13.1774 90.0868 13.0336 89.4466 13.0336H75.0437Z" fill="#1F1F1F"/>
<path d="M122.73 0H145V5.54622H136.699V22H130.845V5.54622H122.73V0Z" fill="#1F1F1F"/>
</svg>
